<?xml version="1.0" encoding="utf-8"?>
<!-- Generator: Adobe Illustrator 16.0.0, SVG Export Plug-In . SVG Version: 6.00 Build 0)  -->
<!DOCTYPE svg PUBLIC "-//W3C//DTD SVG 1.1//EN" "http://www.w3.org/Graphics/SVG/1.1/DTD/svg11.dtd">
<svg version="1.1" id="Layer_1" xmlns="http://www.w3.org/2000/svg" xmlns:xlink="http://www.w3.org/1999/xlink" x="0px" y="0px"
	 width="40px" height="40px" viewBox="0 0 40 40" enable-background="new 0 0 40 40" xml:space="preserve">
<path fill="#E9E9E9" stroke="#E7E7E7" stroke-miterlimit="10" d="M39,20c0,10.493-8.507,19-19,19S1,30.493,1,20
	C1,9.506,9.507,1,20,1S39,9.506,39,20z"/>
<path fill="#4B4A4B" d="M18.846,20l4.051,4.333C22.966,24.404,23,24.49,23,24.584c0,0.098-0.034,0.182-0.102,0.254l-0.516,0.553
	c-0.068,0.072-0.146,0.109-0.236,0.109s-0.17-0.037-0.237-0.109l-4.806-5.138C17.035,20.18,17,20.095,17,20
	c0-0.097,0.034-0.181,0.104-0.253l4.804-5.137c0.069-0.072,0.147-0.109,0.237-0.109s0.168,0.037,0.236,0.109l0.516,0.552
	C22.966,15.233,23,15.317,23,15.415c0,0.094-0.034,0.179-0.104,0.252L18.846,20z"/>
</svg>
