<?xml version="1.0" encoding="utf-8"?>
<!-- Generator: Adobe Illustrator 16.0.0, SVG Export Plug-In . SVG Version: 6.00 Build 0)  -->
<!DOCTYPE svg PUBLIC "-//W3C//DTD SVG 1.1//EN" "http://www.w3.org/Graphics/SVG/1.1/DTD/svg11.dtd">
<svg version="1.1" id="Layer_1" xmlns="http://www.w3.org/2000/svg" xmlns:xlink="http://www.w3.org/1999/xlink" x="0px" y="0px"
	 width="40px" height="40px" viewBox="0 0 40 40" enable-background="new 0 0 40 40" xml:space="preserve">
<path fill="#F5F5F5" stroke="#E7E7E7" stroke-miterlimit="10" d="M39,20c0,10.493-8.507,19-19,19S1,30.493,1,20
	C1,9.506,9.507,1,20,1S39,9.506,39,20z"/>
<path fill="#4B4A4B" d="M17.103,15.667C17.034,15.594,17,15.509,17,15.415c0-0.097,0.034-0.181,0.103-0.253l0.516-0.552
	c0.069-0.072,0.147-0.109,0.237-0.109s0.168,0.037,0.237,0.109l4.804,5.137C22.966,19.819,23,19.903,23,20
	c0,0.095-0.035,0.18-0.104,0.253l-4.805,5.138c-0.068,0.072-0.147,0.109-0.237,0.109s-0.168-0.037-0.237-0.109l-0.515-0.553
	C17.034,24.766,17,24.682,17,24.584c0-0.094,0.034-0.18,0.103-0.252L21.154,20L17.103,15.667z"/>
</svg>
