<?xml version="1.0" encoding="utf-8"?>
<!-- Generator: Adobe Illustrator 16.0.0, SVG Export Plug-In . SVG Version: 6.00 Build 0)  -->
<!DOCTYPE svg PUBLIC "-//W3C//DTD SVG 1.1//EN" "http://www.w3.org/Graphics/SVG/1.1/DTD/svg11.dtd">
<svg version="1.1" id="Layer_1" xmlns="http://www.w3.org/2000/svg" xmlns:xlink="http://www.w3.org/1999/xlink" x="0px" y="0px"
	 width="40px" height="40px" viewBox="0 0 40 40" enable-background="new 0 0 40 40" xml:space="preserve">
<path fill="#E9E9E9" stroke="#E7E7E7" stroke-miterlimit="10" d="M20,1c10.493,0,19,8.506,19,19c0,10.493-8.507,19-19,19
	S1,30.493,1,20C1,9.506,9.507,1,20,1z"/>
<path fill="#4B4A4B" d="M20.846,19.5l4.051,4.332C24.966,23.904,25,23.99,25,24.085c0,0.097-0.034,0.181-0.104,0.254l-0.515,0.552
	C24.313,24.963,24.234,25,24.145,25c-0.088,0-0.168-0.037-0.236-0.109l-4.804-5.138C19.034,19.68,19,19.595,19,19.5
	c0-0.096,0.035-0.18,0.104-0.254l4.804-5.136c0.068-0.073,0.148-0.11,0.236-0.11c0.09,0,0.168,0.037,0.237,0.11l0.517,0.551
	C24.966,14.734,25,14.819,25,14.915c0,0.095-0.034,0.18-0.104,0.253L20.846,19.5z"/>
<path fill="#4B4A4B" d="M15.845,19.5l4.052,4.332C19.966,23.904,20,23.99,20,24.085c0,0.097-0.034,0.181-0.103,0.254l-0.515,0.552
	C19.313,24.963,19.234,25,19.144,25c-0.089,0-0.168-0.037-0.237-0.109l-4.804-5.138C14.034,19.68,14,19.595,14,19.5
	c0-0.096,0.034-0.18,0.103-0.254l4.804-5.136c0.069-0.073,0.148-0.11,0.237-0.11c0.09,0,0.168,0.037,0.237,0.11l0.516,0.551
	C19.966,14.734,20,14.819,20,14.915c0,0.095-0.034,0.18-0.103,0.253L15.845,19.5z"/>
</svg>
