<?xml version="1.0" encoding="utf-8"?>
<!-- Generator: Adobe Illustrator 16.0.0, SVG Export Plug-In . SVG Version: 6.00 Build 0)  -->
<!DOCTYPE svg PUBLIC "-//W3C//DTD SVG 1.1//EN" "http://www.w3.org/Graphics/SVG/1.1/DTD/svg11.dtd">
<svg version="1.1" id="Layer_1" xmlns="http://www.w3.org/2000/svg" xmlns:xlink="http://www.w3.org/1999/xlink" x="0px" y="0px"
	 width="40px" height="40px" viewBox="0 0 40 40" enable-background="new 0 0 40 40" xml:space="preserve">
<path fill-rule="evenodd" clip-rule="evenodd" fill="#F5F5F5" stroke="#E7E7E7" stroke-miterlimit="10" d="M39,20
	c0,10.493-8.507,19-19,19S1,30.493,1,20C1,9.506,9.507,1,20,1S39,9.506,39,20z"/>
<path fill-rule="evenodd" clip-rule="evenodd" fill="#4B4A4B" d="M15.103,15.168C15.034,15.095,15,15.01,15,14.915
	c0-0.096,0.034-0.18,0.103-0.253l0.516-0.551c0.069-0.073,0.147-0.11,0.237-0.11s0.168,0.037,0.237,0.11l4.804,5.136
	C20.966,19.32,21,19.404,21,19.5c0,0.095-0.035,0.18-0.104,0.253l-4.804,5.137C16.024,24.963,15.945,25,15.855,25
	s-0.168-0.037-0.237-0.11l-0.515-0.551C15.034,24.266,15,24.181,15,24.085c0-0.095,0.034-0.18,0.103-0.253l4.052-4.332
	L15.103,15.168z"/>
<path fill-rule="evenodd" clip-rule="evenodd" fill="#4B4A4B" d="M20.103,15.168C20.034,15.095,20,15.01,20,14.915
	c0-0.096,0.034-0.18,0.103-0.253l0.516-0.551c0.069-0.073,0.147-0.11,0.237-0.11c0.089,0,0.168,0.037,0.237,0.11l4.804,5.136
	C25.966,19.32,26,19.404,26,19.5c0,0.095-0.034,0.18-0.103,0.253l-4.804,5.137C21.024,24.963,20.945,25,20.856,25
	c-0.09,0-0.168-0.037-0.238-0.11l-0.515-0.551C20.034,24.266,20,24.181,20,24.085c0-0.095,0.034-0.18,0.103-0.253l4.052-4.332
	L20.103,15.168z"/>
</svg>
