<?xml version="1.0" encoding="iso-8859-1"?>
<!-- Generator: Adobe Illustrator 16.0.3, SVG Export Plug-In . SVG Version: 6.00 Build 0)  -->
<!DOCTYPE svg PUBLIC "-//W3C//DTD SVG 1.1//EN" "http://www.w3.org/Graphics/SVG/1.1/DTD/svg11.dtd">
<svg version="1.1" id="Layer_1" xmlns="http://www.w3.org/2000/svg" xmlns:xlink="http://www.w3.org/1999/xlink" x="0px" y="0px"
	 width="20px" height="20px" viewBox="0 0 20 20" style="enable-background:new 0 0 20 20;" xml:space="preserve">
<path style="fill:#FFFFFF;" d="M8.887,15.381c0-0.35-0.284-0.634-0.634-0.634H3.467c-0.35,0-0.634,0.284-0.634,0.634
	c0,0.11,0.028,0.214,0.078,0.305h-0.91V17H9.72v-1.314H8.81C8.859,15.596,8.887,15.492,8.887,15.381z"/>
<path style="fill:#FFFFFF;" d="M8.073,4.543l4.044,2.568c0.314,0.161,0.705,0.058,0.898-0.246l0.194-0.306
	c0.205-0.323,0.109-0.751-0.213-0.956L9.063,3.106C8.741,2.901,8.313,2.997,8.107,3.319L7.914,3.625
	C7.721,3.929,7.794,4.326,8.073,4.543z"/>
<path style="fill:#FFFFFF;" d="M19,14.355l-0.003-0.061l-0.005-0.058c-0.002-0.04-0.008-0.075-0.013-0.111
	c-0.02-0.144-0.053-0.267-0.093-0.378c-0.083-0.22-0.198-0.387-0.341-0.512c-0.035-0.032-0.073-0.06-0.111-0.087l-0.113-0.084
	c-0.075-0.057-0.151-0.111-0.227-0.166c-0.076-0.056-0.153-0.11-0.229-0.164c-0.077-0.054-0.153-0.108-0.231-0.161
	c-0.154-0.106-0.31-0.21-0.466-0.314l-0.235-0.154l-0.236-0.152c-0.158-0.101-0.316-0.201-0.476-0.299
	c-0.159-0.099-0.319-0.197-0.48-0.293l-0.482-0.289l-0.486-0.284l-0.488-0.279l-0.491-0.276L13.3,9.961l-0.495-0.269
	c-0.166-0.088-0.332-0.177-0.498-0.264c-0.167-0.087-0.333-0.175-0.501-0.261l-0.151,0.239l-0.766-0.361l0.855-1.347L7.7,5.13
	L5.596,8.443l4.044,2.569l0.855-1.347l0.652,0.539l-0.152,0.239c0.148,0.115,0.299,0.229,0.449,0.342
	c0.149,0.114,0.3,0.226,0.451,0.338l0.454,0.334l0.456,0.331l0.458,0.327l0.46,0.323l0.463,0.319l0.466,0.314
	c0.156,0.104,0.313,0.208,0.47,0.31c0.157,0.102,0.315,0.203,0.473,0.303l0.238,0.149l0.239,0.147
	c0.16,0.097,0.321,0.194,0.483,0.289c0.081,0.047,0.162,0.095,0.243,0.141c0.082,0.047,0.163,0.093,0.246,0.138
	c0.082,0.045,0.164,0.091,0.247,0.135l0.125,0.066c0.041,0.022,0.083,0.045,0.126,0.063c0.174,0.076,0.374,0.11,0.609,0.09
	c0.118-0.01,0.243-0.033,0.381-0.076c0.035-0.011,0.069-0.021,0.105-0.036l0.054-0.02l0.057-0.023
	c0.076-0.031,0.156-0.071,0.244-0.122C19.002,14.527,19.004,14.438,19,14.355z"/>
<path style="fill:#FFFFFF;" d="M4.345,10.539l3.933,2.498c0.323,0.205,0.75,0.11,0.956-0.213l0.194-0.306
	c0.193-0.304,0.119-0.701-0.16-0.917L5.224,9.031c-0.314-0.16-0.706-0.058-0.898,0.246L4.131,9.583
	C3.926,9.905,4.022,10.333,4.345,10.539z"/>
</svg>
