<?xml version="1.0" encoding="utf-8"?>
<!-- Generator: Adobe Illustrator 16.0.0, SVG Export Plug-In . SVG Version: 6.00 Build 0)  -->
<!DOCTYPE svg PUBLIC "-//W3C//DTD SVG 1.1//EN" "http://www.w3.org/Graphics/SVG/1.1/DTD/svg11.dtd">
<svg version="1.1" id="Layer_1" xmlns="http://www.w3.org/2000/svg" xmlns:xlink="http://www.w3.org/1999/xlink" x="0px" y="0px"
	 width="14px" height="14px" viewBox="0 0 14 14" enable-background="new 0 0 14 14" xml:space="preserve">
<g>
	<path fill="#FFFFFF" d="M10.601,9.351C10.154,8.665,8.995,8.191,7.5,8.084c-0.067-0.005-0.131,0.017-0.18,0.06
		C7.287,8.172,7.25,8.211,7.209,8.256C7.142,8.331,7.071,8.409,7.002,8.428h0C6.933,8.409,6.862,8.331,6.79,8.251
		C6.752,8.21,6.716,8.171,6.683,8.143C6.634,8.1,6.569,8.079,6.503,8.083C5.009,8.19,3.849,8.666,3.394,9.364
		c-0.071,0.119-1.714,2.92-0.358,4.549C3.081,13.968,3.15,14,3.223,14h7.557c0.073,0,0.142-0.032,0.188-0.086
		C12.341,12.264,10.623,9.386,10.601,9.351z M7.44,12.274c-0.001,0.026-0.008,0.053-0.021,0.076l-0.26,0.459
		C7.127,12.865,7.066,12.899,7,12.899c-0.065,0-0.126-0.034-0.158-0.089l-0.26-0.459c-0.014-0.023-0.021-0.05-0.021-0.076
		L6.468,8.982C6.467,8.926,6.494,8.874,6.542,8.84l0.353-0.244c0.063-0.043,0.148-0.043,0.211,0L7.458,8.84
		c0.048,0.033,0.075,0.086,0.074,0.142L7.44,12.274z"/>
	<path fill="#FFFFFF" d="M6.958,7.801c1.397,0,2.534-1.077,2.534-2.401c0-1.324-1.137-2.401-2.534-2.401S4.424,4.076,4.424,5.4
		C4.424,6.724,5.561,7.801,6.958,7.801z"/>
</g>
</svg>
