<?xml version="1.0" encoding="iso-8859-1"?>
<!-- Generator: Adobe Illustrator 16.0.3, SVG Export Plug-In . SVG Version: 6.00 Build 0)  -->
<!DOCTYPE svg PUBLIC "-//W3C//DTD SVG 1.1//EN" "http://www.w3.org/Graphics/SVG/1.1/DTD/svg11.dtd">
<svg version="1.1" id="Layer_1" xmlns="http://www.w3.org/2000/svg" xmlns:xlink="http://www.w3.org/1999/xlink" x="0px" y="0px"
	 width="30px" height="30px" viewBox="0 0 30 30" style="enable-background:new 0 0 30 30;" xml:space="preserve">
<path style="fill:#FFFFFF;" d="M21.125,15.875c1.024,0,0.449,2.625-0.449,2.625c0.449,0,0,2.188-0.898,2.188
	c0,0.875-0.898,1.313-1.796,1.313c-3.794,0-2.459-0.925-6.287-1.313v-7c3.381-0.988,6.736-3.465,6.736-5.688
	c0.744,0,2.694,0.875,0,5.251c0,0,2.245,0,2.694,0C22.472,13.25,22.023,15.875,21.125,15.875z M10.796,13.688v7h0.898v0.438H9.898
	C9.405,21.125,9,20.535,9,19.813v-5.25c0-0.722,0.404-1.313,0.898-1.313h1.796v0.438H10.796z"/>
</svg>
