<?xml version="1.0" encoding="utf-8"?>
<!-- Generator: Adobe Illustrator 16.0.0, SVG Export Plug-In . SVG Version: 6.00 Build 0)  -->
<!DOCTYPE svg PUBLIC "-//W3C//DTD SVG 1.1//EN" "http://www.w3.org/Graphics/SVG/1.1/DTD/svg11.dtd">
<svg version="1.1" id="Layer_1" xmlns="http://www.w3.org/2000/svg" xmlns:xlink="http://www.w3.org/1999/xlink" x="0px" y="0px"
	 width="15px" height="15px" viewBox="0 0 15 15" enable-background="new 0 0 15 15" xml:space="preserve">
<path fill="#FFFFFF" d="M3.199,8.136l2.641,2.64l4.846-4.843l-2.642-2.64L3.199,8.136z M13.756,4.511l-1.124-1.123
	c-0.214,0.117-0.459,0.183-0.72,0.183c-0.831,0-1.505-0.674-1.505-1.504c0-0.261,0.065-0.506,0.183-0.72L9.467,0.224
	c-0.293-0.292-0.771-0.292-1.064,0l-8.186,8.18c-0.292,0.293-0.292,0.771,0,1.063l1.124,1.123c0.214-0.116,0.459-0.183,0.72-0.183
	c0.832,0,1.505,0.673,1.505,1.504c0,0.26-0.066,0.505-0.184,0.72l1.124,1.123c0.292,0.292,0.771,0.292,1.064,0l8.185-8.182
	C14.049,5.282,14.049,4.804,13.756,4.511z M5.84,11.982L1.992,8.136l6.053-6.05l3.848,3.847L5.84,11.982z"/>
</svg>
