<?xml version="1.0" encoding="iso-8859-1"?>
<!-- Generator: Adobe Illustrator 16.0.3, SVG Export Plug-In . SVG Version: 6.00 Build 0)  -->
<!DOCTYPE svg PUBLIC "-//W3C//DTD SVG 1.1//EN" "http://www.w3.org/Graphics/SVG/1.1/DTD/svg11.dtd">
<svg version="1.1" id="Layer_1" xmlns="http://www.w3.org/2000/svg" xmlns:xlink="http://www.w3.org/1999/xlink" x="0px" y="0px"
	 width="14px" height="14px" viewBox="0 0 14 14" style="enable-background:new 0 0 14 14;" xml:space="preserve">
<path style="fill:#FFFFFF;" d="M12.077,11.985c0,0.344-0.29,0.624-0.646,0.624H2.569c-0.356,0-0.646-0.28-0.646-0.624v-7.17H1v7.17
	c0,0.835,0.704,1.516,1.569,1.516h8.862c0.866,0,1.57-0.681,1.57-1.516v-7.17h-0.923V11.985z"/>
<path style="fill:#FFFFFF;" d="M11.431,1.908h-0.405V1.48c0-0.541-0.442-0.981-0.986-0.981S9.054,0.939,9.054,1.48v0.427H8.042V1.48
	C8.042,0.939,7.6,0.5,7.056,0.5S6.07,0.939,6.07,1.48v0.427H5.059V1.48c0-0.541-0.442-0.981-0.986-0.981S3.086,0.939,3.086,1.48
	v0.427H2.569C1.704,1.908,1,2.588,1,3.424v0.713h0.923h10.155H13V3.424C13,2.588,12.296,1.908,11.431,1.908z M4.504,3.227
	c0,0.246-0.194,0.446-0.432,0.446S3.64,3.473,3.64,3.227V1.48c0-0.246,0.194-0.446,0.432-0.446s0.432,0.2,0.432,0.446V3.227z
	 M7.488,3.227c0,0.246-0.194,0.446-0.432,0.446c-0.238,0-0.432-0.2-0.432-0.446V1.48c0-0.246,0.194-0.446,0.432-0.446
	c0.238,0,0.432,0.2,0.432,0.446V3.227z M10.472,3.227c0,0.246-0.194,0.446-0.432,0.446s-0.432-0.2-0.432-0.446V1.48
	c0-0.246,0.193-0.446,0.432-0.446s0.432,0.2,0.432,0.446V3.227z"/>
<path style="fill:#FFFFFF;" d="M11.246,5.529H2.753v6.375h6.389V9.872h2.104V5.529z"/>
<path style="fill:#FFFFFF;" d="M11.246,10.728H9.511v1.676L11.246,10.728z"/>
</svg>
