<?xml version="1.0" encoding="utf-8"?>
<!-- Generator: Adobe Illustrator 16.0.3, SVG Export Plug-In . SVG Version: 6.00 Build 0)  -->
<!DOCTYPE svg PUBLIC "-//W3C//DTD SVG 1.1//EN" "http://www.w3.org/Graphics/SVG/1.1/DTD/svg11.dtd">
<svg version="1.1" id="Layer_1" xmlns="http://www.w3.org/2000/svg" xmlns:xlink="http://www.w3.org/1999/xlink" x="0px" y="0px"
	 width="16px" height="16px" viewBox="0 0 16 16" enable-background="new 0 0 16 16" xml:space="preserve">
<path fill="#03A678" d="M14,2h-2V1c0-0.552-0.447-1-1-1s-1,0.448-1,1v1H6V1c0-0.552-0.448-1-1-1S4,0.448,4,1v1H2
	C0.896,2,0,2.896,0,4v10c0,1.104,0.896,2,2,2h12c1.104,0,2-0.896,2-2V4C16,2.896,15.104,2,14,2z M14,14H2V5.5h12V14z"/>
</svg>
