<?xml version="1.0" encoding="iso-8859-1"?>
<!-- Generator: Adobe Illustrator 16.0.3, SVG Export Plug-In . SVG Version: 6.00 Build 0)  -->
<!DOCTYPE svg PUBLIC "-//W3C//DTD SVG 1.1//EN" "http://www.w3.org/Graphics/SVG/1.1/DTD/svg11.dtd">
<svg version="1.1" id="Layer_1" xmlns="http://www.w3.org/2000/svg" xmlns:xlink="http://www.w3.org/1999/xlink" x="0px" y="0px"
	 width="20px" height="20px" viewBox="0 0 20 20" style="enable-background:new 0 0 20 20;" xml:space="preserve">
<path style="fill:#FFFFFF;" d="M6.421,6.264h0.2c0.304,0,0.551-0.251,0.551-0.561V4.155V3.576c0-0.31-0.247-0.561-0.551-0.561h-0.2
	c-0.305,0-0.551,0.251-0.551,0.561v0.579v1.548C5.87,6.013,6.117,6.264,6.421,6.264z"/>
<path style="fill:#FFFFFF;" d="M13.49,6.25h0.2c0.304,0,0.551-0.251,0.551-0.561V4.008V3.562C14.241,3.252,13.995,3,13.69,3h-0.2
	c-0.305,0-0.551,0.251-0.551,0.561v0.446v1.681C12.939,5.999,13.186,6.25,13.49,6.25z"/>
<path style="fill:#FFFFFF;" d="M16.104,4.155h-1.414v1.681c0,0.561-0.448,0.87-0.999,0.87h-0.2c-0.551,0-1-0.456-1-1.017V4.155
	h-4.87v1.548c0,0.561-0.448,1.017-0.999,1.017h-0.2c-0.551,0-0.999-0.456-0.999-1.017V4.155H3.896C3.402,4.155,3,4.563,3,5.066
	v11.021C3,16.59,3.402,17,3.896,17h12.208C16.598,17,17,16.59,17,16.087V5.066C17,4.563,16.598,4.155,16.104,4.155z M16.104,16.087
	H3.896l0-8.323h12.208L16.104,16.087C16.104,16.087,16.104,16.087,16.104,16.087z"/>
<path style="fill:#FFFFFF;" d="M10.462,10.557h1.609c0.063,0,0.115-0.053,0.115-0.118V9.021c0-0.065-0.052-0.118-0.115-0.118h-1.609
	c-0.063,0-0.115,0.053-0.115,0.118v1.418C10.347,10.504,10.399,10.557,10.462,10.557z"/>
<path style="fill:#FFFFFF;" d="M13.088,10.557h1.608c0.064,0,0.116-0.053,0.116-0.118V9.021c0-0.065-0.052-0.118-0.116-0.118h-1.608
	c-0.064,0-0.116,0.053-0.116,0.118v1.418C12.972,10.504,13.024,10.557,13.088,10.557z"/>
<path style="fill:#FFFFFF;" d="M5.212,12.878H6.82c0.064,0,0.116-0.053,0.116-0.118v-1.418c0-0.065-0.052-0.118-0.116-0.118H5.212
	c-0.064,0-0.116,0.053-0.116,0.118v1.418C5.096,12.825,5.148,12.878,5.212,12.878z"/>
<path style="fill:#FFFFFF;" d="M7.837,12.878h1.608c0.064,0,0.116-0.053,0.116-0.118v-1.418c0-0.065-0.052-0.118-0.116-0.118H7.837
	c-0.064,0-0.116,0.053-0.116,0.118v1.418C7.722,12.825,7.773,12.878,7.837,12.878z"/>
<path style="fill:#FFFFFF;" d="M10.462,12.878h1.609c0.063,0,0.115-0.053,0.115-0.118v-1.418c0-0.065-0.052-0.118-0.115-0.118
	h-1.609c-0.063,0-0.115,0.053-0.115,0.118v1.418C10.347,12.825,10.399,12.878,10.462,12.878z"/>
<path style="fill:#FFFFFF;" d="M13.088,12.878h1.609c0.063,0,0.115-0.053,0.115-0.118v-1.418c0-0.065-0.052-0.118-0.115-0.118
	h-1.609c-0.064,0-0.116,0.053-0.116,0.118v1.418C12.972,12.825,13.024,12.878,13.088,12.878z"/>
<path style="fill:#FFFFFF;" d="M6.82,13.546H5.212c-0.064,0-0.116,0.053-0.116,0.118v1.418c0,0.065,0.052,0.117,0.116,0.117h1.609
	c0.063,0,0.115-0.052,0.115-0.117v-1.418C6.936,13.599,6.884,13.546,6.82,13.546z"/>
<path style="fill:#FFFFFF;" d="M9.446,13.546H7.837c-0.064,0-0.116,0.053-0.116,0.118v1.418c0,0.065,0.052,0.117,0.116,0.117h1.608
	c0.064,0,0.116-0.052,0.116-0.117v-1.418C9.562,13.599,9.51,13.546,9.446,13.546z"/>
<path style="fill:#FFFFFF;" d="M12.071,13.546h-1.609c-0.063,0-0.115,0.053-0.115,0.118v1.418c0,0.065,0.052,0.117,0.115,0.117
	h1.609c0.063,0,0.115-0.052,0.115-0.117v-1.418C12.187,13.599,12.135,13.546,12.071,13.546z"/>
<path style="fill:#FFFFFF;" d="M14.697,13.546h-1.609c-0.064,0-0.116,0.053-0.116,0.118v1.418c0,0.065,0.052,0.117,0.116,0.117
	h1.609c0.063,0,0.115-0.052,0.115-0.117v-1.418C14.812,13.599,14.76,13.546,14.697,13.546z"/>
</svg>
