<?xml version="1.0" encoding="utf-8"?>
<!-- Generator: Adobe Illustrator 16.0.0, SVG Export Plug-In . SVG Version: 6.00 Build 0)  -->
<!DOCTYPE svg PUBLIC "-//W3C//DTD SVG 1.1//EN" "http://www.w3.org/Graphics/SVG/1.1/DTD/svg11.dtd">
<svg version="1.1" id="Layer_1" xmlns="http://www.w3.org/2000/svg" xmlns:xlink="http://www.w3.org/1999/xlink" x="0px" y="0px"
	 width="10px" height="8px" viewBox="0 0 10 8" enable-background="new 0 0 10 8" xml:space="preserve">
<path fill="#FFFFFF" d="M8.92,2.515l-0.401-0.43C8.466,2.028,8.404,2,8.334,2C8.265,2,8.204,2.028,8.15,2.085L5,5.462L1.85,2.086
	C1.796,2.028,1.734,2,1.665,2S1.534,2.028,1.481,2.086L1.08,2.515C1.026,2.573,1,2.638,1,2.713c0,0.074,0.026,0.141,0.08,0.198
	l3.735,4.003C4.869,6.972,4.931,7,5,7s0.131-0.028,0.184-0.086L8.92,2.911C8.974,2.854,9,2.787,9,2.713
	C9,2.638,8.974,2.573,8.92,2.515z"/>
</svg>
