<?xml version="1.0" encoding="utf-8"?>
<!-- Generator: Adobe Illustrator 16.0.0, SVG Export Plug-In . SVG Version: 6.00 Build 0)  -->
<!DOCTYPE svg PUBLIC "-//W3C//DTD SVG 1.1//EN" "http://www.w3.org/Graphics/SVG/1.1/DTD/svg11.dtd">
<svg version="1.1" id="Layer_1" xmlns="http://www.w3.org/2000/svg" xmlns:xlink="http://www.w3.org/1999/xlink" x="0px" y="0px"
	 width="15px" height="15px" viewBox="0 0 15 15" enable-background="new 0 0 15 15" xml:space="preserve">
<path fill="#01a678" d="M2,14h6V1.999H2V14z M5.75,3.5h1.5V5h-1.5V3.5z M5.75,6.5h1.5V8h-1.5V6.5z M5.75,9.5h1.5V11h-1.5V9.5z
	 M2.75,3.5h1.5V5h-1.5V3.5z M2.75,6.5h1.5V8h-1.5V6.5z M2.75,9.5h1.5V11h-1.5V9.5z M8.75,5.75H14V6.5H8.75V5.75z M8.75,14h1.5v-3
	h2.25v3H14V7.25H8.75V14z"/>
</svg>
