<?xml version="1.0" encoding="iso-8859-1"?>
<!-- Generator: Adobe Illustrator 16.0.3, SVG Export Plug-In . SVG Version: 6.00 Build 0)  -->
<!DOCTYPE svg PUBLIC "-//W3C//DTD SVG 1.1//EN" "http://www.w3.org/Graphics/SVG/1.1/DTD/svg11.dtd">
<svg version="1.1" id="Layer_1" xmlns="http://www.w3.org/2000/svg" xmlns:xlink="http://www.w3.org/1999/xlink" x="0px" y="0px"
	 width="20px" height="18.615px" viewBox="0 0 20 18.615" style="enable-background:new 0 0 20 18.615;" xml:space="preserve">
<path style="fill:#FFFFFF;" d="M17.265,11.519c-0.156-0.158-0.346-0.237-0.569-0.237h-0.804V9.657c0-0.293-0.106-0.547-0.318-0.762
	s-0.463-0.321-0.753-0.321h-4.285V6.949h0.803c0.224,0,0.414-0.079,0.569-0.237c0.156-0.158,0.234-0.35,0.234-0.576V3.429
	c0-0.226-0.078-0.417-0.234-0.576c-0.156-0.158-0.346-0.237-0.569-0.237H8.661c-0.224,0-0.413,0.079-0.569,0.237
	c-0.156,0.158-0.234,0.35-0.234,0.576v2.708c0,0.226,0.078,0.417,0.234,0.576C8.248,6.87,8.438,6.949,8.661,6.949h0.803v1.625H5.179
	c-0.29,0-0.541,0.107-0.753,0.321C4.214,9.109,4.108,9.364,4.108,9.657v1.625H3.304c-0.223,0-0.413,0.079-0.569,0.237
	c-0.156,0.158-0.234,0.35-0.234,0.576v2.708c0,0.226,0.078,0.417,0.234,0.576c0.156,0.158,0.346,0.237,0.569,0.237h2.679
	c0.223,0,0.413-0.079,0.569-0.237c0.156-0.158,0.234-0.35,0.234-0.576v-2.708c0-0.226-0.078-0.417-0.234-0.576
	c-0.156-0.158-0.346-0.237-0.569-0.237H5.179V9.657h4.285v1.625H8.661c-0.224,0-0.413,0.079-0.569,0.237
	c-0.156,0.158-0.234,0.35-0.234,0.576v2.708c0,0.226,0.078,0.417,0.234,0.576c0.156,0.158,0.346,0.237,0.569,0.237h2.678
	c0.224,0,0.413-0.079,0.569-0.237c0.156-0.158,0.234-0.35,0.234-0.576v-2.708c0-0.226-0.078-0.417-0.234-0.576
	c-0.156-0.158-0.346-0.237-0.569-0.237h-0.803V9.657h4.285v1.625h-0.804c-0.223,0-0.413,0.079-0.569,0.237
	c-0.156,0.158-0.234,0.35-0.234,0.576v2.708c0,0.226,0.078,0.417,0.234,0.576c0.156,0.158,0.346,0.237,0.569,0.237h2.679
	c0.223,0,0.413-0.079,0.569-0.237c0.156-0.158,0.234-0.35,0.234-0.576v-2.708C17.499,11.868,17.421,11.677,17.265,11.519z"/>
</svg>
