<?xml version="1.0" encoding="iso-8859-1"?>
<!-- Generator: Adobe Illustrator 16.0.3, SVG Export Plug-In . SVG Version: 6.00 Build 0)  -->
<!DOCTYPE svg PUBLIC "-//W3C//DTD SVG 1.1//EN" "http://www.w3.org/Graphics/SVG/1.1/DTD/svg11.dtd">
<svg version="1.1" id="Layer_1" xmlns="http://www.w3.org/2000/svg" xmlns:xlink="http://www.w3.org/1999/xlink" x="0px" y="0px"
	 width="19px" height="19px" viewBox="0 0 19 19" style="enable-background:new 0 0 19 19;" xml:space="preserve">
<path style="fill:#FFFFFF;" d="M10.092,2.611c0-0.337-0.262-0.61-0.584-0.61s-0.584,0.273-0.584,0.61v0.499h1.169V2.611z"/>
<path style="fill:#FFFFFF;" d="M16.5,4.891c0-0.504-0.393-0.915-0.877-0.915H3.376c-0.484,0-0.877,0.41-0.877,0.915v6.744
	c0,0.504,0.393,0.915,0.877,0.915h12.247c0.484,0,0.877-0.41,0.877-0.915V4.891z"/>
<path style="fill:#FFFFFF;" d="M15.271,14.072c0-0.32-0.235-0.582-0.536-0.608c-0.016-0.001-0.032-0.001-0.048-0.001h-1.841H11.52
	h-1.428H8.923H7.48H6.152H4.313c-0.016,0-0.032,0.001-0.048,0.001c-0.299,0.026-0.536,0.288-0.536,0.608
	c0,0.337,0.262,0.61,0.584,0.61h1.211L4.792,16.1c-0.153,0.297-0.046,0.666,0.238,0.826c0.088,0.049,0.183,0.073,0.276,0.073
	c0.208,0,0.409-0.116,0.516-0.32l1.03-1.997h2.072v1.707c0,0.337,0.262,0.61,0.584,0.61s0.584-0.273,0.584-0.61v-1.707h2.057
	l1.03,1.997c0.105,0.204,0.307,0.32,0.516,0.32c0.094,0,0.188-0.023,0.276-0.073c0.285-0.16,0.39-0.529,0.238-0.826l-0.732-1.417
	h1.211C15.01,14.682,15.271,14.408,15.271,14.072z"/>
</svg>
