<svg xmlns="http://www.w3.org/2000/svg" xmlns:xlink="http://www.w3.org/1999/xlink" preserveAspectRatio="xMidYMid" width="22" height="16" viewBox="0 0 22 16">
  <defs>
    <style>

      .cls-2 {
        fill: #4c4c4d;
      }
    </style>
  </defs>
  <path d="M8.641,1.456 C12.470,1.456 15.710,3.455 15.710,5.818 C15.710,8.181 12.470,10.180 8.641,10.180 C8.003,10.180 7.377,10.123 6.763,10.021 C6.763,10.021 6.112,9.907 6.112,9.907 C6.112,9.907 5.572,10.259 5.572,10.259 C5.327,10.418 5.069,10.566 4.811,10.702 C4.811,10.702 5.241,9.748 5.241,9.748 C5.241,9.748 4.050,9.112 4.050,9.112 C2.479,8.271 1.571,7.067 1.571,5.818 C1.571,3.455 4.811,1.456 8.641,1.456 ZM8.641,0.002 C3.866,0.002 0.000,2.603 0.000,5.818 C0.000,7.658 1.276,9.305 3.265,10.373 C2.848,11.316 2.307,11.759 1.829,12.259 C1.694,12.406 1.534,12.543 1.583,12.758 C1.583,12.758 1.583,12.758 1.583,12.758 C1.620,12.952 1.792,13.088 1.976,13.088 C1.988,13.088 2.001,13.088 2.013,13.088 C2.381,13.042 2.737,12.986 3.068,12.906 C4.308,12.611 5.462,12.122 6.481,11.452 C7.168,11.566 7.892,11.634 8.641,11.634 C13.415,11.634 17.281,9.032 17.281,5.818 C17.281,2.603 13.415,0.002 8.641,0.002 ZM18.730,13.281 C20.718,12.213 21.995,10.577 21.995,8.726 C21.995,6.829 20.645,5.148 18.570,4.091 C18.754,4.648 18.853,5.227 18.853,5.818 C18.853,7.851 17.723,9.725 15.674,11.111 C13.771,12.384 11.280,13.088 8.641,13.088 C8.285,13.088 7.917,13.065 7.561,13.042 C9.095,13.974 11.132,14.542 13.354,14.542 C14.103,14.542 14.827,14.474 15.514,14.360 C16.533,15.030 17.687,15.519 18.926,15.814 C19.258,15.894 19.614,15.950 19.982,15.996 C20.178,16.019 20.362,15.871 20.411,15.666 C20.411,15.666 20.411,15.666 20.411,15.666 C20.460,15.451 20.301,15.314 20.166,15.167 C19.687,14.667 19.147,14.224 18.730,13.281 Z" id="path-1" class="cls-2" fill-rule="evenodd"/>
</svg>
