<?xml version="1.0" encoding="utf-8"?>
<!-- Generator: Adobe Illustrator 16.0.0, SVG Export Plug-In . SVG Version: 6.00 Build 0)  -->
<!DOCTYPE svg PUBLIC "-//W3C//DTD SVG 1.1//EN" "http://www.w3.org/Graphics/SVG/1.1/DTD/svg11.dtd">
<svg version="1.1" id="Layer_1" xmlns="http://www.w3.org/2000/svg" xmlns:xlink="http://www.w3.org/1999/xlink" x="0px" y="0px"
	 width="11px" height="16px" viewBox="0 0 11 16" enable-background="new 0 0 11 16" xml:space="preserve">
<path fill="#4C4B4C" d="M9.99,0.989H7.994c0-0.552-0.447-1.001-0.998-1.001H4.003c-0.551,0-0.998,0.449-0.998,1.001H1.01
	c-0.551,0-0.998,0.449-0.998,1.002h10.975C10.987,1.438,10.541,0.989,9.99,0.989z M0.012,15.011c0,0.553,0.447,1.001,0.998,1.001
	H9.99c0.551,0,0.998-0.449,0.998-1.001V2.992H0.012V15.011z M7.994,5.496c0-0.276,0.224-0.501,0.499-0.501
	c0.274,0,0.499,0.225,0.499,0.501v8.012c0,0.276-0.224,0.501-0.499,0.501c-0.275,0-0.499-0.225-0.499-0.501V5.496z M5.001,5.496
	c0-0.276,0.224-0.501,0.499-0.501c0.274,0,0.499,0.225,0.499,0.501v8.012c0,0.276-0.224,0.501-0.499,0.501
	c-0.275,0-0.499-0.225-0.499-0.501V5.496z M2.008,5.496c0-0.276,0.224-0.501,0.499-0.501S3.005,5.22,3.005,5.496v8.012
	c0,0.276-0.223,0.501-0.499,0.501s-0.499-0.225-0.499-0.501V5.496z"/>
</svg>
