<?xml version="1.0" encoding="iso-8859-1"?>
<!-- Generator: Adobe Illustrator 16.0.3, SVG Export Plug-In . SVG Version: 6.00 Build 0)  -->
<!DOCTYPE svg PUBLIC "-//W3C//DTD SVG 1.1//EN" "http://www.w3.org/Graphics/SVG/1.1/DTD/svg11.dtd">
<svg version="1.1" id="Layer_1" xmlns="http://www.w3.org/2000/svg" xmlns:xlink="http://www.w3.org/1999/xlink" x="0px" y="0px"
	 width="15.93px" height="16px" viewBox="0 0 15.93 16" style="enable-background:new 0 0 15.93 16;" xml:space="preserve">
<path style="fill:#a0a0a0;" d="M7.963,0C3.565,0,0,3.582,0,8c0,4.417,3.563,8,7.963,8s7.967-3.582,7.967-8S12.365,0,7.963,0z"/>
<path style="fill:#FFFFFF;" d="M11.388,10.166l-1.268,1.271c0,0-2.01-2.162-2.157-2.162s-2.155,2.162-2.155,2.162l-1.269-1.271
	c0,0,2.153-1.985,2.153-2.163c0-0.18-2.153-2.167-2.153-2.167l1.269-1.275c0,0,2.024,2.163,2.155,2.163
	c0.132,0,2.157-2.163,2.157-2.163l1.268,1.275c0,0-2.156,2.016-2.156,2.167C9.232,8.146,11.388,10.166,11.388,10.166z"/>
</svg>
