<?xml version="1.0" encoding="utf-8"?>
<!-- Generator: Adobe Illustrator 16.0.0, SVG Export Plug-In . SVG Version: 6.00 Build 0)  -->
<!DOCTYPE svg PUBLIC "-//W3C//DTD SVG 1.1//EN" "http://www.w3.org/Graphics/SVG/1.1/DTD/svg11.dtd">
<svg version="1.1" id="Layer_1" xmlns="http://www.w3.org/2000/svg" xmlns:xlink="http://www.w3.org/1999/xlink" x="0px" y="0px"
	 width="40px" height="40px" viewBox="0 0 40 40" enable-background="new 0 0 40 40" xml:space="preserve">
<path fill="#F5F5F5" stroke="#E7E7E7" stroke-miterlimit="10" d="M39,20c0,10.493-8.507,19-19,19S1,30.493,1,20
	C1,9.506,9.507,1,20,1S39,9.506,39,20z"/>
<path fill="#B6B6B6" d="M17.618,25.391l-0.515-0.552C17.034,24.766,17,24.682,17,24.585c0-0.095,0.034-0.181,0.104-0.253L21.154,20
	l-4.05-4.332C17.034,15.595,17,15.51,17,15.415c0-0.096,0.034-0.181,0.104-0.254l0.515-0.551c0.069-0.073,0.148-0.11,0.236-0.11
	c0.09,0,0.169,0.037,0.237,0.11l4.805,5.136C22.966,19.82,23,19.904,23,20s-0.034,0.18-0.104,0.254l-4.805,5.137
	c-0.068,0.072-0.147,0.109-0.237,0.109C17.767,25.5,17.688,25.463,17.618,25.391z"/>
</svg>
