<?xml version="1.0" encoding="utf-8"?>
<!-- Generator: Adobe Illustrator 16.0.0, SVG Export Plug-In . SVG Version: 6.00 Build 0)  -->
<!DOCTYPE svg PUBLIC "-//W3C//DTD SVG 1.1//EN" "http://www.w3.org/Graphics/SVG/1.1/DTD/svg11.dtd">
<svg version="1.1" id="Layer_1" xmlns="http://www.w3.org/2000/svg" xmlns:xlink="http://www.w3.org/1999/xlink" x="0px" y="0px"
	 width="40px" height="40px" viewBox="0 0 40 40" enable-background="new 0 0 40 40" xml:space="preserve">
<path fill="#F5F5F5" stroke="#E7E7E7" stroke-miterlimit="10" d="M39,20c0,10.493-8.507,19-19,19S1,30.493,1,20
	C1,9.506,9.507,1,20,1S39,9.506,39,20z"/>
<path fill="#B6B6B6" d="M22.145,25.5c-0.09,0-0.168-0.037-0.236-0.109l-4.805-5.137C17.034,20.18,17,20.096,17,20
	s0.034-0.18,0.104-0.254l4.805-5.136c0.068-0.073,0.146-0.11,0.236-0.11c0.088,0,0.168,0.037,0.236,0.11l0.516,0.551
	C22.966,15.234,23,15.319,23,15.415c0,0.095-0.034,0.18-0.104,0.253L18.846,20l4.051,4.332C22.966,24.404,23,24.49,23,24.585
	c0,0.097-0.034,0.181-0.104,0.254l-0.515,0.552C22.313,25.463,22.232,25.5,22.145,25.5z"/>
</svg>
