<?xml version="1.0" encoding="utf-8"?>
<!-- Generator: Adobe Illustrator 16.0.0, SVG Export Plug-In . SVG Version: 6.00 Build 0)  -->
<!DOCTYPE svg PUBLIC "-//W3C//DTD SVG 1.1//EN" "http://www.w3.org/Graphics/SVG/1.1/DTD/svg11.dtd">
<svg version="1.1" id="Layer_1" xmlns="http://www.w3.org/2000/svg" xmlns:xlink="http://www.w3.org/1999/xlink" x="0px" y="0px"
	 width="19px" height="17px" viewBox="0 0 19 17" enable-background="new 0 0 19 17" xml:space="preserve">
<g id="XMLID_1_">
	<g id="XMLID_2_">
		<path id="XMLID_22_" fill="#9C9C9C" d="M10.459,11.847c-0.08-0.023-0.159-0.045-0.24-0.092c0-3.889,0-7.753,0-11.689
			c-0.437,0-0.777,0-1.234,0c0,3.981,0,7.893,0,12.109C7.811,10.7,6.813,9.459,5.857,8.241C5.419,8.662,5.119,8.943,4.921,9.152
			c1.633,1.922,3.187,3.773,4.701,5.554c1.514-1.78,3.069-3.632,4.7-5.554c-0.198-0.209-0.478-0.536-0.834-0.936
			C12.453,9.459,11.456,10.655,10.459,11.847z"/>
		<path id="XMLID_3_" fill="#9C9C9C" d="M13.488,8.195c0.356,0.398,0.636,0.725,0.834,0.936c-1.631,1.922-3.187,3.771-4.7,5.55
			C8.108,12.926,6.535,11.074,4.9,9.154c0.219-0.211,0.519-0.491,0.938-0.914c0.976,1.218,1.951,2.459,3.126,3.936
			c0-4.218,0-8.128,0-12.11c0.459,0,0.797,0,1.235,0c0,3.935,0,8.29,0,12.178"/>
		<rect id="XMLID_4_" x="3.846" y="15.947" fill="#9C9C9C" width="11.354" height="1.053"/>
	</g>
</g>
</svg>
