<?xml version="1.0" encoding="utf-8"?>
<!-- Generator: Adobe Illustrator 16.0.0, SVG Export Plug-In . SVG Version: 6.00 Build 0)  -->
<!DOCTYPE svg PUBLIC "-//W3C//DTD SVG 1.1//EN" "http://www.w3.org/Graphics/SVG/1.1/DTD/svg11.dtd">
<svg version="1.1" id="Layer_1" xmlns="http://www.w3.org/2000/svg" xmlns:xlink="http://www.w3.org/1999/xlink" x="0px" y="0px"
	 width="30px" height="30px" viewBox="0 0 30 30" enable-background="new 0 0 30 30" xml:space="preserve">
<path fill="#03A678" d="M15.5,6C10.261,6,6,10.262,6,15.5c0,5.238,4.261,9.5,9.5,9.5c5.238,0,9.5-4.262,9.5-9.5
	C25,10.262,20.738,6,15.5,6z"/>
<path fill="#03A678" d="M15.5,23.754c-4.551,0-8.254-3.703-8.254-8.254s3.703-8.254,8.254-8.254s8.254,3.703,8.254,8.254
	S20.051,23.754,15.5,23.754z"/>
<path fill="#FFFFFF" d="M19.275,14.877h-3.152v-3.152c0-0.344-0.279-0.623-0.623-0.623s-0.623,0.279-0.623,0.623v3.153h-3.152
	c-0.344,0-0.623,0.279-0.623,0.623c0,0.345,0.279,0.623,0.623,0.623h3.152v3.151c0,0.345,0.279,0.623,0.623,0.623
	s0.623-0.278,0.623-0.623v-3.151h3.152c0.345,0,0.623-0.278,0.623-0.623C19.898,15.157,19.619,14.877,19.275,14.877z"/>
</svg>
