<?xml version="1.0" encoding="iso-8859-1"?>
<!-- Generator: Adobe Illustrator 16.0.0, SVG Export Plug-In . SVG Version: 6.00 Build 0)  -->
<!DOCTYPE svg PUBLIC "-//W3C//DTD SVG 1.1//EN" "http://www.w3.org/Graphics/SVG/1.1/DTD/svg11.dtd">
<svg version="1.1" id="Layer_1" xmlns="http://www.w3.org/2000/svg" xmlns:xlink="http://www.w3.org/1999/xlink" x="0px" y="0px"
	 width="29px" height="29px" viewBox="0 0 29 29" style="enable-background:new 0 0 29 29;" xml:space="preserve">
<path style="fill:#FFFFFF;" d="M20.843,13.593H11.25l3.735-3.735c0.354-0.354,0.354-0.927,0-1.281s-0.928-0.354-1.281,0
	l-5.127,5.126C8.36,13.92,8.292,14.219,8.342,14.5c-0.05,0.281,0.018,0.579,0.235,0.797l5.126,5.126
	c0.354,0.354,0.928,0.354,1.281,0c0.355-0.354,0.355-0.928,0-1.281l-3.735-3.736h9.593c0.501,0,0.906-0.406,0.906-0.906
	S21.344,13.593,20.843,13.593z M14.5,0C6.491,0,0,6.491,0,14.5C0,22.507,6.491,29,14.5,29S29,22.507,29,14.5
	C29,6.491,22.508,0,14.5,0z M14.5,27.187c-7.007,0-12.688-5.681-12.688-12.688S7.492,1.812,14.5,1.812
	c7.007,0,12.688,5.681,12.688,12.688S21.506,27.187,14.5,27.187z"/>
</svg>
