<?xml version="1.0" encoding="utf-8"?>
<!-- Generator: Adobe Illustrator 16.0.0, SVG Export Plug-In . SVG Version: 6.00 Build 0)  -->
<!DOCTYPE svg PUBLIC "-//W3C//DTD SVG 1.1//EN" "http://www.w3.org/Graphics/SVG/1.1/DTD/svg11.dtd">
<svg version="1.1" id="Layer_1" xmlns="http://www.w3.org/2000/svg" xmlns:xlink="http://www.w3.org/1999/xlink" x="0px" y="0px"
	 width="15px" height="15px" viewBox="0 0 15 15" enable-background="new 0 0 15 15" xml:space="preserve">
<path fill="#FFFFFF" d="M7.019,7.842C6.585,7.398,5.478,6.42,4.476,6.791L1.432,9.814c0.016-0.002,0.032-0.006,0.047-0.008
	c0.698-0.092,1.708,0.018,2.679,1.01c0.784,0.801,1.121,1.537,0.948,2.069c-0.097,0.296-0.342,0.497-0.675,0.552
	c-0.059,0.008-0.123,0.014-0.19,0.014c-0.561,0-1.391-0.352-2.147-1.378l0.468-0.351c0.616,0.834,1.361,1.205,1.775,1.133
	c0.175-0.028,0.204-0.123,0.215-0.153c0.073-0.224-0.095-0.746-0.81-1.474c-1.153-1.178-2.319-0.873-2.725-0.711
	c-0.11,0.674,0.27,1.613,1.033,2.394c0.986,1.008,2.25,1.375,2.874,0.853c0.004,0,0.006,0,0.006,0l3.39-3.367
	c0.052-0.138,0.104-0.444-0.146-0.949C7.903,8.898,7.481,8.314,7.019,7.842z"/>
<path fill="#FFFFFF" d="M12.95,2.086c-1.019-1.039-2.331-1.396-2.933-0.799C10,1.304,7.571,3.713,7.571,3.713
	C8.314,4.015,9.109,4.567,9.759,5.23c0.751,0.767,1.222,1.572,1.396,2.35c0,0,2.531-2.513,2.547-2.528
	C14.303,4.453,13.967,3.125,12.95,2.086z"/>
<path fill="#FFFFFF" d="M11.141,8.947c-0.312-0.073-0.543-0.1-0.578-0.102c0.07-0.248,0.095-0.5,0.076-0.753
	c-0.061-0.861-0.596-1.734-1.293-2.448C8.729,5.016,7.985,4.51,7.322,4.249C7.246,4.218,7.173,4.199,7.1,4.186L5.143,6.129
	c0.81,0.078,1.621,0.615,2.292,1.3c0.532,0.545,0.978,1.182,1.262,1.754c0.115,0.23,0.183,0.438,0.217,0.621
	c0.136,0.698-0.191,1.055-0.191,1.055l1.086-1.078C9.855,9.771,9.902,9.76,9.95,9.742c0.05,0.234,0.061,0.461,0.042,0.682
	C9.886,11.63,8.91,12.557,8.91,12.557l1.154,0.502c1.447-1.172,0.981-2.59,0.6-3.303c-0.089-0.166-0.173-0.292-0.229-0.371
	c-0.002-0.004-0.006-0.009-0.008-0.015c0.004,0.003,0.006,0.007,0.008,0.01c0.14,0.062,0.268,0.136,0.385,0.218
	c1.158,0.813,1.234,2.5,1.234,2.5l1.129-0.555C13.246,9.716,11.934,9.132,11.141,8.947z"/>
</svg>
