<?xml version="1.0" encoding="utf-8"?>
<!-- Generator: Adobe Illustrator 16.0.0, SVG Export Plug-In . SVG Version: 6.00 Build 0)  -->
<!DOCTYPE svg PUBLIC "-//W3C//DTD SVG 1.1//EN" "http://www.w3.org/Graphics/SVG/1.1/DTD/svg11.dtd">
<svg version="1.1" id="Layer_1" xmlns="http://www.w3.org/2000/svg" xmlns:xlink="http://www.w3.org/1999/xlink" x="0px" y="0px"
	 width="14px" height="14px" viewBox="0 0 14 14" enable-background="new 0 0 14 14" xml:space="preserve">
<path fill="#00A678" d="M0,14h7V-0.001H0V14z M4.375,1.75h1.75V3.5h-1.75V1.75z M4.375,5.25h1.75V7h-1.75V5.25z M4.375,8.75h1.75
	v1.75h-1.75V8.75z M0.875,1.75h1.75V3.5h-1.75V1.75z M0.875,5.25h1.75V7h-1.75V5.25z M0.875,8.75h1.75v1.75h-1.75V8.75z
	 M7.875,4.375H14V5.25H7.875V4.375z M7.875,14h1.75v-3.5h2.625V14H14V6.125H7.875V14z"/>
</svg>
