<?xml version="1.0" encoding="iso-8859-1"?>
<!-- Generator: Adobe Illustrator 16.0.0, SVG Export Plug-In . SVG Version: 6.00 Build 0)  -->
<!DOCTYPE svg PUBLIC "-//W3C//DTD SVG 1.1//EN" "http://www.w3.org/Graphics/SVG/1.1/DTD/svg11.dtd">
<svg version="1.1" id="Layer_1" xmlns="http://www.w3.org/2000/svg" xmlns:xlink="http://www.w3.org/1999/xlink" x="0px" y="0px"
	 width="17px" height="17px" viewBox="0 0 17 17" style="enable-background:new 0 0 17 17;" xml:space="preserve">
<path style="fill:#8F8F8F;" d="M8.386-0.001c-4.695,0.063-8.45,3.92-8.387,8.615c0.063,4.693,3.92,8.449,8.615,8.387
	c4.694-0.063,8.45-3.92,8.387-8.615C16.938,3.692,13.081-0.064,8.386-0.001z M8.361,13.675l-0.047-0.001
	c-0.723-0.021-1.233-0.554-1.212-1.266c0.02-0.701,0.542-1.209,1.241-1.209L8.385,11.2c0.743,0.022,1.248,0.549,1.227,1.282
	C9.591,13.185,9.077,13.675,8.361,13.675z M11.403,7.639c-0.17,0.242-0.544,0.542-1.015,0.909L9.869,8.906
	c-0.285,0.221-0.457,0.43-0.521,0.635c-0.051,0.161-0.076,0.204-0.081,0.532l0,0.083H7.286l0.006-0.167
	c0.024-0.689,0.041-1.094,0.327-1.429C8.066,8.033,9.054,7.397,9.096,7.37c0.142-0.106,0.261-0.228,0.35-0.357
	c0.208-0.287,0.3-0.513,0.3-0.734c0-0.308-0.091-0.592-0.272-0.846c-0.173-0.245-0.503-0.368-0.98-0.368
	c-0.473,0-0.797,0.15-0.99,0.458c-0.199,0.317-0.3,0.649-0.3,0.989v0.084H5.161l0.004-0.088c0.053-1.251,0.499-2.152,1.327-2.678
	c0.52-0.334,1.167-0.504,1.921-0.504c0.988,0,1.822,0.24,2.479,0.713c0.666,0.48,1.003,1.198,1.003,2.136
	C11.895,6.699,11.729,7.191,11.403,7.639z"/>
</svg>
