<?xml version="1.0" encoding="iso-8859-1"?>
<!-- Generator: Adobe Illustrator 16.0.0, SVG Export Plug-In . SVG Version: 6.00 Build 0)  -->
<!DOCTYPE svg PUBLIC "-//W3C//DTD SVG 1.1//EN" "http://www.w3.org/Graphics/SVG/1.1/DTD/svg11.dtd">
<svg version="1.1" id="Layer_1" xmlns="http://www.w3.org/2000/svg" xmlns:xlink="http://www.w3.org/1999/xlink" x="0px" y="0px"
	 width="18px" height="18px" viewBox="0 0 18 18" style="enable-background:new 0 0 18 18;" xml:space="preserve">
<g id="help">
	<path style="fill:#696969;" d="M9,0C4.05,0,0,4.05,0,9c0,4.949,4.05,9,9,9c4.949,0,9-4.051,9-9C18,4.05,13.949,0,9,0z M9.899,15.3
		H8.1v-1.799h1.799V15.3z M11.79,8.37L10.98,9.18c-0.72,0.629-1.081,1.17-1.081,2.52H8.1v-0.451c0-0.988,0.36-1.889,1.08-2.519
		l1.081-1.17c0.359-0.27,0.54-0.72,0.54-1.26c0-0.99-0.811-1.8-1.801-1.8S7.2,5.31,7.2,6.3H5.4c0-1.98,1.62-3.6,3.6-3.6
		c1.98,0,3.6,1.62,3.6,3.6C12.6,7.11,12.241,7.83,11.79,8.37z"/>
</g>
</svg>
