<?xml version="1.0" encoding="utf-8"?>
<!-- Generator: Adobe Illustrator 16.0.0, SVG Export Plug-In . SVG Version: 6.00 Build 0)  -->
<!DOCTYPE svg PUBLIC "-//W3C//DTD SVG 1.1//EN" "http://www.w3.org/Graphics/SVG/1.1/DTD/svg11.dtd">
<svg version="1.1" id="Layer_1" xmlns="http://www.w3.org/2000/svg" xmlns:xlink="http://www.w3.org/1999/xlink" x="0px" y="0px"
	 width="30px" height="30px" viewBox="0 0 30 30" enable-background="new 0 0 30 30" xml:space="preserve">
<g>
	<circle fill="#03A678" cx="15" cy="15" r="14"/>
	<g enable-background="new    ">
		<path fill="#FFFFFF" d="M15.321,17.025h-0.334l-0.527-3.911c-0.205-1.576-0.308-2.877-0.308-3.902
			c0-0.322,0.091-0.609,0.272-0.861c0.182-0.24,0.428-0.36,0.738-0.36c0.662,0,0.993,0.437,0.993,1.31
			c0,1.025-0.103,2.314-0.308,3.867L15.321,17.025z M15.146,18.476c0.252,0,0.478,0.097,0.677,0.29
			c0.199,0.199,0.299,0.422,0.299,0.668c0,0.27-0.097,0.504-0.29,0.703c-0.193,0.193-0.422,0.29-0.686,0.29
			c-0.258,0-0.486-0.1-0.686-0.299c-0.193-0.205-0.29-0.437-0.29-0.694c0-0.246,0.1-0.469,0.299-0.668
			C14.668,18.572,14.894,18.476,15.146,18.476z"/>
	</g>
</g>
</svg>
