<?xml version="1.0" encoding="iso-8859-1"?>
<!-- Generator: Adobe Illustrator 16.0.3, SVG Export Plug-In . SVG Version: 6.00 Build 0)  -->
<!DOCTYPE svg PUBLIC "-//W3C//DTD SVG 1.1//EN" "http://www.w3.org/Graphics/SVG/1.1/DTD/svg11.dtd">
<svg version="1.1" id="Layer_1" xmlns="http://www.w3.org/2000/svg" xmlns:xlink="http://www.w3.org/1999/xlink" x="0px" y="0px"
	 width="20px" height="20px" viewBox="0 0 20 20" style="enable-background:new 0 0 20 20;" xml:space="preserve">
<path style="fill:#00A678;" d="M4.126,4.657V2.532c0-0.293,0.237-0.531,0.531-0.531c0.293,0,0.531,0.238,0.531,0.531v2.125
	c0,0.293-0.238,0.531-0.531,0.531C4.363,5.188,4.126,4.951,4.126,4.657z M13.156,5.188c0.294,0,0.531-0.238,0.531-0.531V2.532
	c0-0.293-0.237-0.531-0.531-0.531c-0.293,0-0.531,0.238-0.531,0.531v2.125C12.625,4.951,12.862,5.188,13.156,5.188z M18.999,14.75
	c0,2.347-1.903,4.25-4.25,4.25s-4.25-1.903-4.25-4.25s1.903-4.25,4.25-4.25S18.999,12.403,18.999,14.75z M17.937,14.75
	c0-1.757-1.43-3.187-3.187-3.187s-3.187,1.43-3.187,3.187s1.43,3.187,3.187,3.187S17.937,16.507,17.937,14.75z M6.25,8.375H4.126
	V10.5H6.25V8.375z M4.126,13.687H6.25v-2.125H4.126V13.687z M7.313,10.5h2.125V8.375H7.313V10.5z M7.313,13.687h2.125v-2.125H7.313
	V13.687z M3.063,14.644V7.313H14.75v2.125h1.062V5.294c0-0.645-0.514-1.168-1.15-1.168h-0.443v0.531
	c0,0.585-0.476,1.062-1.063,1.062c-0.586,0-1.063-0.477-1.063-1.062V4.126H5.719v0.531c0,0.585-0.476,1.062-1.062,1.062
	c-0.586,0-1.063-0.477-1.063-1.062V4.126H3.152c-0.636,0-1.151,0.523-1.151,1.168v9.35c0,0.643,0.515,1.168,1.151,1.168h6.285V14.75
	H3.152C3.104,14.75,3.063,14.7,3.063,14.644z M12.625,10.5V8.375H10.5V10.5H12.625z M16.343,14.75H14.75v-1.594
	c0-0.293-0.238-0.531-0.531-0.531s-0.531,0.238-0.531,0.531v2.125c0,0.293,0.238,0.531,0.531,0.531h2.125
	c0.294,0,0.531-0.237,0.531-0.531C16.874,14.987,16.637,14.75,16.343,14.75z"/>
</svg>
