<?xml version="1.0" encoding="utf-8"?>
<!-- Generator: Adobe Illustrator 16.0.3, SVG Export Plug-In . SVG Version: 6.00 Build 0)  -->
<!DOCTYPE svg PUBLIC "-//W3C//DTD SVG 1.1//EN" "http://www.w3.org/Graphics/SVG/1.1/DTD/svg11.dtd">
<svg version="1.1" id="Layer_1" xmlns="http://www.w3.org/2000/svg" xmlns:xlink="http://www.w3.org/1999/xlink" x="0px" y="0px"
	 width="163.033px" height="30.524px" viewBox="0 0 163.033 30.524" enable-background="new 0 0 163.033 30.524"
	 xml:space="preserve">
<g>
	<g>
		<path fill="#111820" d="M39.354,21.492c0-0.83,0.676-1.186,1.577-1.186c0.771,0,1.245,0.142,1.743,0.32l0.272-0.723
			c-0.498-0.213-1.079-0.403-2.04-0.403c-1.34,0-2.479,0.664-2.479,2.028c0,2.739,4.103,2.252,4.103,4.352
			c0,1.079-1.079,1.399-2.016,1.399c-0.795,0-1.364-0.167-1.98-0.439l-0.332,0.783c0.474,0.249,1.115,0.51,2.336,0.51
			c1.625,0,2.953-0.723,2.953-2.324C43.492,23.128,39.354,23.366,39.354,21.492z"/>
		<path fill="#111820" d="M49.588,26.698v-3.593c0-1.281-0.866-1.743-2.3-1.743c-0.961,0-1.791,0.261-2.076,0.38l0.202,0.735
			c0.273-0.083,1.008-0.296,1.601-0.296c1.15,0,1.66,0.202,1.66,1.233v0.866l-1.542,0.023c-1.056,0.023-2.479,0.368-2.479,1.945
			c0,1.197,0.676,1.838,1.838,1.838c1.281,0,1.945-0.641,2.253-0.842c0.071,0.582,0.688,0.818,1.221,0.818h0.166l0.059-0.735
			C49.908,27.291,49.588,27.184,49.588,26.698z M48.675,26.615c-0.166,0.094-1.126,0.711-1.945,0.711
			c-0.711,0-1.174-0.297-1.174-1.162c0-0.652,0.557-1.138,1.565-1.174l1.553-0.059V26.615z"/>
		<path fill="#111820" d="M56.051,26.473c-0.296,0.178-1.257,0.807-2.075,0.807c-1.174,0-1.245-0.807-1.245-1.826v-3.937h-0.937
			v4.126c0,1.115,0.13,2.49,1.945,2.49c1.043,0,1.802-0.581,2.312-0.901v0.759h0.901v-6.475h-0.901V26.473z"/>
		<path fill="#111820" d="M63.06,21.516c-0.462-0.13-0.688-0.166-1.292-0.166c-1.672,0-3.071,1.162-3.071,3.427
			c0,2.87,1.553,3.332,2.716,3.332c0.699,0,1.28-0.391,1.648-0.735v0.617h0.925v-8.941H63.06V21.516z M63.06,26.591
			c-0.273,0.202-0.937,0.723-1.577,0.723c-1.079,0-1.838-0.759-1.838-2.502c0-1.364,0.581-2.692,2.123-2.692
			c0.64,0,0.984,0.107,1.292,0.202V26.591z"/>
		<rect x="66.203" y="21.516" fill="#111820" width="0.948" height="6.475"/>
		<polygon fill="#111820" points="65.894,19.5 66.665,20.294 67.459,19.5 66.665,18.718 		"/>
		<path fill="#111820" d="M72.547,21.492c0-0.83,0.676-1.186,1.577-1.186c0.771,0,1.245,0.142,1.743,0.32l0.272-0.723
			C75.642,19.69,75.061,19.5,74.1,19.5c-1.34,0-2.478,0.664-2.478,2.028c0,2.739,4.103,2.252,4.103,4.352
			c0,1.079-1.079,1.399-2.016,1.399c-0.794,0-1.364-0.167-1.98-0.439l-0.333,0.783c0.475,0.249,1.115,0.51,2.336,0.51
			c1.625,0,2.952-0.723,2.952-2.324C76.685,23.128,72.547,23.366,72.547,21.492z"/>
		<path fill="#111820" d="M82.022,26.176l-1.329-1.636l2.751-3.024h-1.079l-2.728,3.06l1.827,2.312
			c0.83,1.043,1.506,1.174,1.944,1.198l0.19-0.7C83.208,27.279,82.615,26.899,82.022,26.176z"/>
		<rect x="78.441" y="19.049" fill="#111820" width="0.937" height="8.941"/>
		<polygon fill="#111820" points="84.667,19.5 85.438,20.294 86.232,19.5 85.438,18.718 		"/>
		<rect x="84.975" y="21.516" fill="#111820" width="0.949" height="6.475"/>
		<rect x="88.142" y="19.049" fill="#111820" width="0.937" height="8.941"/>
		<rect x="91.308" y="19.049" fill="#111820" width="0.937" height="8.941"/>
		<path fill="#111820" d="M95.079,23.069c0-0.51,0.391-0.937,1.209-0.937c0.711,0,1.198,0.154,1.494,0.237l0.166-0.747
			c-0.237-0.071-0.866-0.273-1.565-0.273c-1.269,0-2.218,0.617-2.218,1.778c0,2.218,3.261,1.72,3.261,3.214
			c0,0.617-0.617,1.008-1.625,1.008c-0.581,0-1.233-0.178-1.648-0.272l-0.166,0.771c0.379,0.119,1.031,0.273,1.897,0.273
			c1.067,0,2.431-0.379,2.431-1.862C98.316,24.149,95.079,24.563,95.079,23.069z"/>
		<path fill="#111820" d="M103.961,21.789c0-0.356,0.261-0.676,1.103-0.676c0.854,0,1.364,0.166,1.98,0.344l0.582-1.399
			c-0.652-0.285-1.292-0.569-2.621-0.569c-1.482,0-3.012,0.7-3.012,2.313c0,2.846,3.984,2.479,3.984,3.842
			c0,0.51-0.462,0.818-1.47,0.818c-0.925,0-1.471-0.119-2.218-0.379l-0.569,1.447c0.628,0.344,1.435,0.593,2.81,0.593
			c1.731,0,3.486-0.711,3.486-2.55C108.017,22.903,103.961,22.903,103.961,21.789z"/>
		<path fill="#111820" d="M112.191,26.473c-0.534,0-0.712-0.036-0.712-0.51v-2.988h2.004v-1.458h-2.004v-1.328h-1.968v1.328h-0.949
			v1.458h0.949v3c0,2.205,1.458,2.146,2.704,2.146c0.475,0,1.103-0.095,1.565-0.226l-0.19-1.553
			C113.59,26.342,112.63,26.473,112.191,26.473z"/>
		<path fill="#111820" d="M120.279,26.271V23.39c0-1.458-0.807-2.028-2.811-2.028c-1.032,0-1.886,0.237-2.621,0.522l0.391,1.435
			c0.605-0.142,1.292-0.284,1.933-0.284c0.806,0,1.174,0.166,1.174,0.735v0.403h-1.126c-1.281,0-2.775,0.332-2.775,1.968
			c0,1.293,0.807,1.957,2.229,1.957c0.712,0,1.388-0.367,1.862-0.735c0.178,0.558,1.008,0.688,1.791,0.688
			c0.154,0,0.309,0,0.462-0.012l0.071-1.494C120.492,26.532,120.279,26.484,120.279,26.271z M118.346,26.342
			c-0.427,0.119-0.877,0.225-1.257,0.225c-0.355,0-0.724-0.166-0.724-0.545c0-0.474,0.427-0.664,1.008-0.676l0.973-0.023V26.342z"/>
		<path fill="#111820" d="M126.327,21.35c-0.866,0-1.72,0.522-2.111,0.818v-0.652h-1.98v6.475h1.98v-4.589
			c0.321-0.154,0.854-0.344,1.447-0.344c0.665,0,0.866,0.154,0.866,1.043v3.89h1.968v-4.056
			C128.497,22.464,128.354,21.35,126.327,21.35z"/>
		<path fill="#111820" d="M134.13,21.421c-0.202-0.024-0.498-0.071-0.854-0.071c-1.968,0-3.521,1.079-3.521,3.296
			c0,2.811,1.601,3.439,2.905,3.439c0.818,0,1.186-0.332,1.47-0.557v0.462h1.98v-8.941h-1.98V21.421z M134.13,26.235
			c-0.296,0.119-0.723,0.213-1.079,0.213c-0.7,0-1.328-0.355-1.328-1.767c0-1.126,0.462-1.767,1.588-1.767
			c0.356,0,0.617,0.048,0.818,0.083V26.235z"/>
		<path fill="#111820" d="M143.202,26.271V23.39c0-1.458-0.807-2.028-2.811-2.028c-1.032,0-1.886,0.237-2.621,0.522l0.392,1.435
			c0.604-0.142,1.292-0.284,1.933-0.284c0.806,0,1.174,0.166,1.174,0.735v0.403h-1.126c-1.28,0-2.775,0.332-2.775,1.968
			c0,1.293,0.807,1.957,2.229,1.957c0.711,0,1.387-0.367,1.862-0.735c0.178,0.558,1.008,0.688,1.791,0.688
			c0.154,0,0.308,0,0.462-0.012l0.071-1.494C143.416,26.532,143.202,26.484,143.202,26.271z M141.269,26.342
			c-0.427,0.119-0.877,0.225-1.257,0.225c-0.356,0-0.723-0.166-0.723-0.545c0-0.474,0.427-0.664,1.008-0.676l0.972-0.023V26.342z"/>
		<path fill="#111820" d="M147.14,22.382v-0.866h-1.98v6.475h1.98v-4.388c0.261-0.285,0.854-0.557,1.435-0.557
			c0.356,0,0.486,0,0.866,0.071l0.261-1.625c-0.272-0.083-0.534-0.106-0.889-0.106C148.064,21.386,147.459,21.967,147.14,22.382z"/>
		<path fill="#111820" d="M154.409,21.421c-0.202-0.024-0.499-0.071-0.854-0.071c-1.968,0-3.522,1.079-3.522,3.296
			c0,2.811,1.601,3.439,2.905,3.439c0.818,0,1.186-0.332,1.471-0.557v0.462h1.98v-8.941h-1.98V21.421z M154.409,26.235
			c-0.296,0.119-0.724,0.213-1.079,0.213c-0.7,0-1.328-0.355-1.328-1.767c0-1.126,0.462-1.767,1.589-1.767
			c0.355,0,0.617,0.048,0.818,0.083V26.235z"/>
		<path fill="#111820" d="M159.615,23.307c0-0.142,0.13-0.392,0.807-0.392c0.664,0,1.162,0.095,1.791,0.237l0.332-1.435
			c-0.676-0.237-1.388-0.368-2.182-0.368c-1.411,0-2.728,0.652-2.728,2.052c0,2.324,3.261,1.992,3.261,2.691
			c0,0.19-0.119,0.451-1.115,0.451c-0.439,0-1.115-0.06-1.957-0.178l-0.213,1.495c0.664,0.189,1.423,0.272,2.36,0.272
			c1.091,0,2.881-0.415,2.881-2.123C162.853,23.84,159.615,24.042,159.615,23.307z"/>
		<path fill="#111820" d="M41.523,12.472h1.879c1.277,0,1.998-0.685,1.998-2.104V7.666h-0.697v2.428
			c0,0.884-0.201,1.594-1.301,1.594H41.44c-1.903,0-2.399-1.046-2.399-2.665V8.089h-0.697v1.27
			C38.344,11.202,39.136,12.472,41.523,12.472z"/>
		<rect x="46.879" y="3.433" fill="#111820" width="0.686" height="9.04"/>
		<path fill="#111820" d="M47.505,15.025c1.608-0.087,2.151-1.034,2.151-2.578V7.653h-0.697v4.732c0,1.22-0.39,1.793-1.454,1.88
			V15.025z"/>
		<path fill="#111820" d="M71.633,12.472L71.633,12.472c1.276,0,1.619-0.921,1.619-2.254V3.433h-0.697v6.798
			c0,0.896-0.106,1.457-0.922,1.457l0,0l0,0c-0.639-0.013-0.887-0.499-0.887-1.345v-6.91h-0.686v6.786
			c0,0.909-0.225,1.47-0.946,1.47h-0.958h0l0,0c-0.65-0.013-0.91-0.461-0.91-1.22c0-0.274,0.036-0.585,0.036-0.884
			c0-1.855-0.709-3.026-2.293-3.026c-1.537,0-2.435,1.021-2.435,3.076v0.51c0,0.772-0.095,1.544-0.934,1.544h0l0,0
			c-0.579-0.013-0.875-0.436-0.922-1.009c0.083-0.448,0.106-1.009,0.106-1.146c0-2.627-1.217-3.3-2.601-3.3
			c-0.626,0-1.478,0.249-1.986,0.623L56.43,7.33c-1.324,0.025-2.045,1.046-2.045,2.254c0,1.108,0.544,1.855,1.253,2.117
			l-0.023,0.037c-0.249-0.037-0.473-0.049-0.721-0.049h-1.277H52.66h-0.083c-0.626,0-0.745-0.287-0.745-0.884V3.433h-0.698v7.533
			c0,1.096,0.332,1.507,1.289,1.507h0.236h0.957h4.717c0.839,0,1.442-0.249,1.939-0.909c0.212,0.672,0.768,0.909,1.347,0.909l0,0h0
			c0.721,0,1.135-0.336,1.348-0.909c0.391,0.734,1.088,0.983,1.927,0.983c0.827,0,1.513-0.262,1.926-0.934
			c0.178,0.561,0.615,0.859,1.336,0.859l0,0h0h0.958c0.65,0,1.041-0.274,1.312-0.722C70.64,12.285,71.196,12.472,71.633,12.472
			L71.633,12.472z M56.962,11.601c-1.218-0.199-1.903-0.921-1.903-1.992c0-0.772,0.402-1.594,1.324-1.594
			c0.981,0,1.359,0.772,1.359,1.73C57.743,10.38,57.506,11.239,56.962,11.601z M58.227,11.7h-0.414v-0.063
			c0.367-0.423,0.626-1.158,0.626-1.917c0-1.345-0.614-2.254-1.726-2.378c0.473-0.237,1.112-0.349,1.501-0.349
			c0.958,0,1.856,0.448,1.856,2.49C60.071,10.965,59.433,11.7,58.227,11.7z M64.942,11.788c-1.146,0-1.631-0.697-1.631-2.242
			c0-1.544,0.627-2.204,1.655-2.204c1.111,0,1.596,0.847,1.596,2.104C66.562,11.227,65.97,11.788,64.942,11.788z"/>
		<path fill="#111820" d="M81.386,11.165c0.118,0.772,0.591,1.307,1.478,1.307l0,0l0,0h0.958c1.276,0,1.62-0.921,1.62-2.254V6.844
			h-0.698v3.387c0,0.896-0.106,1.457-0.922,1.457h-0.958l0,0l0,0c-0.721-0.025-0.887-0.598-0.887-1.693V6.558h-0.686v0.561
			c-3.286,0.286-3.924,1.93-3.924,3.013c0,1.158,0.745,1.917,2.081,1.917C80.215,12.049,80.948,11.713,81.386,11.165z M79.53,11.314
			c-0.969,0-1.43-0.561-1.43-1.258c0-0.834,0.626-2.005,3.191-2.204v1.83C81.291,10.941,80.274,11.314,79.53,11.314z"/>
		<path fill="#111820" d="M89.035,6.57c-0.686,0-1.371,0.199-1.962,0.685l0.39,0.623c0.543-0.411,1.076-0.51,1.584-0.51
			c1.017,0,1.442,0.535,1.442,1.743v2.59h-3.569v0.772h4.267V8.861C91.186,7.218,90.382,6.57,89.035,6.57z"/>
		<path fill="#111820" d="M115.752,10.218V3.433h-0.698v6.798c0,0.896-0.106,1.457-0.922,1.457c0,0,0,0,0,0l0,0
			c-0.709-0.025-0.875-0.559-0.875-1.308c0-0.112,0-0.299,0-0.411c-0.012-1.681,0-2.102,0-3.078h-0.697c0,1.11,0,2.02,0,3.115
			c0,0.958-0.343,1.818-1.206,1.818c-0.875,0-1.182-0.697-1.182-1.644V7.653h-0.686V9.82c0,1.133-0.449,1.868-1.548,1.868h-0.426
			V7.653h-0.697v4.035h-2.187h0l0,0h-0.319c-0.863,0-1.537-0.137-2.14-0.398c1.052-0.698,1.75-1.806,1.75-2.727
			c0-1.469-1.3-1.992-2.458-1.992c-1.525,0-2.648,0.71-2.648,2.054c0,0.747,0.543,1.806,1.832,2.702
			c-0.438,0.199-1.241,0.361-1.974,0.361h-0.626c-0.022,0-0.042,0.009-0.063,0.012h-0.647V9.26c0-1.719-0.792-2.702-2.258-2.702
			c-1.643,0-2.411,1.22-2.411,3.038c0,2.142,0.993,2.876,2.648,2.876h1.276c0,1.22-0.851,1.768-1.855,1.768h-1.49v0.785h1.56
			c1.407,0,2.482-0.797,2.53-2.553h0.709l0,0h0h0.402c0.981,0,2.092-0.199,2.943-0.685c0.792,0.411,1.785,0.685,2.884,0.685h0.354
			l0,0h0h3.31c0.792,0,1.395-0.261,1.773-0.959h0.047c0.26,0.66,0.863,1.059,1.596,1.059c0.745,0,1.229-0.349,1.525-0.859h0.035
			c0.166,0.473,0.567,0.747,1.217,0.759l0,0c0,0,0,0,0,0C115.409,12.472,115.752,11.551,115.752,10.218z M96.6,11.7h-1.406
			c-0.993,0-1.797-0.411-1.797-2.092c0-1.419,0.532-2.254,1.631-2.254c1.146,0,1.572,0.785,1.572,2.167V11.7z M99.604,8.687
			c0-0.772,0.591-1.32,1.82-1.32c1.265,0,1.75,0.61,1.75,1.257c0,0.548-0.367,1.432-1.714,2.329
			C100.229,10.218,99.604,9.26,99.604,8.687z"/>
		<rect x="117.229" y="3.433" fill="#111820" width="0.686" height="9.04"/>
		<path fill="#111820" d="M138.603,12.472c1.903,0,2.199-1.519,2.199-2.901V6.77h-1.525v2.988c0,0.548-0.166,0.909-0.674,0.934
			h-0.981c-0.757,0-0.887-0.299-0.887-0.971V7.579h-1.525v2.266c0,0.473-0.142,0.847-0.733,0.847h-0.981c0,0,0,0,0,0l0,0
			c-0.757,0-0.899-0.61-0.899-0.971c0-1.445,0-2.021,0-2.924h-1.537c0,0.719,0,2.165,0,3.061c0,0.585-0.212,1.021-0.768,1.021
			c-0.414,0-0.792-0.349-0.792-1.108V7.579h-1.525v2.154c0,0.548-0.225,0.958-0.709,0.958h-0.378V7.579h-1.525v4.757
			c0,0.485-0.367,0.971-0.958,0.971c-0.615,0-0.958-0.486-0.958-0.971V8.886h-1.525v3.823c0,1.481,1.028,2.341,2.471,2.341
			c1.229,0,2.494-0.822,2.494-2.478v-0.1h0.378c0.544,0,1.028-0.187,1.372-0.61h0.059c0.414,0.56,0.969,0.784,1.714,0.784
			c0.698,0,1.289-0.299,1.584-0.809h0.047c0.319,0.46,0.804,0.635,1.454,0.635l0,0c0,0,0,0,0,0h0.981
			c0.615,0,1.158-0.125,1.596-0.735c0.248,0.499,0.769,0.735,1.549,0.735H138.603z"/>
		<path fill="#111820" d="M150.874,12.471c0.004,0,0.008,0.001,0.012,0.001c0.934,0,1.312-0.386,1.572-0.697
			c0.331,0.536,1.076,0.785,1.761,0.785c0.816,0,1.371-0.262,1.785-0.673c0.295,0.449,0.863,0.585,1.702,0.585l0,0h0
			c1.903,0,2.199-1.519,2.199-2.901V3.433h-1.525v6.325c0,0.548-0.166,0.909-0.674,0.934h0l0,0c-0.815,0-0.815-0.473-0.815-1.146
			c0-1.905-0.946-3.063-2.553-3.063c-1.667,0-2.731,1.183-2.731,3.113v0.249c0,0.548-0.236,0.847-0.721,0.847
			c-0.004,0-0.008,0.001-0.012,0.001v-0.001h-1.017l-0.012-0.087c0.26-0.361,0.378-1.059,0.378-1.37
			c0-1.656-0.898-2.752-2.613-2.752c-1.607,0-2.565,1.17-2.565,2.64c0,0.536,0.106,1.158,0.449,1.544l-0.024,0.075
			c-0.189-0.038-0.673-0.05-0.886-0.05h-0.189h-0.236c-0.307,0-0.532-0.074-0.532-0.622V3.433h-1.525v7.209
			c0,1.469,0.851,1.831,1.809,1.831h0.484L150.874,12.471L150.874,12.471z M154.278,8.251c0.662,0,1.052,0.548,1.052,1.333
			c0,0.573-0.331,1.195-1.135,1.195c-0.733,0-1.041-0.598-1.041-1.208C153.155,8.923,153.522,8.251,154.278,8.251z M147.907,10.704
			c-0.816-0.112-1.301-0.735-1.301-1.32c0-0.523,0.296-1.158,1.052-1.158c0.686,0,1.005,0.522,1.005,1.121
			C148.663,9.783,148.486,10.368,147.907,10.704z"/>
		<rect x="161.206" y="3.433" fill="#111820" width="1.525" height="9.04"/>
		<polygon fill="#111820" points="147.662,4.234 148.755,5.337 150.084,4.01 148.755,2.693 147.662,3.788 146.557,2.693 
			145.241,4.01 146.557,5.337 		"/>
		<polygon fill="#111820" points="138.938,13.371 137.622,14.687 138.938,16.015 140.042,14.911 141.137,16.015 142.464,14.687 
			141.137,13.371 140.042,14.465 		"/>
		<polygon fill="#111820" points="133.851,14.465 132.747,13.371 131.431,14.687 132.747,16.015 133.851,14.911 134.945,16.015 
			136.273,14.687 134.945,13.371 		"/>
		<polygon fill="#111820" points="82.081,14.153 82.852,14.948 83.646,14.153 82.852,13.371 		"/>
		<polygon fill="#111820" points="84.418,13.371 83.647,14.153 84.418,14.948 85.213,14.153 		"/>
		<polygon fill="#111820" points="80.514,4.798 79.72,4.016 78.949,4.798 79.72,5.593 		"/>
		<polygon fill="#111820" points="82.081,4.798 81.286,4.016 80.516,4.798 81.286,5.593 		"/>
		<polygon fill="#111820" points="41.872,6.315 41.077,5.532 40.306,6.315 41.077,7.11 		"/>
		<polygon fill="#111820" points="43.438,6.315 42.644,5.532 41.873,6.315 42.644,7.11 		"/>
	</g>
	<g>
		<path fill="#6ECB98" d="M4.133,16.587c-0.706-0.801-1.375-1.646-2.001-2.535c-0.658,0.883-1.272,1.799-1.841,2.747
			c0.673,0.885,1.384,1.729,2.131,2.528c5.373,5.754,12.56,9.269,20.13,10.161c0.457-0.987,0.854-1.989,1.194-3.001
			C16.323,25.823,9.242,22.378,4.133,16.587z"/>
		<path fill="#7F56C5" d="M24.251,1.118c-1.103,0.14-2.189,0.335-3.255,0.582C13.328,3.475,6.69,7.942,2.132,14.052
			c0.626,0.889,1.295,1.734,2.001,2.535C8.42,10.49,14.945,6.08,22.513,4.551c1.047-0.211,2.114-0.368,3.197-0.466
			C25.275,3.074,24.788,2.083,24.251,1.118z"/>
		<path fill="#00A8E1" d="M25.71,4.085c-1.083,0.098-2.15,0.254-3.197,0.466c3.138,6.761,3.694,14.616,1.233,21.936
			c-0.34,1.012-0.738,2.014-1.194,3.001c1.093,0.129,2.194,0.203,3.299,0.221c0.43-1.025,0.804-2.063,1.124-3.11
			C29.272,19.07,28.722,11.087,25.71,4.085z"/>
	</g>
</g>
</svg>
