<?xml version="1.0" encoding="utf-8"?>
<!-- Generator: Adobe Illustrator 16.0.0, SVG Export Plug-In . SVG Version: 6.00 Build 0)  -->
<!DOCTYPE svg PUBLIC "-//W3C//DTD SVG 1.1//EN" "http://www.w3.org/Graphics/SVG/1.1/DTD/svg11.dtd">
<svg version="1.1" id="Layer_1" xmlns="http://www.w3.org/2000/svg" xmlns:xlink="http://www.w3.org/1999/xlink" x="0px" y="0px"
	 width="43px" height="43px" viewBox="0 0 43 43" enable-background="new 0 0 43 43" xml:space="preserve">
<circle fill="#00A679" cx="21.5" cy="21.5" r="21.5"/>
<g>
	<path fill="#FFFFFF" d="M27.702,14.649h-0.396c-0.145,0-0.262,0.116-0.262,0.259c0,0.144,0.117,0.261,0.262,0.261h0.396v1.867
		h-0.396c-0.145,0-0.262,0.116-0.262,0.26s0.117,0.26,0.262,0.26h0.396v1.868h-0.396c-0.145,0-0.262,0.116-0.262,0.26
		s0.117,0.259,0.262,0.259h0.396v1.868h-0.396c-0.145,0-0.262,0.116-0.262,0.26c0,0.143,0.117,0.255,0.262,0.255h0.398v1.868h-0.398
		c-0.145,0-0.259,0.115-0.259,0.258c0,0.145,0.114,0.262,0.259,0.262h0.398v2.99h-2.996V27.33c0-0.145-0.115-0.26-0.259-0.26
		c-0.143,0-0.261,0.114-0.261,0.26v0.373h-1.845V27.33c0-0.145-0.116-0.26-0.26-0.26c-0.142,0-0.261,0.114-0.261,0.26v0.373H19.98
		V27.33c0-0.145-0.116-0.26-0.26-0.26c-0.143,0-0.26,0.114-0.26,0.26v0.373h-1.842V27.33c0-0.145-0.117-0.26-0.261-0.26
		s-0.259,0.114-0.259,0.26v0.373h-1.846V27.33c0-0.145-0.116-0.26-0.259-0.26c-0.144,0-0.26,0.114-0.26,0.26v0.373H14V29h15V14
		h-1.298V14.649z"/>
	<path fill="#FFFFFF" d="M14.216,25.802c0,0.141,0.116,0.259,0.26,0.259h11.321c0.144,0,0.261-0.115,0.261-0.259V14.388
		c0-0.142-0.049-0.154-0.107-0.023l-1.516,3.331c-0.059,0.129-0.223,0.217-0.363,0.194l-1.585-0.258
		c-0.142-0.024-0.313,0.059-0.386,0.182l-2.777,4.799c-0.072,0.123-0.245,0.207-0.386,0.186l-1.642-0.252
		c-0.142-0.021-0.347,0.036-0.457,0.125l-2.423,1.994c-0.109,0.091-0.2,0.281-0.2,0.424V25.802z"/>
	<path fill="#FFFFFF" d="M14.564,20.549l0.781,0.781c0.216,0.216,0.566,0.216,0.781,0l3.74-3.74l0.579,0.578
		c0.217,0.217,0.391,0.145,0.391-0.16V15.61c0-0.306-0.247-0.553-0.552-0.553h-2.397c-0.304,0-0.376,0.176-0.161,0.392l0.579,0.578
		l-3.74,3.74C14.347,19.982,14.347,20.333,14.564,20.549z"/>
</g>
</svg>
