<?xml version="1.0" encoding="utf-8"?>
<!-- Generator: Adobe Illustrator 16.0.0, SVG Export Plug-In . SVG Version: 6.00 Build 0)  -->
<!DOCTYPE svg PUBLIC "-//W3C//DTD SVG 1.1//EN" "http://www.w3.org/Graphics/SVG/1.1/DTD/svg11.dtd">
<svg version="1.1" id="Layer_1" xmlns="http://www.w3.org/2000/svg" xmlns:xlink="http://www.w3.org/1999/xlink" x="0px" y="0px"
	 width="43px" height="43px" viewBox="0 0 43 43" enable-background="new 0 0 43 43" xml:space="preserve">
<circle fill="#00A679" cx="21.5" cy="21.5" r="21.5"/>
<path fill="#FFFFFF" d="M13.292,29.709H21.5V13.291h-8.208V29.709z M18.422,15.345h2.052v2.053h-2.052V15.345z M18.422,19.449h2.052
	v2.052h-2.052V19.449z M18.422,23.553h2.052v2.053h-2.052V23.553z M14.318,15.345h2.052v2.053h-2.052V15.345z M14.318,19.449h2.052
	v2.052h-2.052V19.449z M14.318,23.553h2.052v2.053h-2.052V23.553z M22.526,18.423h7.182v1.026h-7.182V18.423z M22.526,29.709h2.052
	v-4.104h3.078v4.104h2.052v-9.234h-7.182V29.709z"/>
</svg>
