<?xml version="1.0" encoding="utf-8"?>
<!-- Generator: Adobe Illustrator 16.0.0, SVG Export Plug-In . SVG Version: 6.00 Build 0)  -->
<!DOCTYPE svg PUBLIC "-//W3C//DTD SVG 1.1//EN" "http://www.w3.org/Graphics/SVG/1.1/DTD/svg11.dtd">
<svg version="1.1" id="Layer_1" xmlns="http://www.w3.org/2000/svg" xmlns:xlink="http://www.w3.org/1999/xlink" x="0px" y="0px"
	 width="43px" height="43px" viewBox="0 0 43 43" enable-background="new 0 0 43 43" xml:space="preserve">
<path fill="#00A679" d="M21.5,43C9.626,43,0,33.374,0,21.5S9.626,0,21.5,0S43,9.626,43,21.5S33.374,43,21.5,43z M27.742,14.716
	c-1.408-0.686-4.996-2.435-5.352-2.603c-0.154-0.073-0.283-0.106-0.391-0.114c-0.107,0.008-0.236,0.041-0.391,0.114
	c-0.355,0.168-3.943,1.917-5.352,2.603c-0.197,0.097-0.271,0.205-0.253,0.306c-0.015,0.098,0.055,0.191,0.185,0.264
	c0.184,0.103,1.424,0.7,2.023,0.987c0.002,0.231,0.008,0.632,0.016,0.639c0.066,0.573,0.179,1.21,0.212,1.39
	c-0.054,0.03-0.334,0.212-0.334,0.779c0,0.003,0,0.006,0,0.009c0,0.015,0,0.03,0,0.045c0.12,1.576,0.75,0.896,0.879,1.587
	c0.216,1.148,1.237,1.979,1.872,2.264c0.367,0.166,0.746,0.25,1.142,0.259c0.396-0.009,0.775-0.093,1.143-0.259
	c0.635-0.286,1.655-1.116,1.871-2.264c0.129-0.69,0.76-0.011,0.879-1.587c0-0.016,0-0.03,0-0.045c0-0.003,0-0.006,0-0.009
	c0-0.567-0.279-0.749-0.334-0.779c0.033-0.18,0.146-0.817,0.213-1.39c0.008-0.007,0.013-0.407,0.015-0.639
	c0.329-0.158,0.853-0.409,1.286-0.62v1.523c-0.121,0.071-0.205,0.196-0.205,0.345c0,0.132,0.066,0.245,0.166,0.318
	c0,0-0.176,0.977-0.231,1.265c-0.057,0.287,0.995,0.229,0.948,0c-0.047-0.23-0.23-1.265-0.23-1.265
	c0.099-0.074,0.166-0.186,0.166-0.318c0-0.149-0.084-0.274-0.205-0.345v-1.722c0.162-0.08,0.283-0.141,0.33-0.168
	c0.131-0.073,0.201-0.167,0.187-0.264C28.014,14.921,27.939,14.813,27.742,14.716z M30,30.945c0,0,0-2.905,0-3.581
	c0-0.021,0-0.038,0-0.056c0-0.555-1-1.369-3.223-2.166c-0.662-0.238-1.815-0.924-2.014-1.029c-0.051-0.03-0.109-0.047-0.174-0.047
	c-0.139,0-0.258,0.08-0.313,0.197c-0.547,0.911-1.56,3.559-2.266,3.606c-0.004,0-0.009-0.001-0.013-0.001s-0.009,0.001-0.013,0.001
	c-0.708-0.05-1.719-2.696-2.265-3.606c-0.054-0.117-0.174-0.197-0.312-0.197c-0.063,0-0.123,0.018-0.174,0.048
	c-0.197,0.104-1.35,0.79-2.012,1.028C15,25.941,14,26.755,14,27.311c0,0.017,0,0.035,0,0.055c0,0.676,0,3.582,0,3.582
	c0,0.035,0,0.054,0,0.054h7.988H22h0.014H30C30,31,30,30.98,30,30.945z"/>
</svg>
