<?xml version="1.0" encoding="utf-8"?>
<!-- Generator: Adobe Illustrator 16.0.0, SVG Export Plug-In . SVG Version: 6.00 Build 0)  -->
<!DOCTYPE svg PUBLIC "-//W3C//DTD SVG 1.1//EN" "http://www.w3.org/Graphics/SVG/1.1/DTD/svg11.dtd">
<svg version="1.1" id="Layer_1" xmlns="http://www.w3.org/2000/svg" xmlns:xlink="http://www.w3.org/1999/xlink" x="0px" y="0px"
	 width="43px" height="43px" viewBox="0 0 43 43" enable-background="new 0 0 43 43" xml:space="preserve">
<circle fill="#00A679" cx="21.5" cy="21.5" r="21.5"/>
<g>
	<path fill="#FFFFFF" d="M21.497,23.617l-6.592-1.944v1.915v1.335c0,1.498,2.953,2.717,6.594,2.717c3.643,0,6.596-1.219,6.596-2.718
		c0-0.014-0.004-0.025-0.004-0.036v-3.213L21.497,23.617z"/>
	<path fill="#FFFFFF" d="M10.449,19.435l2.355,0.809l0.202-0.413l0.865-0.07l0.125,0.123l-0.744,0.17l-0.109,0.306
		c0,0-1.677,3.36-1.431,5.006c0,0,1.047,0.597,2.093,0l0.279-4.495v-0.374l1.557-0.336l-0.109,0.26l-1.162,0.362l0.536,0.182
		l6.594,1.945l6.593-1.945l4.458-1.527L21.5,15.36L10.449,19.435z"/>
</g>
</svg>
