<?xml version="1.0" encoding="utf-8"?>
<!-- Generator: Adobe Illustrator 16.0.0, SVG Export Plug-In . SVG Version: 6.00 Build 0)  -->
<!DOCTYPE svg PUBLIC "-//W3C//DTD SVG 1.1//EN" "http://www.w3.org/Graphics/SVG/1.1/DTD/svg11.dtd">
<svg version="1.1" id="Layer_1" xmlns="http://www.w3.org/2000/svg" xmlns:xlink="http://www.w3.org/1999/xlink" x="0px" y="0px"
	 width="43px" height="43px" viewBox="0 0 43 43" enable-background="new 0 0 43 43" xml:space="preserve">
<circle fill="#00A679" cx="21.5" cy="21.5" r="21.5"/>
<g>
	<path fill="#FFFFFF" d="M20.841,21.971c-0.595-0.61-2.114-1.951-3.488-1.441l-4.175,4.146c0.022-0.002,0.044-0.007,0.064-0.01
		c0.957-0.129,2.343,0.023,3.675,1.385c1.075,1.099,1.537,2.108,1.3,2.837c-0.134,0.408-0.469,0.681-0.926,0.759
		c-0.081,0.011-0.169,0.019-0.261,0.019c-0.77,0-1.909-0.482-2.945-1.892l0.642-0.479c0.846,1.144,1.867,1.65,2.435,1.554
		c0.24-0.04,0.281-0.169,0.294-0.211c0.101-0.306-0.129-1.024-1.11-2.021c-1.582-1.619-3.181-1.198-3.738-0.976
		c-0.151,0.925,0.371,2.21,1.417,3.282c1.353,1.382,3.086,1.886,3.942,1.171c0.006,0,0.01,0,0.01,0l4.649-4.619
		c0.071-0.19,0.142-0.608-0.201-1.302C22.053,23.42,21.476,22.618,20.841,21.971z"/>
	<path fill="#FFFFFF" d="M28.977,14.075c-1.396-1.425-3.197-1.915-4.022-1.095c-0.024,0.022-3.355,3.327-3.355,3.327
		c1.019,0.414,2.109,1.171,3,2.081c1.031,1.051,1.676,2.155,1.914,3.225c0,0,3.472-3.448,3.495-3.47
		C30.832,17.322,30.371,15.5,28.977,14.075z"/>
	<path fill="#FFFFFF" d="M26.494,23.487c-0.428-0.103-0.744-0.138-0.793-0.143c0.097-0.337,0.132-0.686,0.104-1.031
		c-0.083-1.182-0.817-2.379-1.773-3.358c-0.847-0.861-1.866-1.556-2.775-1.914c-0.104-0.043-0.205-0.067-0.304-0.086l-2.684,2.666
		c1.11,0.107,2.223,0.844,3.144,1.783c0.728,0.748,1.34,1.623,1.73,2.407c0.159,0.313,0.25,0.601,0.297,0.852
		c0.187,0.957-0.262,1.447-0.262,1.447l1.489-1.479c0.064-0.014,0.129-0.029,0.194-0.054c0.068,0.321,0.084,0.632,0.058,0.936
		c-0.145,1.652-1.483,2.925-1.483,2.925l1.583,0.688c1.984-1.606,1.345-3.553,0.822-4.53c-0.122-0.228-0.237-0.401-0.313-0.51
		c-0.002-0.005-0.008-0.013-0.012-0.021c0.006,0.006,0.01,0.012,0.012,0.014c0.191,0.086,0.367,0.188,0.528,0.3
		c1.588,1.114,1.692,3.43,1.692,3.43l1.549-0.761C29.382,24.54,27.581,23.739,26.494,23.487z"/>
</g>
</svg>
