<?xml version="1.0" encoding="utf-8"?>
<!-- Generator: Adobe Illustrator 16.0.0, SVG Export Plug-In . SVG Version: 6.00 Build 0)  -->
<!DOCTYPE svg PUBLIC "-//W3C//DTD SVG 1.1//EN" "http://www.w3.org/Graphics/SVG/1.1/DTD/svg11.dtd">
<svg version="1.1" id="Layer_1" xmlns="http://www.w3.org/2000/svg" xmlns:xlink="http://www.w3.org/1999/xlink" x="0px" y="0px"
	 width="43px" height="43px" viewBox="0 0 43 43" enable-background="new 0 0 43 43" xml:space="preserve">
<circle fill="#00A679" cx="21.5" cy="21.5" r="21.5"/>
<path fill="#FFFFFF" d="M16.356,23.057l3.586,3.585l6.58-6.575l-3.587-3.585L16.356,23.057z M30.691,18.135l-1.526-1.524
	c-0.29,0.159-0.623,0.248-0.978,0.248c-1.128,0-2.043-0.915-2.043-2.042c0-0.354,0.089-0.687,0.248-0.977l-1.525-1.525
	c-0.397-0.396-1.048-0.396-1.445,0L12.307,23.422c-0.396,0.397-0.396,1.046,0,1.442l1.526,1.525
	c0.291-0.156,0.623-0.248,0.978-0.248c1.13,0,2.043,0.914,2.043,2.042c0,0.354-0.089,0.686-0.25,0.978l1.527,1.525
	c0.396,0.396,1.047,0.396,1.445,0l11.114-11.11C31.09,19.183,31.09,18.533,30.691,18.135z M19.943,28.28l-5.226-5.224l8.219-8.215
	l5.225,5.225L19.943,28.28z"/>
</svg>
