<?xml version="1.0" encoding="utf-8"?>
<!-- Generator: Adobe Illustrator 16.0.0, SVG Export Plug-In . SVG Version: 6.00 Build 0)  -->
<!DOCTYPE svg PUBLIC "-//W3C//DTD SVG 1.1//EN" "http://www.w3.org/Graphics/SVG/1.1/DTD/svg11.dtd">
<svg version="1.1" id="Layer_1" xmlns="http://www.w3.org/2000/svg" xmlns:xlink="http://www.w3.org/1999/xlink" x="0px" y="0px"
	 width="43px" height="43px" viewBox="0 0 43 43" enable-background="new 0 0 43 43" xml:space="preserve">
<circle fill="#00A679" cx="21.5" cy="21.5" r="21.5"/>
<path fill="#FFFFFF" d="M29.883,24.271c-0.18-0.182-0.4-0.272-0.658-0.272h-0.926v-1.875c0-0.338-0.123-0.632-0.367-0.88
	c-0.246-0.248-0.533-0.37-0.869-0.37h-4.943V19h0.926c0.258,0,0.479-0.091,0.656-0.274c0.182-0.182,0.271-0.404,0.271-0.665v-3.123
	c0-0.261-0.09-0.481-0.271-0.665C23.521,14.091,23.303,14,23.045,14h-3.09c-0.258,0-0.477,0.091-0.657,0.273
	c-0.181,0.182-0.271,0.404-0.271,0.665v3.125c0,0.26,0.09,0.481,0.271,0.665C19.479,18.908,19.697,19,19.955,19h0.926v1.875h-4.944
	c-0.335,0-0.625,0.124-0.87,0.37c-0.244,0.248-0.367,0.542-0.367,0.88v1.875h-0.927c-0.257,0-0.477,0.091-0.657,0.272
	c-0.18,0.183-0.27,0.405-0.27,0.665v3.125c0,0.26,0.09,0.481,0.27,0.665C13.297,28.909,13.517,29,13.774,29h3.091
	c0.257,0,0.477-0.091,0.656-0.273c0.181-0.182,0.271-0.405,0.271-0.665v-3.125c0-0.26-0.09-0.48-0.271-0.665
	c-0.18-0.182-0.399-0.272-0.656-0.272h-0.927v-1.875h4.944v1.875h-0.926c-0.258,0-0.477,0.091-0.657,0.272
	c-0.181,0.183-0.271,0.405-0.271,0.665v3.125c0,0.26,0.09,0.481,0.271,0.665C19.479,28.909,19.697,29,19.955,29h3.09
	c0.258,0,0.477-0.091,0.656-0.273c0.182-0.182,0.271-0.405,0.271-0.665v-3.125c0-0.26-0.09-0.48-0.271-0.665
	c-0.18-0.182-0.398-0.272-0.656-0.272h-0.926v-1.875h4.943v1.875h-0.928c-0.258,0-0.477,0.091-0.656,0.272
	c-0.18,0.183-0.27,0.405-0.27,0.665v3.125c0,0.26,0.09,0.481,0.27,0.665C25.658,28.909,25.877,29,26.135,29h3.09
	c0.258,0,0.479-0.091,0.658-0.273c0.18-0.182,0.27-0.405,0.27-0.665v-3.125C30.152,24.676,30.063,24.454,29.883,24.271z"/>
</svg>
