<?xml version="1.0" encoding="utf-8"?>
<!-- Generator: Adobe Illustrator 16.0.0, SVG Export Plug-In . SVG Version: 6.00 Build 0)  -->
<!DOCTYPE svg PUBLIC "-//W3C//DTD SVG 1.1//EN" "http://www.w3.org/Graphics/SVG/1.1/DTD/svg11.dtd">
<svg version="1.1" id="Layer_1" xmlns="http://www.w3.org/2000/svg" xmlns:xlink="http://www.w3.org/1999/xlink" x="0px" y="0px"
	 width="43px" height="43px" viewBox="0 0 43 43" enable-background="new 0 0 43 43" xml:space="preserve">
<circle fill="#00A679" cx="21.5" cy="21.5" r="21.5"/>
<g>
	<path fill="#FFFFFF" d="M27.119,22.83c-0.697-1.071-2.507-1.811-4.84-1.979c-0.104-0.008-0.204,0.027-0.28,0.095
		c-0.052,0.042-0.109,0.104-0.174,0.174c-0.104,0.117-0.217,0.239-0.323,0.268l0,0c-0.106-0.028-0.22-0.15-0.33-0.275
		c-0.06-0.064-0.116-0.125-0.167-0.169c-0.077-0.067-0.18-0.1-0.281-0.094c-2.332,0.167-4.142,0.91-4.852,2
		c-0.11,0.185-2.674,4.557-0.558,7.099c0.07,0.085,0.177,0.136,0.292,0.136h11.792c0.116,0,0.223-0.051,0.295-0.134
		C29.834,27.374,27.153,22.883,27.119,22.83z M22.185,27.39c0,0.041-0.012,0.084-0.031,0.119l-0.406,0.716
		c-0.05,0.089-0.145,0.141-0.248,0.141c-0.101,0-0.196-0.052-0.247-0.138l-0.405-0.716c-0.021-0.037-0.033-0.079-0.033-0.119
		l-0.145-5.139c-0.002-0.089,0.041-0.17,0.115-0.223l0.551-0.381c0.099-0.067,0.231-0.067,0.329,0l0.55,0.381
		c0.074,0.052,0.117,0.134,0.116,0.223L22.185,27.39z"/>
	<path fill="#FFFFFF" d="M21.434,20.409c2.181,0,3.955-1.68,3.955-3.746c0-2.065-1.774-3.747-3.955-3.747s-3.955,1.682-3.955,3.747
		C17.479,18.729,19.253,20.409,21.434,20.409z"/>
</g>
</svg>
