<?xml version="1.0" encoding="iso-8859-1"?>
<!-- Generator: Adobe Illustrator 16.0.0, SVG Export Plug-In . SVG Version: 6.00 Build 0)  -->
<!DOCTYPE svg PUBLIC "-//W3C//DTD SVG 1.1//EN" "http://www.w3.org/Graphics/SVG/1.1/DTD/svg11.dtd">
<svg version="1.1" id="Layer_1" xmlns="http://www.w3.org/2000/svg" xmlns:xlink="http://www.w3.org/1999/xlink" x="0px" y="0px"
	 width="15px" height="11px" viewBox="0 0 15 11" style="enable-background:new 0 0 15 11;" xml:space="preserve">
<path style="fill:#00A678;" d="M13.965,0H1.034C0.463,0,0,0.475,0,1.061V9.94C0,10.525,0.463,11,1.034,11h12.931
	C14.536,11,15,10.525,15,9.939V1.061C14.999,0.475,14.536,0,13.965,0z M6.735,2.423h3.35c0.214,0,0.388,0.178,0.388,0.398
	c0,0.22-0.174,0.397-0.388,0.397h-3.35c-0.215,0-0.389-0.178-0.389-0.397C6.346,2.601,6.521,2.423,6.735,2.423z M5.344,8.484H1.68
	V2.518h3.664V8.484z M13.384,8.53H6.735c-0.215,0-0.389-0.177-0.389-0.396S6.52,7.736,6.735,7.736h6.649
	c0.214,0,0.388,0.178,0.388,0.397S13.597,8.53,13.384,8.53z M13.384,7.107H6.735c-0.215,0-0.389-0.179-0.389-0.398
	c0-0.219,0.173-0.397,0.389-0.397h6.649c0.214,0,0.388,0.178,0.388,0.397C13.77,6.929,13.597,7.107,13.384,7.107z M13.384,5.682
	H6.735c-0.215,0-0.389-0.178-0.389-0.397S6.52,4.887,6.735,4.887h6.649c0.214,0,0.388,0.177,0.388,0.397
	C13.77,5.504,13.597,5.682,13.384,5.682z"/>
</svg>
