<?xml version="1.0" encoding="iso-8859-1"?>
<!-- Generator: Adobe Illustrator 16.0.3, SVG Export Plug-In . SVG Version: 6.00 Build 0)  -->
<!DOCTYPE svg PUBLIC "-//W3C//DTD SVG 1.1//EN" "http://www.w3.org/Graphics/SVG/1.1/DTD/svg11.dtd">
<svg version="1.1" id="Layer_1" xmlns="http://www.w3.org/2000/svg" xmlns:xlink="http://www.w3.org/1999/xlink" x="0px" y="0px"
	 width="20px" height="20px" viewBox="0 0 20 20" style="enable-background:new 0 0 20 20;" xml:space="preserve">
<path style="fill:#00A678;" d="M18.961,16.201c-0.028-0.055-0.058-0.11-0.091-0.163c-0.692-1.121-1.39-2.238-2.079-3.361
	c-0.899-1.463-1.793-2.931-2.688-4.397c-0.833-1.364-1.664-2.728-2.495-4.091c-0.385-0.632-0.771-1.264-1.157-1.896
	c-0.091-0.149-0.202-0.314-0.39-0.291c-0.128,0.017-0.278,0.13-0.351,0.24C9.426,2.68,9.169,3.136,8.896,3.583
	c-0.894,1.464-1.79,2.928-2.686,4.39c-0.926,1.511-1.852,3.021-2.779,4.531C2.69,13.711,1.96,14.82,1.203,16.019
	c-0.619,0.979,0.382,0.93,0.39,0.93c2.813,0.001,8.34-0.022,8.34-0.022c2.646,0,5.595,0,8.343,0c0.132,0,0.266-0.098,0.396-0.112
	C18.939,16.786,19.079,16.43,18.961,16.201z M11.2,7.444c-0.018,0.21-0.034,0.413-0.043,0.603c-0.021,0.427-0.012,0.893-0.033,1.319
	c-0.051,0.999-0.114,2.015-0.169,3.013c-0.006,0.114-0.051,0.175-0.172,0.174c-0.382-0.002-0.764,0.01-1.146-0.001
	c-0.051-0.001-0.136-0.079-0.143-0.129c-0.037-0.304-0.064-0.607-0.08-0.914c-0.072-1.383-0.14-2.843-0.207-4.227
	C9.204,7.194,9.206,7.229,9.207,7.063c0-0.122,0.395-0.221,0.882-0.221c0.093,0,0.187,0,0.28,0
	C10.856,6.841,11.228,7.111,11.2,7.444z M10.185,15.438c-0.652,0.002-1.116-0.4-1.147-1.092c-0.03-0.659,0.449-1.156,1.167-1.156
	c0.698-0.004,1.148,0.434,1.142,1.138C11.341,15.084,10.839,15.436,10.185,15.438z"/>
</svg>
