<?xml version="1.0" encoding="utf-8"?>
<!-- Generator: Adobe Illustrator 16.0.0, SVG Export Plug-In . SVG Version: 6.00 Build 0)  -->
<!DOCTYPE svg PUBLIC "-//W3C//DTD SVG 1.1//EN" "http://www.w3.org/Graphics/SVG/1.1/DTD/svg11.dtd">
<svg version="1.1" id="Layer_1" xmlns="http://www.w3.org/2000/svg" xmlns:xlink="http://www.w3.org/1999/xlink" x="0px" y="0px"
	 width="20px" height="20px" viewBox="0 0 20 20" enable-background="new 0 0 20 20" xml:space="preserve">
<path fill="#454545" d="M18.489,3.164c0.693-0.73,0.693-1.915,0-2.645c-0.692-0.73-1.815-0.73-2.508,0
	c-0.404,0.426-0.57,1.006-0.503,1.562c-0.202,0.123-0.433,0.13-0.704-0.028c-1.487-0.87-3.733-1.501-5.98,0.412
	C7.758,3.345,5.988,5.433,4.36,5.529C3.461,5.582,3.016,5.345,2.721,5.263C2.076,5.081,1.732,5.145,1.297,5.731
	C0.92,6.239,1.357,6.633,1.82,6.917c1.327,0.808,3.501,2.904,5.635,5.234c2.21,2.25,4.199,4.543,4.965,5.942
	c0.268,0.488,0.643,0.947,1.125,0.55c0.556-0.458,0.616-0.821,0.444-1.501c-0.078-0.311-0.302-0.78-0.252-1.729
	c0.091-1.716,2.072-3.583,2.907-4.672c1.814-2.371,1.214-4.739,0.39-6.306c-0.151-0.286-0.145-0.53-0.026-0.742
	C17.534,3.765,18.085,3.589,18.489,3.164z M15.203,10.773c-0.187,0.197-0.489,0.197-0.675,0c-0.187-0.196-0.187-0.515,0-0.711
	c1.615-1.704,1.077-3.549,1.071-3.568c-0.081-0.265,0.058-0.549,0.309-0.633c0.251-0.085,0.52,0.06,0.6,0.324
	C16.539,6.285,17.227,8.641,15.203,10.773z M16.607,2.502c-0.346-0.365-0.346-0.958,0-1.322c0.346-0.365,0.908-0.365,1.254,0
	c0.346,0.364,0.346,0.958,0,1.322C17.516,2.867,16.953,2.867,16.607,2.502z"/>
<path fill="#454545" d="M6.668,12.982c-2.868-3.137-5.813-5.879-6.573-5.7C0.075,7.288,0.053,7.298,0.036,7.34
	c-0.087,0.208,0.036,0.863,0.668,2.026c0.416,0.761,1.373,2.307,3.244,4.435c0.091,0.104,0.285,0.32,0.408,0.445
	c-0.384-0.042-0.782,0.086-1.076,0.396c-0.52,0.548-0.52,1.437,0,1.984c0.519,0.548,1.362,0.548,1.882,0
	c0.293-0.309,0.413-0.727,0.375-1.131c0.12,0.124,0.278,0.28,0.354,0.354c2.019,1.974,3.484,2.983,4.206,3.42
	c1.104,0.667,1.726,0.798,1.922,0.706c0.039-0.019,0.049-0.041,0.054-0.063C12.243,19.109,9.643,16.005,6.668,12.982z"/>
</svg>
