<?xml version="1.0" encoding="utf-8"?>
<!-- Generator: Adobe Illustrator 16.0.0, SVG Export Plug-In . SVG Version: 6.00 Build 0)  -->
<!DOCTYPE svg PUBLIC "-//W3C//DTD SVG 1.1//EN" "http://www.w3.org/Graphics/SVG/1.1/DTD/svg11.dtd">
<svg version="1.1" id="Layer_1" xmlns="http://www.w3.org/2000/svg" xmlns:xlink="http://www.w3.org/1999/xlink" x="0px" y="0px"
	 width="20.25px" height="16.375px" viewBox="0 0 20.25 16.375" enable-background="new 0 0 20.25 16.375" xml:space="preserve">
<path fill="#00A678" d="M5.065,1.063l-4.565,14h2.308l3.311-14H5.065z"/>
<path fill="#00A678" d="M14.935,1.063h-1.053l3.311,14H19.5L14.935,1.063z"/>
<path fill="#00A678" d="M7.019,1.063l-3.304,14h4.889l0.134-2.061h2.523l0.134,2.061h4.889l-3.304-14H7.019L7.019,1.063z
	 M9.565,1.223h0.869l0.138,1.963H9.427L9.565,1.223z M9.29,5.149h1.421l0.138,1.963H9.152L9.29,5.149z M8.876,11.039l0.138-1.963
	h1.972l0.138,1.963H8.876z"/>
</svg>
