<?xml version="1.0" encoding="utf-8"?>
<!-- Generator: Adobe Illustrator 16.0.0, SVG Export Plug-In . SVG Version: 6.00 Build 0)  -->
<!DOCTYPE svg PUBLIC "-//W3C//DTD SVG 1.1//EN" "http://www.w3.org/Graphics/SVG/1.1/DTD/svg11.dtd">
<svg version="1.1" id="Layer_1" xmlns="http://www.w3.org/2000/svg" xmlns:xlink="http://www.w3.org/1999/xlink" x="0px" y="0px"
	 width="16px" height="16px" viewBox="0 0 16 16" enable-background="new 0 0 16 16" xml:space="preserve">
<g>
	<path fill="#4C4C4D" d="M8,2.772c-3.529,0-6.571,2.081-7.968,5.082c-0.043,0.092-0.043,0.198,0,0.291
		C1.429,11.147,4.471,13.228,8,13.228c3.529,0,6.57-2.08,7.968-5.082c0.043-0.092,0.043-0.198,0-0.291
		C14.57,4.853,11.529,2.772,8,2.772z M8,11.607c-1.993,0-3.606-1.615-3.606-3.606c0-1.993,1.615-3.606,3.606-3.606
		c1.993,0,3.606,1.615,3.606,3.606S9.991,11.607,8,11.607z"/>
	<circle fill="#4C4C4D" cx="8" cy="7.999" r="2.309"/>
</g>
</svg>
