<?xml version="1.0" encoding="utf-8"?>
<!-- Generator: Adobe Illustrator 16.0.0, SVG Export Plug-In . SVG Version: 6.00 Build 0)  -->
<!DOCTYPE svg PUBLIC "-//W3C//DTD SVG 1.1//EN" "http://www.w3.org/Graphics/SVG/1.1/DTD/svg11.dtd">
<svg version="1.1" id="Layer_1" xmlns="http://www.w3.org/2000/svg" xmlns:xlink="http://www.w3.org/1999/xlink" x="0px" y="0px"
	 width="14px" height="14px" viewBox="0 0 14 14" enable-background="new 0 0 14 14" xml:space="preserve">
<g>
	<path fill="#00A678" d="M0,14h6.363V7.638H0V14z M1.273,8.909h3.818v3.809H1.273V8.909z"/>
	<path fill="#00A678" d="M2.545,10.182h1.272v1.273H2.545V10.182z"/>
	<path fill="#00A678" d="M10.182,12.727h1.273V14h-1.273V12.727z"/>
	<path fill="#00A678" d="M12.727,12.727H14V14h-1.273V12.727z"/>
	<path fill="#00A678" d="M12.727,8.909h-1.272V7.636H7.636V14h1.273v-3.818h1.271v1.273h3.818V7.638l0,0h-1.272V8.909L12.727,8.909z
		"/>
	<path fill="#00A678" d="M0,6.364h6.363V0H0V6.364z M1.273,1.273h3.818v3.818H1.273V1.273z"/>
	<path fill="#00A678" d="M2.545,2.545h1.272v1.272H2.545V2.545z"/>
	<path fill="#00A678" d="M7.636,0v6.364H14V0H7.636z M12.727,5.091H8.909V1.273h3.817V5.091z"/>
	<path fill="#00A678" d="M10.182,2.545h1.273v1.272h-1.273V2.545z"/>
</g>
</svg>
