<?xml version="1.0" encoding="utf-8"?>
<!-- Generator: Adobe Illustrator 16.0.0, SVG Export Plug-In . SVG Version: 6.00 Build 0)  -->
<!DOCTYPE svg PUBLIC "-//W3C//DTD SVG 1.1//EN" "http://www.w3.org/Graphics/SVG/1.1/DTD/svg11.dtd">
<svg version="1.1" id="Layer_1" xmlns="http://www.w3.org/2000/svg" xmlns:xlink="http://www.w3.org/1999/xlink" x="0px" y="0px"
	 width="15px" height="15px" viewBox="0 0 15 15" enable-background="new 0 0 15 15" xml:space="preserve">
<path fill="#FFFFFF" d="M8,9.725L2.63,8.141v1.559v1.087C2.63,12.008,5.035,13,8.001,13s5.372-0.992,5.372-2.214
	c0-0.011-0.003-0.021-0.003-0.029V8.141L8,9.725z"/>
<path fill="#FFFFFF" d="M-1,6.318l1.918,0.658L1.082,6.64l0.705-0.057l0.101,0.1L1.282,6.821l-0.088,0.25
	c0,0-1.366,2.736-1.166,4.076c0,0,0.853,0.486,1.705,0L1.96,7.486V7.182l1.269-0.274l-0.09,0.211L2.193,7.414L2.63,7.563L8,9.146
	l5.37-1.583L17,6.319L8,3L-1,6.318z"/>
</svg>
