<?xml version="1.0" encoding="utf-8"?>
<!-- Generator: Adobe Illustrator 16.0.0, SVG Export Plug-In . SVG Version: 6.00 Build 0)  -->
<!DOCTYPE svg PUBLIC "-//W3C//DTD SVG 1.1//EN" "http://www.w3.org/Graphics/SVG/1.1/DTD/svg11.dtd">
<svg version="1.1" id="Layer_1" xmlns="http://www.w3.org/2000/svg" xmlns:xlink="http://www.w3.org/1999/xlink" x="0px" y="0px"
	 width="15px" height="15px" viewBox="0 0 15 15" enable-background="new 0 0 15 15" xml:space="preserve">
<path fill="#FFFFFF" d="M12.962,2.519h-0.317c-0.115,0-0.209,0.093-0.209,0.208c0,0.115,0.094,0.208,0.209,0.208h0.317v1.494h-0.317
	c-0.115,0-0.209,0.093-0.209,0.208c0,0.115,0.094,0.208,0.209,0.208h0.317v1.494h-0.317c-0.115,0-0.209,0.093-0.209,0.208
	c0,0.115,0.094,0.207,0.209,0.207h0.317v1.494h-0.317c-0.115,0-0.209,0.093-0.209,0.208c0,0.114,0.094,0.204,0.209,0.204h0.318
	v1.494h-0.318c-0.115,0-0.207,0.093-0.207,0.207c0,0.115,0.092,0.209,0.207,0.209h0.318v2.393h-2.396v-0.299
	c0-0.115-0.092-0.208-0.207-0.208s-0.209,0.092-0.209,0.208v0.299H8.675v-0.299c0-0.115-0.093-0.208-0.208-0.208
	c-0.113,0-0.208,0.092-0.208,0.208v0.299H6.784v-0.299c0-0.115-0.093-0.208-0.208-0.208c-0.114,0-0.208,0.092-0.208,0.208v0.299
	H4.894v-0.299c0-0.115-0.093-0.208-0.208-0.208c-0.115,0-0.208,0.092-0.208,0.208v0.299H3.002v-0.299
	c0-0.115-0.093-0.208-0.207-0.208c-0.115,0-0.208,0.092-0.208,0.208v0.299H2V14h12V2h-1.038V2.519z"/>
<path fill="#FFFFFF" d="M2.173,11.441c0,0.113,0.093,0.207,0.208,0.207h9.057c0.115,0,0.209-0.092,0.209-0.207v-9.13
	c0-0.114-0.039-0.123-0.086-0.019l-1.213,2.665c-0.047,0.104-0.178,0.174-0.291,0.155L8.789,4.906
	C8.676,4.887,8.538,4.953,8.48,5.052L6.259,8.891C6.201,8.989,6.063,9.057,5.95,9.039L4.637,8.838
	C4.523,8.82,4.36,8.866,4.271,8.938l-1.938,1.595c-0.088,0.073-0.16,0.225-0.16,0.339V11.441z"/>
<path fill="#FFFFFF" d="M2.451,7.239l0.625,0.625c0.173,0.173,0.453,0.173,0.625,0l2.993-2.992l0.462,0.462
	C7.33,5.508,7.469,5.45,7.469,5.206V3.288c0-0.244-0.198-0.442-0.442-0.442H5.11c-0.244,0-0.302,0.14-0.129,0.313l0.462,0.463
	L2.451,6.614C2.278,6.786,2.278,7.066,2.451,7.239z"/>
</svg>
