<?xml version="1.0" encoding="utf-8"?>
<!-- Generator: Adobe Illustrator 16.0.3, SVG Export Plug-In . SVG Version: 6.00 Build 0)  -->
<!DOCTYPE svg PUBLIC "-//W3C//DTD SVG 1.1//EN" "http://www.w3.org/Graphics/SVG/1.1/DTD/svg11.dtd">
<svg version="1.1" id="Layer_1" xmlns="http://www.w3.org/2000/svg" xmlns:xlink="http://www.w3.org/1999/xlink" x="0px" y="0px"
	 width="6px" height="6px" viewBox="0 0 6 6" enable-background="new 0 0 6 6" xml:space="preserve">
<path fill="#E64C3C" d="M5.439,4.25C5.355,4.38,5.202,4.453,5.044,4.453c-0.077,0-0.156-0.018-0.228-0.055L3.456,3.7v1.396
	C3.456,5.319,3.251,5.5,3,5.5c-0.251,0-0.455-0.181-0.455-0.404V3.7L1.183,4.398c-0.071,0.037-0.15,0.055-0.227,0.055
	c-0.157,0-0.311-0.072-0.395-0.202C0.436,4.057,0.51,3.81,0.728,3.698L2.09,3L0.728,2.302C0.51,2.19,0.436,1.944,0.562,1.75
	c0.125-0.193,0.404-0.259,0.622-0.147L2.545,2.3V0.904C2.545,0.681,2.749,0.5,3,0.5s0.455,0.181,0.455,0.404V2.3l1.361-0.698
	C5.034,1.49,5.313,1.557,5.438,1.75C5.564,1.943,5.49,2.19,5.272,2.302L3.911,3l1.361,0.698C5.49,3.81,5.565,4.057,5.439,4.25z"/>
</svg>
