<?xml version="1.0" encoding="utf-8"?>
<!-- Generator: Adobe Illustrator 16.0.0, SVG Export Plug-In . SVG Version: 6.00 Build 0)  -->
<!DOCTYPE svg PUBLIC "-//W3C//DTD SVG 1.1//EN" "http://www.w3.org/Graphics/SVG/1.1/DTD/svg11.dtd">
<svg version="1.1" id="Layer_1" xmlns="http://www.w3.org/2000/svg" xmlns:xlink="http://www.w3.org/1999/xlink" x="0px" y="0px"
	 width="14px" height="21px" viewBox="0 0 14 21" enable-background="new 0 0 14 21" xml:space="preserve">
<g>
	<path fill="#00A678" d="M14,9.762c0-4.393-3.046-8.037-6.997-8.636V0.991c0-0.418-0.337-0.759-0.76-0.759
		c-0.424,0-0.761,0.34-0.761,0.759v0.963c0,0.405,0.306,0.733,0.684,0.733h0.072c3.471,0.21,6.234,3.305,6.234,7.072
		c0,3.905-2.968,7.083-6.614,7.083c-1.774,0-3.386-0.757-4.574-1.98c-0.252-0.258-0.645-0.274-0.913-0.035
		c-0.042,0.038-0.083,0.074-0.125,0.112c-0.15,0.133-0.24,0.328-0.247,0.535s0.069,0.409,0.209,0.553
		c1.377,1.43,3.212,2.345,5.273,2.447v0.638H4.247c-0.592,0-1.071,0.514-1.071,1.147v0.508h6.136v-0.505
		c0-0.635-0.48-1.146-1.071-1.146H7.006v-0.717C10.954,17.798,14,14.154,14,9.762z"/>
	<path fill="#00A678" d="M5.855,15.85c3.141,0,5.687-2.726,5.687-6.089S8.996,3.673,5.855,3.673c-3.138,0-5.685,2.726-5.685,6.088
		C0.171,13.122,2.717,15.85,5.855,15.85z M10.536,9.762c0,0.397-0.043,0.784-0.126,1.155c-0.041-0.072-0.339-0.538-0.394-0.691
		s-0.755,0.887-0.82,0.945c-0.067,0.061-0.055-1.288-0.055-1.466c0-0.176-0.231-0.413-0.36-0.53
		C8.647,9.056,7.886,8.281,7.665,8.371C7.421,8.47,8.146,9.056,8.092,9.116C8.035,9.176,7.467,9.34,7.234,9.387
		C7,9.434,6.833,9.092,6.755,8.938C6.678,8.784,6.459,8.241,6.417,8.099C6.373,7.957,6.22,8.304,6.241,8.457s0.231,0.599,0.33,0.765
		c0.099,0.166,0.143,0.365,0.143,0.521c0,0.152,0.208,0.259,0.425,0.33c0.222,0.072,0,0.226-0.075,0.319
		c-0.078,0.095-0.393,0.283-0.723,0.461c-0.329,0.176-0.679,0.779-0.797,1.027c-0.121,0.249-0.395,0.697-0.624,0.897
		c-0.23,0.201-1.38,0.626-1.784,0.519c-0.404-0.104-0.47-1.641-0.437-1.935c0.034-0.295,0.219-0.769,0.196-1.04
		C2.874,10.05,2.98,9.602,3.035,9.494c0.057-0.106,0.318,0.012,0.439-0.001c0.12-0.012-0.121-0.332-0.186-0.32
		C3.223,9.184,3.07,9.075,2.979,9.027C2.894,8.98,2.796,8.692,2.457,8.61c-0.34-0.084-0.384-0.543-0.428-0.767
		C1.985,7.618,2.26,7.032,2.315,6.914C2.37,6.795,3.059,6.151,3.059,6.151S3.425,5.95,3.53,5.956
		c0.306,0.02,0.603,0.333,0.603,0.333S4.57,6.578,4.853,7.06c0.235,0.402,0.729,0.475,0.729,0.475
		C5.857,7.51,6.036,7.282,6.049,7.201c0.05-0.271-0.143-0.496-0.409-0.482C5.584,6.723,5.563,6.838,5.476,6.838
		c-0.088,0-0.066-0.119-0.099-0.237C5.344,6.483,5.336,6.343,5.283,6.201C5.229,6.06,5.186,5.886,5.076,5.756
		c-0.11-0.131-0.262-0.033-0.405-0.067C4.529,5.652,4.316,5.775,4.163,5.763c-0.154-0.012-0.23-0.141-0.219-0.259
		c0.011-0.119,0.387-0.267,0.571-0.29C4.701,5.19,4.869,5.169,4.923,5.086C4.979,5.002,5.243,4.958,5.33,4.97
		c0.088,0.012,0.228,0.075,0.312,0.193c0.115,0.162,0.12,0.416,0.386,0.379c0.103-0.014,0.375-0.179,0.168-0.31
		C6.08,5.158,5.923,5.043,6.034,4.831c0.015-0.03,0.047-0.053,0.093-0.068C8.58,4.909,10.536,7.095,10.536,9.762z M5.454,12.788
		c0.087-0.165,0.274-0.202,0.481-0.249c0.217-0.051,0,0.509-0.112,0.581c-0.108,0.069-0.458,0.235-0.556,0.193
		C5.168,13.271,5.365,12.953,5.454,12.788z"/>
</g>
</svg>
