<?xml version="1.0" encoding="iso-8859-1"?>
<!-- Generator: Adobe Illustrator 16.0.3, SVG Export Plug-In . SVG Version: 6.00 Build 0)  -->
<!DOCTYPE svg PUBLIC "-//W3C//DTD SVG 1.1//EN" "http://www.w3.org/Graphics/SVG/1.1/DTD/svg11.dtd">
<svg version="1.1" id="Layer_1" xmlns="http://www.w3.org/2000/svg" xmlns:xlink="http://www.w3.org/1999/xlink" x="0px" y="0px"
	 width="30px" height="30px" viewBox="0 0 30 30" style="enable-background:new 0 0 30 30;" xml:space="preserve">
<path style="fill:#FFFFFF;" d="M21.416,16.997c0.309,0.149,0.463,0.404,0.463,0.763v2.894v0.516c0,0.224-0.069,0.418-0.208,0.583
	c-0.139,0.165-0.316,0.247-0.532,0.247H9.77c-0.201,0-0.371-0.082-0.51-0.247c-0.139-0.165-0.208-0.359-0.208-0.583v-0.516v-2.894
	c0-0.359,0.154-0.613,0.463-0.763l3.195-1.436L13.96,15c-0.587-0.344-1.034-0.837-1.343-1.48c-0.293-0.568-0.44-1.174-0.44-1.817
	c0-0.194,0.016-0.381,0.046-0.561c0.031-0.18,0.069-0.352,0.116-0.516c0.216-0.763,0.606-1.391,1.169-1.884
	c0.563-0.494,1.215-0.74,1.957-0.74c0.756,0,1.42,0.254,1.991,0.763c0.571,0.508,0.957,1.151,1.158,1.929
	c0.077,0.374,0.116,0.71,0.116,1.009c0,0.598-0.124,1.174-0.371,1.728c-0.309,0.673-0.756,1.182-1.343,1.525l1.32,0.606
	L21.416,16.997L21.416,16.997z M9.052,16.054c-0.34,0.15-0.606,0.378-0.799,0.685s-0.29,0.646-0.29,1.021v2.894H5.579
	c-0.17,0-0.309-0.063-0.417-0.191C5.054,20.335,5,20.175,5,19.98v-2.737c0-0.329,0.124-0.538,0.371-0.628L8.959,15
	c-0.432-0.254-0.779-0.617-1.042-1.088c-0.262-0.471-0.394-0.999-0.394-1.582c0-0.404,0.069-0.789,0.208-1.155
	c0.139-0.367,0.328-0.685,0.567-0.954s0.517-0.482,0.833-0.639c0.316-0.157,0.66-0.236,1.03-0.236c0.247,0,0.479,0.038,0.694,0.112
	c0.216,0.075,0.425,0.172,0.625,0.292c-0.263,0.628-0.394,1.279-0.394,1.952c0,0.523,0.077,1.028,0.231,1.514
	c0.154,0.486,0.371,0.924,0.648,1.313c-0.17,0.18-0.348,0.322-0.533,0.426L9.052,16.054z M25.63,16.615
	C25.877,16.735,26,16.944,26,17.243v2.737c0,0.195-0.054,0.355-0.162,0.482c-0.108,0.127-0.247,0.191-0.417,0.191h-2.454v-2.894
	c0-0.374-0.097-0.714-0.29-1.021c-0.193-0.306-0.452-0.534-0.775-0.684L19.61,15c-0.216-0.12-0.425-0.292-0.625-0.516
	c0.262-0.389,0.467-0.819,0.613-1.29c0.147-0.471,0.22-0.969,0.22-1.492c0-0.344-0.031-0.673-0.093-0.987s-0.154-0.621-0.278-0.92
	c0.201-0.134,0.417-0.243,0.648-0.325c0.231-0.083,0.471-0.124,0.718-0.124c0.371,0,0.718,0.079,1.042,0.236
	c0.324,0.157,0.606,0.37,0.845,0.639c0.239,0.269,0.429,0.587,0.567,0.954c0.139,0.366,0.208,0.751,0.208,1.155
	c0,0.568-0.131,1.088-0.394,1.559c-0.263,0.471-0.594,0.833-0.996,1.088L25.63,16.615L25.63,16.615z"/>
</svg>
