<?xml version="1.0" encoding="iso-8859-1"?>
<!-- Generator: Adobe Illustrator 16.0.3, SVG Export Plug-In . SVG Version: 6.00 Build 0)  -->
<!DOCTYPE svg PUBLIC "-//W3C//DTD SVG 1.1//EN" "http://www.w3.org/Graphics/SVG/1.1/DTD/svg11.dtd">
<svg version="1.1" id="Layer_1" xmlns="http://www.w3.org/2000/svg" xmlns:xlink="http://www.w3.org/1999/xlink" x="0px" y="0px"
	 width="30px" height="30px" viewBox="0 0 30 30" style="enable-background:new 0 0 30 30;" xml:space="preserve">
<path style="fill:#454545;" d="M23.999,16.713v-2.427h-2.55c-0.152-0.745-0.442-1.438-0.84-2.056l1.82-1.821l-1.718-1.717
	l-1.792,1.792c-0.655-0.447-1.4-0.77-2.204-0.934v-2.55h-2.428v2.55c-0.775,0.158-1.496,0.464-2.132,0.886l-1.745-1.744
	l-1.717,1.716l1.745,1.746c-0.421,0.637-0.728,1.356-0.885,2.131h-2.55v2.428h2.551c0.164,0.804,0.486,1.549,0.934,2.204
	l-1.793,1.792l1.718,1.718l1.82-1.821c0.619,0.397,1.312,0.688,2.057,0.84v2.55h2.428v-2.55c0.774-0.158,1.495-0.464,2.132-0.886
	l1.866,1.866l1.718-1.718l-1.866-1.866c0.421-0.637,0.728-1.357,0.885-2.132H23.999z M15.5,19.142
	c-2.011-0.003-3.639-1.632-3.643-3.642c0.005-2.011,1.632-3.639,3.643-3.643c2.011,0.004,3.638,1.631,3.642,3.643
	C19.138,17.511,17.511,19.138,15.5,19.142z"/>
</svg>
