<?xml version="1.0" encoding="utf-8"?>
<!-- Generator: Adobe Illustrator 16.0.3, SVG Export Plug-In . SVG Version: 6.00 Build 0)  -->
<!DOCTYPE svg PUBLIC "-//W3C//DTD SVG 1.1//EN" "http://www.w3.org/Graphics/SVG/1.1/DTD/svg11.dtd">
<svg version="1.1" id="Layer_1" xmlns="http://www.w3.org/2000/svg" xmlns:xlink="http://www.w3.org/1999/xlink" x="0px" y="0px"
	 width="54.5px" height="123px" viewBox="0 1507.482 54.5 123" enable-background="new 0 1507.482 54.5 123" xml:space="preserve">
<g>
	<circle fill="#F3F3F0" stroke="#D6D6CF" stroke-miterlimit="10" cx="27.25" cy="44.538" r="24"/>
	<path fill="#8F8D88" d="M33.109,46.297c-0.781,0.786-2.047,0.786-2.828,0l-1.586-1.596v7.285c0,1.112-0.896,2.012-2,2.012
		s-2-0.9-2-2.012v-7.285l-1.586,1.596c-0.781,0.786-2.047,0.786-2.828,0c-0.781-0.786-0.781-2.059,0-2.845L26.695,37l6.415,6.452
		C33.891,44.238,33.891,45.511,33.109,46.297z"/>
</g>
<path fill="#8F8E89" d="M30.92,901.217l-2.291-2.291l2.291-2.291c0.164-0.163,0.164-0.43,0-0.592l-0.789-0.789
	c-0.164-0.161-0.428-0.161-0.59,0l-2.293,2.291l-2.289-2.291c-0.164-0.161-0.428-0.161-0.592,0l-0.787,0.789
	c-0.164,0.164-0.164,0.429,0,0.592l2.291,2.291l-2.291,2.291c-0.164,0.162-0.164,0.427,0,0.591l0.787,0.789
	c0.164,0.162,0.428,0.162,0.592,0l2.289-2.291l2.291,2.291c0.164,0.162,0.428,0.162,0.592,0l0.789-0.789
	C31.082,901.644,31.082,901.379,30.92,901.217z"/>
<path fill="#636158" d="M30.919,931.508l-2.291-2.291l2.291-2.291c0.164-0.163,0.164-0.429,0-0.591l-0.788-0.789
	c-0.164-0.162-0.429-0.162-0.591,0l-2.292,2.291l-2.289-2.291c-0.163-0.162-0.429-0.162-0.592,0l-0.787,0.789
	c-0.163,0.164-0.163,0.428,0,0.591l2.291,2.291l-2.291,2.291c-0.163,0.163-0.163,0.427,0,0.591l0.789,0.789
	c0.161,0.162,0.428,0.162,0.591,0l2.29-2.291l2.291,2.291c0.162,0.162,0.43,0.162,0.592,0l0.789-0.789
	C31.083,931.935,31.083,931.671,30.919,931.508z"/>
<path fill="#5BB1C4" d="M22.89,689.324l-2.519-4.361c1.612-2.02,4.095-3.313,6.88-3.313c3.224,0,6.039,1.729,7.571,4.313h-7.181
	c-0.127-0.014-0.261-0.02-0.393-0.02C25.157,685.945,23.392,687.385,22.89,689.324z M30.4,687.234h5.045
	c0.392,0.996,0.604,2.08,0.604,3.215c0,4.828-3.887,8.746-8.699,8.799l3.6-6.232c0.507-0.729,0.805-1.604,0.805-2.563
	C31.755,689.191,31.236,688.053,30.4,687.234z M24.054,690.449c0-1.771,1.436-3.197,3.197-3.197c1.765,0,3.196,1.434,3.196,3.197
	c0,1.763-1.434,3.197-3.196,3.197C25.489,693.646,24.054,692.213,24.054,690.449z M28.458,694.789l-2.52,4.363
	c-4.238-0.642-7.488-4.289-7.488-8.703c0-1.568,0.41-3.041,1.129-4.314l3.593,6.229c0.72,1.522,2.276,2.596,4.079,2.596
	C27.669,694.951,28.072,694.895,28.458,694.789z"/>
<path fill="#5BB1C4" d="M32.173,531.449c0,2.418-0.002,4.84,0.002,7.26c0.001,0.426-0.209,0.701-0.541,0.908
	c-0.093,0.059-0.196,0.08-0.31,0.08c-0.313-0.004-0.629,0-0.942,0c-0.051,0-0.104,0-0.159,0c-0.009,0.033-0.017,0.061-0.018,0.086
	c-0.002,0.043-0.001,0.086-0.001,0.129c0,0.781-0.001,1.563,0.001,2.344c0,0.229-0.043,0.43-0.145,0.623
	c-0.084,0.16-0.194,0.291-0.34,0.396c-0.367,0.268-0.854,0.252-1.199-0.043c-0.228-0.188-0.354-0.42-0.4-0.703
	c-0.02-0.104-0.023-0.201-0.023-0.31c-0.004-0.776-0.002-1.563-0.002-2.354c0-0.052-0.003-0.104-0.006-0.166
	c-0.565,0-1.112,0-1.669,0c-0.006,0.022-0.014,0.055-0.017,0.08c-0.002,0.043,0,0.088,0,0.131c0,0.785,0,1.572,0,2.354
	c0,0.22-0.045,0.416-0.143,0.604c-0.074,0.146-0.176,0.271-0.305,0.373c-0.374,0.295-0.883,0.285-1.244-0.031
	c-0.22-0.188-0.348-0.436-0.395-0.727c-0.014-0.104-0.021-0.189-0.021-0.285c-0.001-0.777,0-1.553-0.001-2.332
	c0-0.055,0.008-0.113-0.011-0.176c-0.05-0.002-0.097-0.015-0.142-0.015c-0.313,0-0.629-0.008-0.941,0.009
	c-0.167,0.004-0.313-0.06-0.445-0.146c-0.132-0.098-0.236-0.217-0.318-0.354c-0.075-0.135-0.115-0.271-0.113-0.428
	c0.002-0.422,0-0.844,0-1.266c0-2.021,0-4.035,0-6.051c0-0.063,0-0.115,0-0.188c0.033-0.006,0.058-0.018,0.084-0.02
	c0.037-0.006,0.074-0.004,0.111-0.004c3.149,0,6.304,0,9.457,0c0.063,0,0.121-0.01,0.188,0.016c0.003,0.028,0.009,0.063,0.01,0.086
	C32.174,531.381,32.173,531.414,32.173,531.449z"/>
<path fill="#5BB1C4" d="M22.393,530.67c-0.041-0.045-0.027-0.09-0.026-0.133c0.013-0.533,0.128-1.043,0.337-1.531
	c0.359-0.834,0.927-1.492,1.667-1.994c0.136-0.092,0.28-0.172,0.422-0.256c0.037-0.021,0.074-0.043,0.124-0.07
	c-0.027-0.053-0.049-0.096-0.072-0.137c-0.234-0.42-0.473-0.838-0.707-1.26c-0.02-0.033-0.039-0.064-0.054-0.104
	c-0.019-0.045-0.002-0.084,0.038-0.104c0.038-0.025,0.082-0.021,0.111,0.02c0.027,0.033,0.048,0.072,0.068,0.109
	c0.236,0.418,0.475,0.836,0.711,1.254c0.025,0.045,0.053,0.09,0.084,0.145c0.034-0.018,0.064-0.021,0.094-0.033
	c0.449-0.188,0.914-0.315,1.396-0.377c0.384-0.055,0.769-0.061,1.15-0.021c0.54,0.049,1.061,0.188,1.563,0.396
	c0.03,0.014,0.063,0.021,0.098,0.024c0.023-0.043,0.059-0.084,0.076-0.125c0.237-0.422,0.479-0.846,0.719-1.268
	c0.021-0.033,0.039-0.066,0.063-0.104c0.036-0.051,0.081-0.063,0.122-0.024c0.046,0.021,0.063,0.063,0.035,0.125
	c-0.021,0.035-0.04,0.072-0.063,0.104c-0.229,0.408-0.468,0.82-0.693,1.229c-0.021,0.041-0.047,0.084-0.068,0.125
	c0.028,0.051,0.076,0.063,0.116,0.082c0.444,0.242,0.853,0.541,1.202,0.912c0.572,0.602,0.963,1.307,1.142,2.127
	c0.056,0.248,0.078,0.5,0.095,0.754c0.002,0.033,0,0.063,0,0.104c-0.033,0.015-0.061,0.021-0.084,0.021
	c-0.039,0.004-0.076,0.002-0.113,0.002c-3.119,0-6.249,0-9.365,0C22.508,530.67,22.447,530.67,22.393,530.67z"/>
<path fill="#5BB1C4" d="M26.786,528.566c0.004,0.254,0.213,0.459,0.463,0.459c0.263,0.002,0.468-0.207,0.466-0.479
	c0.006-0.207-0.156-0.473-0.47-0.469C26.95,528.09,26.784,528.338,26.786,528.566z"/>
<path fill="#5BB1C4" d="M26.786,528.559c0,0.265,0.202,0.474,0.455,0.478c0.263,0.004,0.472-0.201,0.474-0.463
	c0.002-0.271-0.207-0.482-0.461-0.479C26.952,528.09,26.786,528.336,26.786,528.559z"/>
<path fill="#5BB1C4" d="M34.305,532.379c0-0.053,0.002-0.104-0.002-0.158c-0.021-0.373-0.164-0.688-0.455-0.918
	c-0.354-0.271-0.832-0.271-1.188-0.004c-0.178,0.137-0.301,0.313-0.379,0.525c-0.061,0.156-0.084,0.313-0.084,0.49
	c0.002,1.477,0.002,2.942,0.002,4.428c0,0.021-0.002,0.057,0,0.086c0.021,0.346,0.144,0.643,0.396,0.877
	c0.385,0.348,0.938,0.342,1.318-0.008c0.12-0.109,0.212-0.242,0.275-0.396c0.078-0.18,0.105-0.365,0.105-0.561
	c-0.001-0.734,0-1.479,0-2.211C34.305,533.814,34.305,533.098,34.305,532.379z"/>
<path fill="#5BB1C4" d="M22.305,534.531c0-0.729,0-1.447,0-2.172c0-0.063,0.004-0.113-0.002-0.17
	c-0.029-0.361-0.173-0.666-0.457-0.896c-0.367-0.285-0.854-0.271-1.208,0.021c-0.191,0.147-0.318,0.354-0.388,0.604
	c-0.039,0.146-0.052,0.281-0.052,0.436c0,1.443,0,2.896,0,4.354c0,0.033-0.002,0.064,0.001,0.102
	c0.015,0.328,0.118,0.619,0.35,0.854c0.39,0.395,0.979,0.408,1.385,0.027c0.107-0.105,0.195-0.229,0.262-0.371
	c0.08-0.185,0.115-0.359,0.113-0.563C22.305,536.016,22.305,535.271,22.305,534.531z"/>
<path fill="#226784" d="M32.173,571.449c0,2.418-0.002,4.84,0.002,7.26c0.001,0.426-0.209,0.701-0.541,0.908
	c-0.093,0.059-0.196,0.08-0.31,0.08c-0.313-0.004-0.629,0-0.942,0c-0.051,0-0.104,0-0.159,0c-0.009,0.033-0.017,0.061-0.018,0.086
	c-0.002,0.043-0.001,0.086-0.001,0.129c0,0.781-0.001,1.563,0.001,2.344c0,0.221-0.043,0.43-0.145,0.623
	c-0.084,0.16-0.194,0.291-0.34,0.396c-0.367,0.268-0.854,0.252-1.199-0.043c-0.228-0.188-0.354-0.42-0.4-0.703
	c-0.02-0.104-0.023-0.201-0.023-0.31c-0.004-0.776-0.002-1.563-0.002-2.354c0-0.052-0.003-0.104-0.006-0.166
	c-0.565,0-1.112,0-1.669,0c-0.006,0.022-0.014,0.055-0.017,0.08c-0.002,0.043,0,0.088,0,0.131c0,0.785,0,1.572,0,2.354
	c0,0.226-0.045,0.427-0.143,0.607c-0.074,0.146-0.176,0.271-0.305,0.373c-0.374,0.297-0.883,0.287-1.244-0.029
	c-0.22-0.188-0.348-0.436-0.395-0.727c-0.014-0.104-0.021-0.189-0.021-0.285c-0.001-0.777,0-1.555-0.001-2.332
	c0-0.055,0.008-0.113-0.011-0.176c-0.05-0.002-0.097-0.006-0.142-0.006c-0.313,0-0.629-0.016-0.941,0.002
	c-0.167,0.002-0.313-0.061-0.445-0.148c-0.132-0.098-0.236-0.217-0.318-0.354c-0.075-0.134-0.115-0.271-0.113-0.431
	c0.002-0.422,0-0.844,0-1.266c0-2.021,0-4.035,0-6.051c0-0.063,0-0.115,0-0.188c0.033-0.006,0.058-0.02,0.084-0.02
	c0.037-0.005,0.074-0.002,0.111-0.002c3.149,0,6.304,0,9.457,0c0.063,0,0.121-0.011,0.188,0.014c0.003,0.029,0.009,0.063,0.01,0.086
	C32.174,571.381,32.173,571.414,32.173,571.449z"/>
<path fill="#226784" d="M22.393,570.67c-0.041-0.045-0.027-0.09-0.026-0.133c0.013-0.531,0.128-1.043,0.337-1.531
	c0.359-0.834,0.927-1.49,1.667-1.994c0.136-0.092,0.28-0.172,0.422-0.256c0.037-0.021,0.074-0.043,0.124-0.07
	c-0.027-0.053-0.049-0.096-0.072-0.137c-0.234-0.42-0.473-0.838-0.707-1.26c-0.02-0.033-0.039-0.064-0.054-0.104
	c-0.019-0.045-0.002-0.084,0.038-0.104c0.038-0.025,0.082-0.021,0.111,0.02c0.027,0.033,0.048,0.072,0.068,0.109
	c0.236,0.418,0.475,0.836,0.711,1.254c0.025,0.045,0.053,0.09,0.084,0.145c0.034-0.018,0.064-0.021,0.094-0.033
	c0.449-0.188,0.914-0.315,1.396-0.377c0.384-0.057,0.769-0.061,1.15-0.021c0.54,0.051,1.061,0.188,1.563,0.396
	c0.03,0.014,0.063,0.021,0.098,0.026c0.023-0.045,0.059-0.086,0.076-0.125c0.237-0.424,0.479-0.846,0.719-1.27
	c0.021-0.031,0.039-0.064,0.063-0.104c0.036-0.049,0.081-0.063,0.122-0.022c0.046,0.021,0.063,0.063,0.035,0.123
	c-0.021,0.033-0.04,0.068-0.063,0.104c-0.229,0.412-0.468,0.822-0.693,1.232c-0.021,0.041-0.047,0.084-0.068,0.125
	c0.028,0.051,0.076,0.063,0.116,0.082c0.444,0.24,0.853,0.541,1.202,0.912c0.572,0.602,0.963,1.307,1.142,2.127
	c0.056,0.248,0.078,0.5,0.095,0.754c0.002,0.033,0,0.063,0,0.104c-0.033,0.016-0.061,0.021-0.084,0.021
	c-0.039,0.004-0.076,0.002-0.113,0.002c-3.119,0-6.249,0-9.365,0C22.508,570.67,22.447,570.67,22.393,570.67z"/>
<path fill="#226784" d="M26.786,568.566c0.004,0.254,0.213,0.459,0.463,0.459c0.263,0.002,0.468-0.207,0.466-0.479
	c0.006-0.207-0.156-0.473-0.47-0.469C26.95,568.09,26.784,568.338,26.786,568.566z"/>
<path fill="#226784" d="M26.786,568.559c0,0.265,0.202,0.474,0.455,0.478c0.263,0.004,0.472-0.201,0.474-0.467
	c0.002-0.267-0.207-0.479-0.461-0.479C26.952,568.09,26.786,568.336,26.786,568.559z"/>
<path fill="#226784" d="M34.305,572.379c0-0.053,0.002-0.104-0.002-0.158c-0.021-0.373-0.164-0.688-0.455-0.92
	c-0.354-0.271-0.832-0.271-1.188-0.002c-0.178,0.137-0.301,0.314-0.379,0.525c-0.061,0.156-0.084,0.313-0.084,0.49
	c0.002,1.477,0.002,2.942,0.002,4.428c0,0.021-0.002,0.057,0,0.086c0.021,0.344,0.144,0.643,0.396,0.875
	c0.385,0.35,0.938,0.344,1.318-0.006c0.12-0.111,0.212-0.242,0.275-0.396c0.078-0.18,0.105-0.367,0.105-0.561
	c-0.001-0.736,0-1.479,0-2.213C34.305,573.814,34.305,573.098,34.305,572.379z"/>
<path fill="#226784" d="M22.305,574.531c0-0.729,0-1.447,0-2.172c0-0.063,0.004-0.113-0.002-0.172
	c-0.029-0.361-0.173-0.664-0.457-0.896c-0.367-0.285-0.854-0.271-1.208,0.021c-0.191,0.152-0.318,0.354-0.388,0.604
	c-0.039,0.146-0.052,0.283-0.052,0.426c0,1.451,0,2.902,0,4.355c0,0.033-0.002,0.063,0.001,0.1c0.015,0.328,0.118,0.619,0.35,0.854
	c0.39,0.396,0.979,0.404,1.385,0.021c0.107-0.104,0.195-0.229,0.262-0.366c0.08-0.181,0.115-0.355,0.113-0.56
	C22.305,576.016,22.305,575.271,22.305,574.531z"/>
<g>
	<path fill="#5BB1C4" d="M32.816,616.271c-0.479-0.729-0.713-1.562-0.713-2.474c0-0.834,0.225-1.598,0.672-2.289
		c0.242-0.377,0.635-0.811,1.18-1.305c-0.359-0.474-0.717-0.84-1.076-1.104c-0.646-0.479-1.381-0.722-2.201-0.722
		c-0.488,0-1.086,0.125-1.787,0.375c-0.676,0.25-1.167,0.377-1.479,0.377c-0.234,0-0.709-0.104-1.428-0.332
		c-0.725-0.221-1.332-0.331-1.83-0.331c-1.186,0-2.162,0.53-2.936,1.6c-0.779,1.069-1.168,2.455-1.168,4.137
		c0,1.783,0.506,3.639,1.52,5.563c1.027,1.908,2.064,2.863,3.111,2.863c0.354,0,0.808-0.125,1.363-0.377
		c0.559-0.242,1.047-0.365,1.469-0.365c0.447,0,0.969,0.119,1.563,0.355c0.627,0.231,1.107,0.354,1.445,0.354
		c0.881,0,1.77-0.725,2.649-2.168c0.578-0.92,1.011-1.842,1.271-2.766C33.836,617.466,33.293,617.001,32.816,616.271z"/>
	<path fill="#5BB1C4" d="M29.301,607.724c0.436-0.465,0.756-0.973,0.963-1.521c0.199-0.553,0.299-1.063,0.299-1.504
		c0-0.029,0-0.064-0.004-0.111c-0.004-0.043-0.006-0.078-0.006-0.104c-0.008-0.021-0.016-0.063-0.025-0.121
		c-0.008-0.063-0.02-0.104-0.021-0.12c-1.213,0.305-2.069,0.85-2.584,1.639c-0.518,0.797-0.785,1.744-0.807,2.842
		c0.463-0.043,0.819-0.104,1.073-0.188C28.559,608.388,28.93,608.122,29.301,607.724z"/>
</g>
<path fill="#226784" d="M32.816,655.271c-0.479-0.729-0.713-1.56-0.713-2.474c0-0.832,0.225-1.596,0.672-2.289
	c0.242-0.377,0.635-0.811,1.18-1.305c-0.359-0.474-0.717-0.84-1.076-1.104c-0.646-0.479-1.381-0.722-2.201-0.722
	c-0.488,0-1.086,0.125-1.787,0.375c-0.676,0.25-1.167,0.377-1.479,0.377c-0.234,0-0.709-0.104-1.428-0.332
	c-0.725-0.223-1.332-0.331-1.83-0.331c-1.186,0-2.162,0.53-2.936,1.6c-0.779,1.069-1.168,2.455-1.168,4.137
	c0,1.783,0.506,3.639,1.52,5.563c1.027,1.908,2.064,2.863,3.111,2.863c0.354,0,0.808-0.125,1.363-0.377
	c0.559-0.242,1.047-0.365,1.469-0.365c0.447,0,0.969,0.119,1.563,0.355c0.627,0.231,1.107,0.354,1.445,0.354
	c0.881,0,1.77-0.725,2.649-2.168c0.578-0.92,1.011-1.842,1.271-2.766C33.836,656.466,33.293,656.001,32.816,655.271z"/>
<path fill="#226784" d="M29.337,646.724c0.437-0.465,0.757-0.973,0.963-1.521c0.199-0.553,0.3-1.063,0.3-1.504
	c0-0.029,0-0.064-0.004-0.109c-0.005-0.045-0.007-0.08-0.007-0.104c-0.008-0.021-0.017-0.063-0.024-0.119
	c-0.008-0.063-0.021-0.104-0.021-0.12c-1.213,0.305-2.073,0.85-2.584,1.639c-0.518,0.795-0.785,1.742-0.807,2.842
	c0.463-0.045,0.826-0.104,1.08-0.188C28.596,647.388,28.966,647.122,29.337,646.724z"/>
<path fill="#226784" d="M22.89,727.324l-2.519-4.361c1.612-2.02,4.095-3.313,6.88-3.313c3.224,0,6.039,1.729,7.571,4.313h-7.181
	c-0.127-0.014-0.261-0.02-0.393-0.02C25.157,723.945,23.392,725.383,22.89,727.324z M30.4,725.234h5.045
	c0.392,0.996,0.604,2.08,0.604,3.215c0,4.828-3.887,8.746-8.699,8.799l3.6-6.232c0.507-0.729,0.805-1.604,0.805-2.563
	C31.755,727.191,31.236,726.053,30.4,725.234z M24.054,728.449c0-1.771,1.436-3.197,3.197-3.197c1.765,0,3.196,1.434,3.196,3.197
	c0,1.763-1.434,3.197-3.196,3.197C25.489,731.646,24.054,730.213,24.054,728.449z M28.458,732.787l-2.52,4.365
	c-4.238-0.644-7.488-4.291-7.488-8.705c0-1.566,0.41-3.039,1.129-4.314l3.593,6.229c0.72,1.521,2.276,2.594,4.079,2.594
	C27.669,732.951,28.072,732.895,28.458,732.787z"/>
<g>
	<path fill="#8F8E89" d="M27.25,1249.484c1.104,0,2,0.895,2,2c0,1.104-0.896,2-2,2c-1.104,0-2-0.896-2-2
		C25.25,1250.379,26.145,1249.484,27.25,1249.484z"/>
	<path fill="#8F8E89" d="M27.25,1255.484c1.104,0,2,0.896,2,2s-0.896,2-2,2c-1.104,0-2-0.896-2-2S26.145,1255.484,27.25,1255.484z"
		/>
	<path fill="#8F8E89" d="M27.25,1261.484c1.104,0,2,0.896,2,2s-0.896,2-2,2c-1.104,0-2-0.896-2-2S26.145,1261.484,27.25,1261.484z"
		/>
	<path fill="#3D3C38" d="M27.25,1286.484c1.104,0,2,0.896,2,2s-0.896,2-2,2c-1.104,0-2-0.896-2-2S26.145,1286.484,27.25,1286.484z"
		/>
	<path fill="#3D3C38" d="M27.25,1292.484c1.104,0,2,0.896,2,2s-0.896,2-2,2c-1.104,0-2-0.896-2-2S26.145,1292.484,27.25,1292.484z"
		/>
	<path fill="#3D3C38" d="M27.25,1298.484c1.104,0,2,0.896,2,2s-0.896,2-2,2c-1.104,0-2-0.896-2-2S26.145,1298.484,27.25,1298.484z"
		/>
</g>
<g>
	<path fill="#FFFFFF" d="M23.768,464.582c0.643-0.66,0.643-1.73,0-2.391c-0.639-0.66-1.676-0.66-2.314,0L2.729,481.502
		c-0.641,0.66-0.641,1.73,0,2.393l18.725,19.313c0.639,0.66,1.676,0.66,2.314,0c0.64-0.66,0.641-1.729,0-2.391L6.693,482.699
		L23.768,464.582z"/>
	<path fill="#FFFFFF" d="M30.732,464.553c-0.646-0.66-0.646-1.729,0-2.393c0.639-0.66,1.678-0.66,2.313,0l18.727,19.326
		c0.646,0.66,0.646,1.729,0,2.391l-18.727,19.326c-0.639,0.66-1.676,0.662-2.313,0c-0.646-0.66-0.646-1.73-0.002-2.396
		l17.076-18.129L30.732,464.553z"/>
</g>
<path fill="#FFFFFF" d="M31.104,1125.164l-3.854,3.406l-3.858-3.406c-0.262-0.23-0.685-0.23-0.945,0c-0.26,0.229-0.26,0.604,0,0.832
	l4.332,3.822c0.134,0.108,0.306,0.174,0.477,0.172c0.172,0,0.344-0.063,0.479-0.172l4.332-3.822c0.264-0.229,0.264-0.604,0-0.832
	C31.789,1124.934,31.366,1124.934,31.104,1125.164z"/>
<g>
	<path fill="#7E7D74" d="M31.105,954.271l-3.857,3.398l-3.859-3.398c-0.262-0.23-0.685-0.23-0.945,0c-0.26,0.229-0.26,0.604,0,0.824
		l4.332,3.821c0.134,0.117,0.306,0.174,0.477,0.173c0.172,0,0.344-0.058,0.479-0.173l4.329-3.821c0.267-0.229,0.267-0.604,0-0.824
		C31.791,954.041,31.368,954.041,31.105,954.271z"/>
	<path fill="#7E7D74" d="M23.395,983.928l3.857-3.406l3.859,3.406c0.262,0.23,0.685,0.23,0.943,0c0.262-0.229,0.262-0.604,0-0.833
		l-4.333-3.813c-0.134-0.117-0.306-0.183-0.477-0.182c-0.172,0-0.346,0.063-0.479,0.182l-4.328,3.813
		c-0.262,0.229-0.262,0.604,0,0.833C22.71,984.158,23.132,984.158,23.395,983.928z"/>
</g>
<g>
	<circle fill="#F3F3F0" stroke="#D6D6CF" stroke-miterlimit="10" cx="27.25" cy="172.746" r="15"/>
	<path fill="#8F8E89" d="M30.172,166.789c-0.715-0.725-1.875-0.725-2.59,0l-5.872,5.957l5.872,5.957
		c0.357,0.361,0.826,0.544,1.296,0.544c0.468,0,0.937-0.183,1.294-0.544c0.715-0.727,0.715-1.901,0-2.627l-3.281-3.329l3.281-3.331
		C30.887,168.689,30.887,167.515,30.172,166.789z"/>
</g>
<g>
	<circle fill="#F3F3F0" stroke="#D6D6CF" stroke-miterlimit="10" cx="27.25" cy="223.215" r="15"/>
	<path fill="#8F8E89" d="M24.328,229.172c0.715,0.725,1.875,0.725,2.59,0l5.873-5.957l-5.873-5.957
		c-0.357-0.362-0.826-0.545-1.295-0.545c-0.469,0-0.938,0.183-1.295,0.545c-0.715,0.726-0.715,1.9,0,2.626l3.283,3.329l-3.283,3.332
		C23.613,227.271,23.613,228.447,24.328,229.172z"/>
</g>
<g>
	<circle fill="#F7F6EF" stroke="#8F8E89" stroke-miterlimit="10" cx="27.25" cy="274.5" r="15"/>
	<path fill="#636158" d="M30.172,268.543c-0.714-0.725-1.875-0.725-2.589,0L21.71,274.5l5.873,5.957
		c0.356,0.361,0.826,0.544,1.295,0.544c0.47,0,0.938-0.183,1.294-0.544c0.717-0.727,0.717-1.901,0-2.626l-3.281-3.33l3.281-3.331
		C30.889,270.443,30.889,269.268,30.172,268.543z"/>
</g>
<g>
	<circle fill="#F7F6EF" stroke="#8F8E89" stroke-miterlimit="10" cx="27.25" cy="324.5" r="15"/>
	<path fill="#636158" d="M24.329,330.457c0.714,0.725,1.875,0.725,2.589,0l5.873-5.957l-5.873-5.957
		c-0.357-0.362-0.826-0.544-1.295-0.544c-0.469,0-0.938,0.182-1.294,0.544c-0.715,0.727-0.715,1.9,0,2.626l3.282,3.33l-3.282,3.331
		C23.613,328.556,23.613,329.73,24.329,330.457z"/>
</g>
<g>
	<circle fill="#F3F3F0" stroke="#D6D6CF" stroke-miterlimit="10" cx="27.25" cy="375.177" r="15"/>
	<path fill="#8F8E89" d="M30.172,369.22c-0.715-0.725-1.875-0.725-2.59,0l-5.872,5.957l5.872,5.957
		c0.357,0.361,0.826,0.544,1.296,0.544c0.468,0,0.937-0.183,1.294-0.544c0.715-0.727,0.715-1.9,0-2.626l-3.281-3.33l3.281-3.331
		C30.887,371.12,30.887,369.944,30.172,369.22z"/>
</g>
<g>
	<circle fill="#F3F3F0" stroke="#D6D6CF" stroke-miterlimit="10" cx="27.25" cy="426.215" r="15"/>
	<path fill="#8F8E89" d="M24.328,432.172c0.715,0.729,1.875,0.729,2.59,0l5.873-5.957l-5.873-5.957
		c-0.357-0.354-0.826-0.544-1.295-0.544c-0.469,0-0.938,0.188-1.295,0.544c-0.715,0.729-0.715,1.9,0,2.626l3.283,3.33l-3.283,3.331
		C23.613,430.271,23.613,431.445,24.328,432.172z"/>
</g>
<g>
	<circle fill="#F7F6EF" stroke="#8F8D88" stroke-miterlimit="10" cx="27.25" cy="113.538" r="24"/>
	<path fill="#636158" d="M33.664,115.297c-0.781,0.786-2.046,0.786-2.828,0l-1.586-1.596v7.285c0,1.112-0.896,2.012-2,2.012
		c-1.104,0-2-0.9-2-2.012v-7.285l-1.586,1.596c-0.781,0.786-2.047,0.786-2.828,0c-0.781-0.786-0.781-2.059,0-2.845L27.25,106
		l6.414,6.452C34.445,113.238,34.445,114.511,33.664,115.297z"/>
</g>
<g>
	<g>
		<circle fill="#F3F3F0" stroke="#D6D6CF" stroke-miterlimit="10" cx="27.25" cy="1161.538" r="15"/>
		<path fill="#8F8D88" d="M33.046,1165.605l-3.618-3.62l3.618-3.621c0.259-0.259,0.259-0.679,0-0.938l-1.246-1.245
			c-0.258-0.26-0.677-0.26-0.934,0l-3.62,3.62l-3.617-3.62c-0.258-0.26-0.676-0.26-0.936,0l-1.242,1.245
			c-0.258,0.262-0.258,0.685,0,0.938l3.617,3.621l-3.617,3.62c-0.258,0.259-0.258,0.677,0,0.937l1.244,1.247
			c0.259,0.256,0.677,0.256,0.935,0l3.617-3.622l3.62,3.622c0.257,0.256,0.676,0.256,0.936,0l1.245-1.247
			C33.305,1166.282,33.305,1165.864,33.046,1165.605z"/>
	</g>
	<circle fill="#F8F6EF" stroke="#8F8C87" stroke-miterlimit="10" cx="27.25" cy="1212.484" r="15"/>
	<path fill="#8F8D88" d="M33.047,1216.553l-3.619-3.621l3.619-3.621c0.26-0.258,0.26-0.678,0-0.935l-1.246-1.245
		c-0.258-0.26-0.677-0.26-0.934,0l-3.62,3.62l-3.617-3.62c-0.258-0.26-0.676-0.26-0.937,0l-1.241,1.245
		c-0.259,0.259-0.259,0.677,0,0.935l3.616,3.621l-3.616,3.621c-0.259,0.258-0.259,0.676,0,0.938l1.243,1.247
		c0.26,0.256,0.678,0.256,0.936,0l3.617-3.622l3.62,3.622c0.257,0.256,0.676,0.256,0.935,0l1.246-1.247
		C33.307,1217.229,33.307,1216.811,33.047,1216.553z"/>
</g>
<path fill="#3D3C38" d="M23.303,1371.539c0.711,0.727,1.867,0.727,2.58,0l5.852-5.957l-5.852-5.957
	c-0.357-0.361-0.824-0.543-1.291-0.543c-0.467,0-0.938,0.182-1.291,0.543c-0.713,0.727-0.713,1.902,0,2.627l3.27,3.33l-3.27,3.33
	C22.59,1369.638,22.59,1370.814,23.303,1371.539z"/>
<path fill="#3D3C38" d="M31.197,1324.957c-0.711-0.725-1.866-0.725-2.579,0l-5.854,5.957l5.854,5.957
	c0.354,0.363,0.821,0.545,1.291,0.545c0.467,0,0.937-0.182,1.291-0.545c0.713-0.725,0.713-1.9,0-2.625l-3.271-3.33l3.271-3.33
	C31.911,1326.859,31.911,1325.683,31.197,1324.957z"/>
<path fill="#636158" d="M30.91,867.542c0.832-1.1,1.332-2.465,1.332-3.949c0.002-3.6-2.914-6.521-6.494-6.521
	c-3.582,0-6.498,2.932-6.498,6.521c0,3.604,2.916,6.531,6.498,6.531c1.52,0,2.914-0.531,4.02-1.412l4.328,4.354l1.154-1.16
	L30.91,867.542z M25.748,868.653c-2.777,0-5.035-2.271-5.035-5.063s2.258-5.063,5.035-5.063c2.775,0,5.033,2.271,5.033,5.063
	S28.523,868.653,25.748,868.653z"/>
<g>
	<circle fill="none" stroke="#8F8E89" stroke-miterlimit="10" cx="27.25" cy="772.994" r="15"/>
	<path fill="#8F8E89" d="M27.805,769.252c0.73,0,1.354-0.256,1.869-0.766c0.518-0.519,0.775-1.127,0.775-1.854
		c0-0.723-0.258-1.34-0.775-1.852c-0.516-0.511-1.139-0.771-1.869-0.771c-0.729,0-1.354,0.256-1.873,0.771
		c-0.516,0.512-0.771,1.129-0.771,1.852c0,0.729,0.258,1.341,0.771,1.854C26.447,768.996,27.072,769.252,27.805,769.252z
		 M30.377,769.855c0.359,0,0.678,0.073,0.953,0.239c0.277,0.166,0.475,0.332,0.594,0.498l0.145,0.25l3.896,5.308
		c0.188,0.262,0.289,0.545,0.289,0.854c0,0.402-0.146,0.754-0.45,1.049c-0.3,0.297-0.646,0.445-1.064,0.445
		c-0.188,0-0.385-0.035-0.57-0.107l-2.346-0.676v2.313h-8.129v-2.313l-2.34,0.676c-0.191,0.072-0.385,0.107-0.576,0.107
		c-0.408,0-0.762-0.148-1.063-0.445c-0.299-0.295-0.449-0.646-0.449-1.049c0-0.309,0.096-0.594,0.287-0.854l3.889-5.308
		c0.021-0.063,0.076-0.166,0.16-0.276c0.084-0.119,0.271-0.271,0.559-0.443c0.289-0.178,0.613-0.271,0.975-0.271L30.377,769.855
		L30.377,769.855z M27.75,778.428l3.023-0.996h-0.037c-0.408-0.119-0.719-0.313-0.938-0.588c-0.217-0.271-0.315-0.551-0.307-0.836
		c0.012-0.283,0.09-0.559,0.231-0.813c0.146-0.271,0.379-0.439,0.697-0.535c0.322-0.094,0.688-0.094,1.104,0l0.287,0.104v-3.094
		l-4.063,1.314l-4.064-1.314v3.094l0.287-0.104c0.406-0.096,0.771-0.096,1.098,0c0.324,0.096,0.559,0.271,0.703,0.533
		c0.143,0.26,0.221,0.524,0.23,0.813c0.016,0.283-0.09,0.563-0.305,0.836c-0.219,0.271-0.518,0.476-0.9,0.586h-0.07L27.75,778.428z"
		/>
</g>
<g>
	<circle fill="none" stroke="#FFFFFF" stroke-miterlimit="10" cx="27.25" cy="823.794" r="15"/>
	<path fill="#FFFFFF" d="M27.305,820.052c0.729,0,1.354-0.256,1.87-0.766c0.517-0.51,0.772-1.127,0.772-1.854
		c0-0.723-0.258-1.34-0.772-1.851c-0.514-0.51-1.141-0.765-1.87-0.765s-1.354,0.255-1.871,0.765
		c-0.517,0.511-0.772,1.128-0.772,1.851c0,0.729,0.258,1.349,0.772,1.854C25.948,819.792,26.57,820.052,27.305,820.052z
		 M29.876,820.655c0.358,0,0.679,0.083,0.953,0.249c0.276,0.166,0.476,0.332,0.596,0.498l0.144,0.249l3.896,5.299
		c0.188,0.262,0.287,0.546,0.287,0.854c0,0.403-0.146,0.755-0.449,1.058c-0.299,0.298-0.646,0.438-1.063,0.438
		c-0.188,0-0.385-0.035-0.57-0.104l-2.345-0.686v2.313h-8.131v-2.313l-2.338,0.686c-0.193,0.063-0.386,0.104-0.576,0.104
		c-0.408,0-0.763-0.146-1.063-0.438c-0.299-0.303-0.449-0.646-0.449-1.058c0-0.309,0.098-0.593,0.287-0.854l3.889-5.299
		c0.021-0.071,0.078-0.166,0.162-0.285c0.084-0.118,0.271-0.271,0.559-0.443c0.287-0.178,0.611-0.268,0.973-0.268H29.876
		L29.876,820.655z M27.249,829.229l3.022-0.988h-0.037c-0.405-0.119-0.719-0.314-0.938-0.596c-0.215-0.271-0.315-0.552-0.305-0.837
		c0.012-0.274,0.09-0.558,0.229-0.813c0.146-0.262,0.377-0.439,0.695-0.534c0.324-0.095,0.688-0.095,1.104,0l0.287,0.106v-3.103
		l-4.063,1.315l-4.065-1.315v3.103l0.289-0.105c0.405-0.095,0.772-0.095,1.098,0c0.324,0.097,0.558,0.271,0.701,0.534
		c0.146,0.26,0.224,0.533,0.233,0.817c0.013,0.274-0.09,0.563-0.308,0.836c-0.217,0.271-0.516,0.468-0.899,0.587h-0.069
		L27.249,829.229z"/>
</g>
<path fill="#226784" d="M29.078,1005.999c-0.172,0-0.346,0.067-0.477,0.205l-3.659,3.8c-0.128,0.131-0.198,0.313-0.198,0.495
	s0.07,0.364,0.197,0.495l3.66,3.8c0.262,0.272,0.688,0.272,0.943,0c0.271-0.271,0.271-0.716,0-0.989l-3.178-3.306l3.178-3.306
	c0.271-0.272,0.271-0.724,0-0.989C29.422,1006.066,29.25,1005.999,29.078,1005.999z"/>
<path fill="#226784" d="M25.422,1036.999c0.172,0,0.346,0.067,0.477,0.205l3.654,3.8c0.127,0.131,0.197,0.309,0.197,0.495
	s-0.07,0.364-0.197,0.495l-3.654,3.8c-0.263,0.272-0.688,0.272-0.949,0c-0.266-0.271-0.266-0.716,0-0.989l3.178-3.306l-3.178-3.306
	c-0.266-0.272-0.266-0.715,0-0.989C25.077,1037.066,25.25,1036.999,25.422,1036.999z"/>
<path fill="#226784" d="M31.75,1073.328c0-0.172-0.068-0.346-0.205-0.479l-3.8-3.646c-0.132-0.128-0.31-0.198-0.495-0.198
	s-0.363,0.07-0.495,0.197l-3.8,3.649c-0.273,0.268-0.273,0.688,0,0.947c0.273,0.271,0.716,0.271,0.99,0l3.305-3.178l3.305,3.178
	c0.273,0.271,0.717,0.271,0.99,0C31.682,1073.672,31.75,1073.5,31.75,1073.328z"/>
<path fill="#226784" d="M31.766,1097.23c0,0.172-0.063,0.344-0.207,0.477l-3.813,3.653c-0.131,0.128-0.313,0.189-0.497,0.189
	s-0.364-0.063-0.497-0.188l-3.813-3.654c-0.273-0.263-0.273-0.688,0-0.951c0.272-0.264,0.72-0.264,0.992,0l3.315,3.178l3.314-3.178
	c0.271-0.264,0.721-0.264,0.994,0C31.695,1096.887,31.766,1097.059,31.766,1097.23z"/>
<path fill="#8F8D88" d="M32.961,1393.798l-0.578-0.535c-0.199-0.176-0.434-0.264-0.699-0.264c-0.271,0-0.504,0.088-0.688,0.264
	l-3.743,3.465l-3.743-3.465c-0.188-0.176-0.421-0.264-0.69-0.264s-0.502,0.088-0.701,0.264l-0.57,0.535
	c-0.195,0.182-0.293,0.396-0.293,0.648c0,0.258,0.098,0.471,0.293,0.643l5.014,4.639c0.188,0.188,0.416,0.271,0.693,0.271
	c0.271,0,0.506-0.09,0.701-0.271l5.016-4.639c0.188-0.176,0.283-0.391,0.283-0.643C33.246,1394.201,33.15,1393.984,32.961,1393.798z
	"/>
<path fill="#3D3C38" d="M32.961,1427.201l-0.578,0.535c-0.199,0.176-0.434,0.264-0.699,0.264c-0.271,0-0.504-0.088-0.688-0.264
	l-3.743-3.465l-3.743,3.465c-0.188,0.176-0.421,0.264-0.69,0.264s-0.502-0.088-0.701-0.264l-0.57-0.535
	c-0.195-0.182-0.293-0.396-0.293-0.648c0-0.256,0.098-0.471,0.293-0.641l5.014-4.641c0.188-0.186,0.416-0.271,0.693-0.271
	c0.271,0,0.506,0.092,0.701,0.271l5.016,4.641c0.188,0.176,0.283,0.389,0.283,0.641C33.246,1426.8,33.15,1427.015,32.961,1427.201z"
	/>
<path fill="#FFFFFF" d="M11.75,1463.5c0,8.547,6.953,15.5,15.5,15.5s15.5-6.953,15.5-15.5s-6.953-15.5-15.5-15.5
	S11.75,1454.953,11.75,1463.5z M12.99,1463.5c0-7.863,6.396-14.26,14.26-14.26c7.863,0,14.26,6.396,14.26,14.26
	c0,7.865-6.396,14.26-14.26,14.26C19.386,1477.759,12.99,1471.363,12.99,1463.5z"/>
<path fill="#FFFFFF" d="M35.035,1462.738c0-0.004,0.001-0.006,0-0.01c-0.001-0.014-0.008-0.02-0.012-0.021
	c-0.006-0.021-0.021-0.043-0.024-0.061s-0.017-0.021-0.024-0.031c-0.014-0.02-0.022-0.023-0.043-0.035
	c-0.009-0.004-0.015-0.014-0.021-0.021l-0.879-0.42l0.59-0.563c0.05-0.047,0.073-0.115,0.067-0.188l-0.215-2.664
	c-0.011-0.025-0.017-0.035-0.02-0.043c-0.006-0.021-0.02-0.043-0.021-0.063c-0.012-0.021-0.021-0.021-0.021-0.031
	c-0.018-0.012-0.025-0.021-0.042-0.033c-0.013-0.008-0.019-0.016-0.021-0.021L26.96,1455c0,0-0.192-0.021-0.263,0.049l-7.385,7.775
	c-0.023,0.031-0.039,0.055-0.047,0.082c-0.017,0.043-0.021,0.074-0.016,0.104l0.296,2.283c0.011,0.076,0.058,0.143,0.126,0.178
	l1.031,0.506l-0.826,0.869c-0.003,0.002-0.003,0.006-0.006,0.012c-0.02,0.021-0.032,0.055-0.042,0.07
	c-0.001,0.004-0.005,0.01-0.009,0.014c-0.008,0.029-0.01,0.064-0.006,0.105l0.295,2.279c0.012,0.066,0.059,0.145,0.127,0.18
	l7.089,3.479c0.002,0,0.005,0,0.007,0c0.027,0.018,0.061,0.021,0.092,0.021l0,0c0.006,0,0.01,0,0.014,0
	c0.011,0,0.02-0.006,0.026-0.01c0.019-0.01,0.035-0.012,0.052-0.021c0.014-0.006,0.023-0.018,0.036-0.02
	c0.011-0.008,0.021-0.018,0.028-0.021l7.603-7.338c0.049-0.047,0.073-0.115,0.067-0.188l-0.216-2.662
	C35.038,1462.746,35.036,1462.744,35.035,1462.738z M27.167,1456.32l5.429,2.566l-1.443,1.453l-5.384-2.52L27.167,1456.32z
	 M19.981,1465.115l-0.229-1.746l6.768,3.188l0.094,1.814L19.981,1465.115z M20.547,1469.138l-0.227-1.746l6.765,3.191l0.095,1.811
	L20.547,1469.138z M27.063,1468.234l-0.09-1.736l7.087-7.238l0.166,2.064L27.063,1468.234z M27.627,1472.259l-0.09-1.73l7.087-7.236
	l0.167,2.057L27.627,1472.259z"/>
<path fill="none" stroke="#C4C2BA" stroke-miterlimit="10" d="M20.25,1519h14c1.657,0,3,1.344,3,3v14c0,1.658-1.343,3-3,3h-14
	c-1.657,0-3-1.342-3-3v-14C17.25,1520.343,18.593,1519,20.25,1519z"/>
<path fill="none" stroke="#03A678" stroke-miterlimit="10" d="M20.25,1560h14c1.657,0,3,1.344,3,3v14c0,1.658-1.343,3-3,3h-14
	c-1.657,0-3-1.342-3-3v-14C17.25,1561.343,18.593,1560,20.25,1560z"/>
<path fill="#03A678" stroke="#03A678" stroke-miterlimit="10" d="M20.25,1601h14c1.657,0,3,1.344,3,3v14c0,1.658-1.343,3-3,3h-14
	c-1.657,0-3-1.342-3-3v-14C17.25,1602.343,18.593,1601,20.25,1601z"/>
<path fill="#FFFFFF" d="M31.199,1607l-5.529,5.168l-2.37-2.217l-2.05,1.918l2.37,2.217l2.05,1.916l2.051-1.916l5.529-5.168
	L31.199,1607z"/>
<path fill="none" stroke="#C4C2BA" stroke-miterlimit="10" d="M27.25,1641c4.418,0,8,3.582,8,8s-3.582,8-8,8s-8-3.582-8-8
	S22.832,1641,27.25,1641z"/>
<path fill="none" stroke="#5AB1C3" stroke-miterlimit="10" d="M27.25,1678c4.418,0,8,3.582,8,8s-3.582,8-8,8s-8-3.582-8-8
	S22.832,1678,27.25,1678z"/>
<path fill="none" stroke="#636158" stroke-miterlimit="10" d="M27.25,1715c4.418,0,8,3.582,8,8s-3.582,8-8,8s-8-3.582-8-8
	S22.832,1715,27.25,1715z"/>
<path fill="#636158" d="M27.25,1719c2.209,0,4,1.791,4,4s-1.791,4-4,4s-4-1.791-4-4C23.251,1720.791,25.041,1719,27.25,1719z"/>
<path fill="#8F8E89" d="M27.251,1749.119c-2.759,0-4.996,1.961-4.996,4.381c0,1.238,1.375,3.457,1.375,3.457l3.437,5.146
	l3.585-5.088c0,0,1.594-2.115,1.594-3.516C32.244,1751.08,30.009,1749.119,27.251,1749.119z M27.229,1755.914
	c-1.58,0-2.859-1.129-2.859-2.527c0-1.393,1.279-2.52,2.859-2.52c1.578,0,2.858,1.129,2.858,2.52
	C30.087,1754.785,28.807,1755.914,27.229,1755.914z"/>
<path fill="#8F8E89" d="M27.279,1792.408l5.966-2.83v-1.471h-11.99v1.465L27.279,1792.408z"/>
<path fill="#8F8E89" d="M27.282,1794.068l-6.027-2.84v5.887h11.99v-5.877L27.282,1794.068z"/>
<path fill="#8F8E89" d="M31.418,1831.597c-0.695-0.609-1.402-0.979-2.091-0.369l-0.41,0.367c-0.3,0.27-0.858,1.521-3.019-1.029
	c-2.16-2.549-0.875-2.945-0.574-3.209l0.412-0.369c0.685-0.611,0.427-1.383-0.066-2.176l-0.298-0.479
	c-0.496-0.791-1.036-1.314-1.722-0.701l-0.371,0.334c-0.303,0.227-1.149,0.963-1.355,2.361c-0.248,1.682,0.533,3.604,2.321,5.715
	c1.786,2.105,3.534,3.172,5.19,3.146c1.377-0.016,2.209-0.77,2.469-1.049l0.371-0.334c0.685-0.604,0.26-1.229-0.438-1.844
	L31.418,1831.597z"/>
<path fill="#8F8E89" d="M24.37,1861.111c-0.067,0-0.127,0.027-0.178,0.084c-0.052,0.055-0.076,0.125-0.076,0.207v4.559h-1.84
	c-0.144,0-0.267,0.055-0.368,0.166c-0.101,0.111-0.152,0.25-0.152,0.416v4.561c0,0.166,0.053,0.314,0.159,0.436
	c0.106,0.119,0.226,0.166,0.361,0.139c0.151-0.037,0.296,0.02,0.432,0.168c0.136,0.146,0.239,0.314,0.312,0.504
	c0.072,0.189,0.154,0.34,0.246,0.451c0.094,0.109,0.183,0.119,0.268,0.027v-1.15h0.583v1.15c0,0.072,0.024,0.141,0.076,0.201
	c0.051,0.059,0.11,0.09,0.178,0.09h5.76c0.068,0,0.128-0.031,0.18-0.09c0.051-0.064,0.076-0.127,0.076-0.201v-1.15h0.607v1.15
	c0.15-0.021,0.277-0.094,0.38-0.23c0.103-0.129,0.174-0.266,0.217-0.4c0.041-0.146,0.115-0.271,0.222-0.375
	c0.105-0.105,0.244-0.154,0.414-0.146c0.135,0.02,0.256-0.031,0.36-0.145c0.104-0.117,0.158-0.264,0.158-0.428v-4.561
	c0-0.166-0.052-0.305-0.152-0.416c-0.1-0.109-0.224-0.168-0.366-0.168h-1.84v-4.557c0-0.084-0.025-0.154-0.076-0.209
	c-0.052-0.055-0.107-0.082-0.18-0.082H24.37L24.37,1861.111z M24.712,1861.886h5.075v5.543h-5.075V1861.886z M31.449,1867.25
	c0.127,0,0.234,0.049,0.324,0.146c0.088,0.098,0.133,0.215,0.133,0.354c0,0.137-0.045,0.256-0.133,0.354
	c-0.09,0.104-0.197,0.146-0.324,0.146s-0.234-0.049-0.323-0.146c-0.089-0.096-0.133-0.217-0.133-0.354
	c0-0.139,0.044-0.256,0.133-0.354S31.322,1867.25,31.449,1867.25z M24.712,1870.478h5.075v1.939h-5.075V1870.478z"/>
<path fill="#5BB1C4" d="M27.25,1963.195c-2.886,0-5.293-1.053-5.864-2.453c-0.085,0.207-0.13,0.42-0.13,0.641
	c0,1.707,2.683,3.094,5.994,3.094c3.311,0,5.994-1.387,5.994-3.094c0-0.219-0.047-0.434-0.131-0.641
	C32.542,1962.144,30.135,1963.195,27.25,1963.195z"/>
<path fill="#5BB1C4" d="M27.25,1965.417c-2.886,0-5.293-1.053-5.864-2.453c-0.085,0.207-0.13,0.42-0.13,0.641
	c0,1.707,2.684,3.092,5.994,3.092c3.311,0,5.994-1.383,5.994-3.092c0-0.221-0.047-0.434-0.131-0.641
	C32.542,1964.367,30.135,1965.417,27.25,1965.417z"/>
<path fill="#5BB1C4" d="M27.25,1967.71c-2.886,0-5.293-1.051-5.864-2.453c-0.085,0.207-0.13,0.422-0.13,0.641
	c0,1.707,2.684,3.094,5.994,3.094c3.311,0,5.994-1.387,5.994-3.094c0-0.219-0.047-0.434-0.131-0.641
	C32.542,1966.66,30.135,1967.71,27.25,1967.71z"/>
<path fill="#5BB1C4" d="M27.25,1956.009c3.311,0,5.994,1.387,5.994,3.094c0,1.709-2.684,3.094-5.994,3.094
	c-3.31,0-5.994-1.385-5.994-3.094C21.256,1957.396,23.939,1956.009,27.25,1956.009z"/>
<path fill="#5BB1C4" d="M32.82,2016.154c-0.189-0.301-0.473-0.51-0.791-0.627l-2.156-0.928l-0.883-0.76l-1.752,1.52l-1.712-1.531
	l-1,0.799l-2.081,0.908c-0.307,0.121-0.581,0.328-0.765,0.619l-2.42,3.84h15.98L32.82,2016.154z M27.227,2019.804l-0.906-2.906
	l0.906-0.859l0.907,0.859L27.227,2019.804z"/>
<path fill="#5BB1C4" d="M23.238,2008.955c0,0,0.001,0.006,0.002,0.018c0.008,0.066,0.019,0.131,0.031,0.189
	c0.093,0.531,0.385,1.939,0.91,2.188c-0.157-0.451-0.226-0.994,0.017-1.545c1.402-0.266,3.805-2.836,3.641-2.662
	c0,0,1.298,1.754,2.3,2.369c0.424,0.65,0.361,1.307,0.176,1.838c0.5-0.229,0.789-1.52,0.896-2.104
	c0.044-0.166,0.066-0.377,0.066-0.646c-0.006-2.301-1.572-3.645-4.182-3.594c-2.511,0.055-3.897,1.373-3.872,3.686
	C23.225,2008.787,23.23,2008.873,23.238,2008.955L23.238,2008.955z"/>
<path fill="#5BB1C4" d="M30.613,2154.222c-0.926,0-1.787,0.293-2.514,0.789c0.104-0.658,0.08-1.27-0.184-1.648
	c-0.87-1.273-2.326,1.492-2.995,1.213c-0.669-0.283-2.094-1.764-3.039-1.158c-0.817,0.52,0.513,4.02,1.156,4.523
	c0,0,1.037,0.264,2.055,0.264c0.38,0,0.71-0.021,0.976-0.049c-0.05,0.26-0.075,0.525-0.084,0.801
	c-0.309,0.025-0.624,0.049-0.945,0.049c-0.801,0-1.572-0.092-2.294-0.26c-1.27,1.084-3.494,4.941-3.494,6.625
	c0,3.031,2.523,4.643,5.638,4.643c3.113,0,5.633-1.604,5.633-4.643c0-0.365-0.102-0.834-0.268-1.359
	c0.115,0.012,0.23,0.021,0.348,0.021c2.559,0,4.637-2.199,4.637-4.902C35.246,2156.421,33.168,2154.222,30.613,2154.222z
	 M26.655,2166.314c-0.064,0.146-0.153,0.275-0.266,0.389c-0.113,0.109-0.248,0.199-0.404,0.27c-0.156,0.068-0.324,0.109-0.506,0.121
	v0.406H24.63v-0.527c-0.045-0.02-0.088-0.041-0.13-0.061c-0.043-0.02-0.084-0.039-0.125-0.061v0.195h-0.849v-1.348h0.849
	c0.073,0.086,0.144,0.154,0.216,0.223c0.071,0.063,0.143,0.115,0.218,0.152c0.074,0.043,0.158,0.066,0.248,0.09
	c0.091,0.02,0.196,0.029,0.313,0.029c0.153,0,0.281-0.033,0.381-0.105c0.102-0.063,0.152-0.152,0.152-0.262
	c0-0.09-0.026-0.168-0.079-0.23c-0.052-0.063-0.12-0.125-0.203-0.17c-0.083-0.051-0.173-0.084-0.272-0.107
	c-0.099-0.027-0.197-0.055-0.295-0.066c-0.344-0.057-0.619-0.141-0.825-0.258c-0.206-0.115-0.364-0.242-0.476-0.377
	c-0.111-0.137-0.184-0.277-0.219-0.422c-0.034-0.146-0.051-0.271-0.051-0.385c0-0.162,0.028-0.314,0.084-0.461
	c0.057-0.146,0.137-0.271,0.24-0.393c0.103-0.115,0.224-0.207,0.363-0.281c0.14-0.072,0.293-0.123,0.458-0.145v-0.43h0.849v0.49
	c0.125,0.035,0.238,0.088,0.34,0.15v-0.189h0.848v1.348h-0.853c-0.069-0.08-0.135-0.148-0.2-0.215
	c-0.064-0.063-0.133-0.113-0.207-0.152c-0.073-0.041-0.152-0.068-0.239-0.094c-0.087-0.02-0.189-0.033-0.306-0.033
	c-0.169,0-0.3,0.041-0.391,0.127c-0.091,0.086-0.136,0.182-0.136,0.275c0,0.277,0.282,0.463,0.849,0.555
	c0.351,0.055,0.632,0.146,0.839,0.271s0.367,0.262,0.476,0.408c0.109,0.145,0.179,0.293,0.209,0.436
	c0.03,0.146,0.045,0.264,0.045,0.354C26.752,2166.007,26.721,2166.166,26.655,2166.314z M31,2162.886l-0.387-0.488l-0.387,0.488
	c-1.658-0.188-2.979-1.582-3.167-3.336l0.51-0.453l-0.502-0.447c0.207-1.73,1.519-3.104,3.167-3.285l0.377,0.477l0.377-0.477
	c1.644,0.186,2.955,1.553,3.164,3.281l-0.541,0.479l0.541,0.482C33.945,2161.333,32.639,2162.699,31,2162.886z"/>
<path fill="#5BB1C4" d="M27.083,2158.937c-0.019-0.041-0.042-0.076-0.069-0.109l-0.444-2.73l-0.474,2.764h0.002
	c-0.068,0.104-0.108,0.227-0.108,0.354c0,0.338,0.26,0.613,0.58,0.613c0.065,0,0.13-0.014,0.188-0.037l-0.001,0.004l1.755,0.217
	l-1.428-1.076L27.083,2158.937z"/>
<path fill="#5BB1C4" d="M25.14,2161.66h4.221c0.146,0,0.271,0.127,0.271,0.285v5.693c0,0.156-0.12,0.283-0.271,0.283H25.14
	c-0.149,0-0.27-0.127-0.27-0.283v-5.693C24.87,2161.787,24.991,2161.66,25.14,2161.66z"/>
<path fill="#5BB1C4" d="M32.266,2062.017v-4.313l-0.002-0.656h-0.076c-0.396-1.736-2.283-3.061-4.521-3.061
	c-2.252,0-4.143,1.334-4.529,3.082l-0.074,0.002v4.08c-1.117,0.938-1.811,2.246-1.811,3.688c0,2.855,2.686,5.166,6,5.166
	c3.313,0,6-2.313,6-5.166C33.25,2063.8,32.887,2062.83,32.266,2062.017z M25.923,2067.429l0.861-2.682
	c-0.543-0.205-0.893-0.662-0.893-1.176c0-0.707,0.667-1.283,1.491-1.283c0.824,0,1.491,0.576,1.491,1.283
	c0,0.445-0.281,0.875-0.734,1.104l0.83,2.75h-3.046V2067.429z M27.25,2059.683c-0.959,0-1.863,0.197-2.667,0.541v-2.361l0.001-0.15
	c0.015-1.33,1.396-2.412,3.078-2.412c1.684,0,3.063,1.082,3.078,2.412l0.001,2.939C29.757,2060.042,28.553,2059.683,27.25,2059.683z
	"/>
<g>
	<path fill="#5BB1C3" d="M30.479,2214.246v1.875c0,0.316,1.229,0,0.92,0H23.11c0.01-0.498,0,0.316,0,0v-11.25c0-0.318-0.307,0,0,0
		h7.369c0.31,0,0-0.318,0,0v1.875l1.842,0.938v-3.75c0-0.955,0,0.088,0-0.938l-10.302,0.008c-0.923,0-0.747-0.02-0.747,0.93
		l-0.003,12.324c0.027,1.746,0.059,0.48,0.003,1.738l9.465-0.012c0.926,0-0.002,0.025,1.58,0.012v-4.689L30.479,2214.246z"/>
	<path fill="#5BB1C3" d="M29.064,2214.24c0,0-0.561,0.162-0.561-0.576c0-0.166,0-0.725,0-1.439h-3.342
		c-0.309,0-0.558-0.26-0.558-0.568v-2.313c0-0.313,0.249-0.572,0.558-0.572h3.343c0-0.688,0-1.238,0-1.459
		c0-0.771,0.562-0.563,0.562-0.563l4.179,3.746L29.064,2214.24z"/>
</g>
<path fill="#5BB1C3" d="M34.055,1914.882c0-0.002,0.002-0.006,0.002-0.008c-0.002-0.006-0.007-0.012-0.01-0.021
	c-0.005-0.02-0.012-0.035-0.021-0.055c-0.006-0.01-0.014-0.018-0.021-0.027c-0.012-0.012-0.021-0.02-0.038-0.029
	c-0.007-0.004-0.013-0.014-0.021-0.018l-0.768-0.375l0.514-0.504c0.045-0.043,0.065-0.104,0.063-0.164l-0.188-2.369
	c-0.004-0.025-0.012-0.029-0.014-0.037c-0.005-0.021-0.012-0.039-0.021-0.057c-0.007-0.01-0.015-0.018-0.021-0.025
	c-0.012-0.014-0.021-0.021-0.035-0.031c-0.01-0.004-0.015-0.012-0.021-0.018l-6.458-3.143c0,0-0.169-0.021-0.228,0.043l-6.457,6.914
	c-0.021,0.021-0.033,0.049-0.041,0.074c-0.014,0.031-0.016,0.063-0.013,0.094l0.259,2.031c0.008,0.063,0.05,0.127,0.11,0.15
	l0.901,0.451l-0.722,0.773c-0.002,0.002-0.002,0.006-0.005,0.008c-0.016,0.02-0.028,0.041-0.036,0.064
	c-0.001,0.004-0.005,0.008-0.006,0.012c-0.007,0.025-0.01,0.057-0.007,0.084l0.259,2.031c0.008,0.066,0.05,0.127,0.11,0.154
	l6.198,3.096c0.002,0.002,0.004,0,0.006,0.002c0.024,0.012,0.052,0.018,0.08,0.018l0,0c0.004,0,0.008,0,0.012,0
	c0.008,0,0.016-0.004,0.023-0.006c0.016-0.002,0.03-0.004,0.045-0.012c0.013-0.004,0.021-0.016,0.032-0.021
	c0.009-0.006,0.019-0.01,0.025-0.016l6.646-6.527c0.043-0.043,0.063-0.104,0.063-0.164l-0.188-2.371
	C34.059,1914.89,34.057,1914.888,34.055,1914.882z M27.176,1909.173l4.747,2.289l-1.262,1.293l-4.713-2.244L27.176,1909.173z
	 M20.894,1916.998l-0.198-1.553l5.915,2.836l0.082,1.609L20.894,1916.998z M21.388,1920.576l-0.198-1.553l5.915,2.838l0.082,1.607
	L21.388,1920.576z M27.084,1919.771l-0.079-1.543l6.197-6.438l0.146,1.83L27.084,1919.771z M27.58,1923.351l-0.079-1.543
	l6.198-6.438l0.146,1.83L27.58,1923.351z"/>
<path fill="#5BB1C4" d="M22.922,2105.341h6.992v2.924h1.421v-4.275H21.5v14.035h6.43v-5.328h-5.008V2105.341z M26.625,2116.417
	c0.262,0,0.474,0.201,0.474,0.449c0,0.25-0.212,0.445-0.474,0.445s-0.475-0.195-0.475-0.445
	C26.15,2116.619,26.363,2116.417,26.625,2116.417z"/>
<path fill="#5BB1C4" d="M28.617,2108.978v11.01h6.881v-11.01H28.617z M32.212,2109.437c0.091,0,0.166,0.07,0.166,0.158
	c0,0.086-0.073,0.156-0.166,0.156s-0.167-0.07-0.167-0.156C32.046,2109.507,32.119,2109.437,32.212,2109.437z M31.223,2109.964
	h1.979v0.152h-1.979V2109.964z M32.146,2119.513c-0.223,0-0.396-0.168-0.396-0.377c0-0.207,0.178-0.377,0.396-0.377
	c0.217,0,0.396,0.17,0.396,0.377C32.543,2119.345,32.365,2119.513,32.146,2119.513z M34.395,2117.218
	c-1.787,0.008-3.785,0.018-4.672,0.008v-6.566h4.672V2117.218z"/>
<path fill="#626259" d="M33.25,2246.804h-2v-1c0-0.553-0.449-1-1-1c-0.553,0-1,0.447-1,1v1h-4v-1c0-0.553-0.448-1-1-1s-1,0.447-1,1
	v1h-1.999c-1.104,0-2.001,0.896-2.001,2v9.998c0,1.105,0.896,2,2.001,2H33.25c1.104,0,2-0.895,2-2v-9.998
	C35.25,2247.699,34.354,2246.804,33.25,2246.804z M33.25,2258.802H21.251v-8.498H33.25V2258.802z"/>
<g>
	<path fill="#8F8E89" d="M27.25,2300.093c-3.607,0-6.616-1.293-7.33-3.02c-0.105,0.254-0.163,0.518-0.163,0.787
		c0,2.104,3.354,3.809,7.493,3.809c4.137,0,7.493-1.705,7.493-3.809c0-0.271-0.058-0.531-0.162-0.787
		C33.865,2298.8,30.855,2300.093,27.25,2300.093z"/>
	<path fill="#8F8E89" d="M27.25,2302.83c-3.607,0-6.616-1.295-7.33-3.02c-0.105,0.252-0.163,0.518-0.163,0.785
		c0,2.104,3.354,3.807,7.493,3.807c4.137,0,7.493-1.703,7.493-3.807c0-0.27-0.058-0.531-0.162-0.785
		C33.865,2301.533,30.855,2302.83,27.25,2302.83z"/>
	<path fill="#8F8E89" d="M27.25,2305.65c-3.607,0-6.616-1.293-7.33-3.02c-0.105,0.254-0.163,0.52-0.163,0.787
		c0,2.104,3.354,3.807,7.493,3.807c4.137,0,7.493-1.703,7.493-3.807c0-0.271-0.058-0.533-0.162-0.787
		C33.865,2304.357,30.855,2305.65,27.25,2305.65z"/>
	<path fill="#8F8E89" d="M27.25,2291.25c4.139,0,7.493,1.703,7.493,3.807c0,2.105-3.354,3.807-7.493,3.807
		c-4.139,0-7.493-1.705-7.493-3.807C19.757,2292.953,23.111,2291.25,27.25,2291.25z"/>
</g>
<path fill="#8F8E89" d="M33.313,2332.117v12.178H22.12c-0.515,0-0.933-0.418-0.933-0.938s0.418-0.938,0.933-0.938h10.26v-12.178
	H22.12c-1.03,0-1.866,0.84-1.866,1.875v11.234c0,1.035,0.835,1.873,1.866,1.873h12.126v-13.109h-0.934V2332.117L33.313,2332.117z"/>
<path fill="#8F8E89" d="M27.306,2372.464c0.73,0,1.354-0.256,1.87-0.766c0.518-0.518,0.774-1.127,0.774-1.855
	c0-0.723-0.259-1.34-0.774-1.85c-0.515-0.512-1.14-0.768-1.87-0.768c-0.732,0-1.356,0.256-1.873,0.768
	c-0.516,0.51-0.773,1.127-0.773,1.85c0,0.729,0.258,1.34,0.773,1.855C25.949,2372.208,26.573,2372.464,27.306,2372.464z
	 M29.878,2373.068c0.358,0,0.679,0.084,0.953,0.25s0.476,0.332,0.594,0.498l0.146,0.248l3.89,5.301
	c0.188,0.262,0.288,0.545,0.288,0.854c0,0.402-0.146,0.754-0.45,1.055c-0.3,0.297-0.651,0.439-1.063,0.439
	c-0.189,0-0.383-0.037-0.574-0.104l-2.34-0.678v2.313h-8.133v-2.313l-2.339,0.678c-0.192,0.07-0.384,0.104-0.575,0.104
	c-0.408,0-0.763-0.145-1.063-0.439c-0.301-0.295-0.45-0.646-0.45-1.055c0-0.309,0.097-0.592,0.288-0.854l3.887-5.301
	c0.024-0.07,0.078-0.166,0.162-0.285c0.084-0.117,0.27-0.268,0.559-0.443c0.287-0.178,0.611-0.268,0.971-0.268H29.878z
	 M27.251,2381.64l3.022-0.996h-0.037c-0.406-0.119-0.719-0.314-0.938-0.588c-0.216-0.271-0.315-0.551-0.306-0.836
	s0.09-0.557,0.23-0.816c0.146-0.262,0.379-0.439,0.703-0.535c0.322-0.094,0.688-0.094,1.098,0l0.287,0.107v-3.094l-4.063,1.314
	l-4.066-1.314v3.094l0.287-0.107c0.408-0.094,0.774-0.094,1.098,0c0.324,0.096,0.559,0.273,0.703,0.535
	c0.144,0.26,0.222,0.533,0.233,0.816c0.013,0.285-0.09,0.563-0.306,0.836c-0.217,0.273-0.516,0.469-0.9,0.588h-0.072L27.251,2381.64
	z"/>
</svg>
