<?xml version="1.0" encoding="utf-8"?>
<!-- Generator: Adobe Illustrator 16.0.0, SVG Export Plug-In . SVG Version: 6.00 Build 0)  -->
<!DOCTYPE svg PUBLIC "-//W3C//DTD SVG 1.1//EN" "http://www.w3.org/Graphics/SVG/1.1/DTD/svg11.dtd">
<svg version="1.1" id="Layer_1" xmlns="http://www.w3.org/2000/svg" xmlns:xlink="http://www.w3.org/1999/xlink" x="0px" y="0px"
	 width="15px" height="15px" viewBox="0 0 15 15" enable-background="new 0 0 15 15" xml:space="preserve">
<path fill="#FFFFFF" d="M3.506,3.249c0.127,0.07,0.979,0.479,1.391,0.675c0.001,0.158,0.005,0.432,0.01,0.437
	c0.045,0.392,0.124,0.828,0.146,0.951c-0.038,0.021-0.23,0.146-0.23,0.533c0,0.002,0,0.004,0.001,0.006
	c0,0.01-0.001,0.021-0.001,0.031C4.906,6.96,5.339,6.496,5.428,6.968c0.148,0.785,0.85,1.353,1.287,1.55
	C6.967,8.631,7.227,8.688,7.5,8.693c0.273-0.006,0.533-0.063,0.785-0.176c0.438-0.197,1.138-0.765,1.287-1.55
	c0.089-0.473,0.521-0.008,0.604-1.086c0-0.011,0-0.021,0-0.031c0-0.002,0-0.004,0-0.006c0-0.388-0.192-0.512-0.229-0.533
	c0.021-0.123,0.1-0.559,0.146-0.951c0.005-0.005,0.009-0.279,0.011-0.437c0.227-0.108,0.586-0.28,0.885-0.424v1.042
	c-0.084,0.049-0.143,0.134-0.143,0.236c0,0.09,0.047,0.167,0.114,0.218c0,0-0.12,0.668-0.159,0.865
	c-0.039,0.197,0.686,0.157,0.652,0c-0.033-0.157-0.159-0.865-0.159-0.865c0.067-0.05,0.114-0.127,0.114-0.218
	c0-0.102-0.059-0.188-0.141-0.236V3.363c0.11-0.055,0.193-0.096,0.228-0.115c0.089-0.05,0.138-0.114,0.127-0.181
	c0.012-0.069-0.038-0.144-0.174-0.209C10.48,2.389,8.014,1.192,7.769,1.077C7.662,1.027,7.575,1.005,7.5,1
	C7.425,1.005,7.338,1.027,7.231,1.077C6.987,1.192,4.52,2.389,3.552,2.858c-0.135,0.066-0.186,0.141-0.174,0.21
	C3.368,3.135,3.417,3.198,3.506,3.249z"/>
<path fill="#FFFFFF" d="M10.785,9.992C10.33,9.83,9.537,9.361,9.4,9.288C9.366,9.268,9.325,9.256,9.282,9.256
	c-0.097,0-0.179,0.055-0.216,0.135c-0.375,0.623-1.071,2.435-1.558,2.469c-0.003,0-0.006-0.002-0.009-0.002
	s-0.006,0.002-0.009,0.002c-0.485-0.034-1.182-1.846-1.557-2.469c-0.039-0.08-0.121-0.135-0.216-0.135
	c-0.043,0-0.084,0.012-0.12,0.032C5.463,9.361,4.67,9.83,4.215,9.992C2.687,10.539,2,11.096,2,11.475c0,0.012,0,0.024,0,0.039
	c0,0.461,0,2.449,0,2.449C2,13.986,2,14,2,14h5.491H7.5h0.009H13c0,0,0-0.014,0-0.038c0,0,0-1.987,0-2.45c0-0.014,0-0.025,0-0.037
	C13,11.096,12.313,10.539,10.785,9.992z"/>
</svg>
