<?xml version="1.0" encoding="iso-8859-1"?>
<!-- Generator: Adobe Illustrator 16.0.3, SVG Export Plug-In . SVG Version: 6.00 Build 0)  -->
<!DOCTYPE svg PUBLIC "-//W3C//DTD SVG 1.1//EN" "http://www.w3.org/Graphics/SVG/1.1/DTD/svg11.dtd">
<svg version="1.1" id="Layer_1" xmlns="http://www.w3.org/2000/svg" xmlns:xlink="http://www.w3.org/1999/xlink" x="0px" y="0px"
	 width="20px" height="20px" viewBox="0 0 20 20" style="enable-background:new 0 0 20 20;" xml:space="preserve">
<path style="fill:#4C4C4D;" d="M8.046,7.126c0.168-0.072,0.331-0.137,0.493-0.195l0.298,1.875C8.851,8.894,8.914,8.969,9,9.001
	C9.086,9.034,9.185,9.02,9.257,8.963l6.11-4.761c0.072-0.057,0.108-0.146,0.094-0.235c-0.014-0.089-0.076-0.164-0.163-0.196
	L7.993,1.017C7.907,0.984,7.809,0.999,7.736,1.056S7.628,1.202,7.643,1.291l0.322,2.026C7.903,3.354,7.841,3.393,7.778,3.436
	c-0.236,0.16-0.486,0.345-0.787,0.58c-0.484,0.378-0.952,0.829-1.43,1.38c-0.433,0.508-0.82,1.052-1.151,1.619
	C3.84,7.99,3.428,9.062,3.187,10.2c-0.087,0.413-0.178,0.901-0.188,1.396c-0.002,0.122,0.085,0.229,0.209,0.252
	c0.046,0.009,0.092,0.006,0.134-0.008c0.07-0.023,0.129-0.075,0.158-0.146c0.176-0.435,0.436-0.855,0.642-1.173
	c0.326-0.502,0.713-0.991,1.151-1.452C6.087,8.231,7.039,7.56,8.046,7.126z"/>
<path style="fill:#4C4C4D;" d="M16.792,8.153c-0.046-0.009-0.092-0.005-0.134,0.008c-0.07,0.023-0.129,0.075-0.158,0.146
	c-0.176,0.435-0.436,0.855-0.642,1.173c-0.326,0.502-0.713,0.991-1.151,1.452c-0.793,0.836-1.746,1.508-2.752,1.941
	c-0.168,0.072-0.331,0.137-0.493,0.195l-0.298-1.875c-0.014-0.089-0.076-0.164-0.163-0.196c-0.086-0.033-0.185-0.018-0.257,0.038
	l-6.11,4.761c-0.073,0.057-0.108,0.146-0.094,0.235c0.014,0.089,0.076,0.164,0.163,0.196l7.306,2.754
	c0.086,0.033,0.184,0.018,0.256-0.039c0.073-0.057,0.108-0.146,0.094-0.235l-0.322-2.026c0.061-0.038,0.124-0.076,0.187-0.119
	c0.236-0.161,0.486-0.345,0.787-0.58c0.484-0.378,0.952-0.83,1.43-1.38c0.432-0.508,0.819-1.052,1.151-1.619
	c0.571-0.975,0.982-2.047,1.224-3.186c0.087-0.413,0.178-0.901,0.188-1.396C17.003,8.283,16.916,8.177,16.792,8.153z"/>
</svg>
