<?xml version="1.0" encoding="utf-8"?>
<!-- Generator: Adobe Illustrator 16.0.0, SVG Export Plug-In . SVG Version: 6.00 Build 0)  -->
<!DOCTYPE svg PUBLIC "-//W3C//DTD SVG 1.1//EN" "http://www.w3.org/Graphics/SVG/1.1/DTD/svg11.dtd">
<svg version="1.1" id="Layer_1" xmlns="http://www.w3.org/2000/svg" xmlns:xlink="http://www.w3.org/1999/xlink" x="0px" y="0px"
	 width="50px" height="50px" viewBox="0 0 50 50" enable-background="new 0 0 50 50" xml:space="preserve">
<path fill-rule="evenodd" clip-rule="evenodd" fill="#454545" d="M25.5,49C12.521,49,2,38.479,2,25.5S12.521,2,25.5,2
	S49,12.521,49,25.5S38.479,49,25.5,49z M25.5,3C13.074,3,3,13.074,3,25.5S13.074,48,25.5,48S48,37.926,48,25.5S37.926,3,25.5,3z
	 M13.001,36c0-3.424,7.42-6.547,9.407-6.849c0.617-0.094,0.631-1.712,0.631-1.712s-1.813-1.712-2.208-4.015
	c-1.063,0-1.719-2.448-0.656-3.309c-0.044-0.907-1.366-7.117,5.325-7.117s5.369,6.21,5.325,7.117
	c1.063,0.861,0.406,3.309-0.656,3.309c-0.395,2.303-2.208,4.015-2.208,4.015s0.014,1.619,0.631,1.712
	c1.987,0.302,9.407,3.424,9.407,6.849H25.5H13.001z"/>
</svg>
